<svg preserveAspectRatio="none" width="100%" height="100%" overflow="visible" style="display: block;" viewBox="0 0 226.407 194.661" fill="none" xmlns="http://www.w3.org/2000/svg">
<g id="Group">
<path id="Vector" d="M115.518 1.94391e-07H110.889V16.2976H115.518V1.94391e-07Z" fill="var(--fill-0, #15004A)"/>
<path id="Vector_2" d="M191.596 31.4597L180.061 42.9879L183.335 46.2559L194.871 34.7278L191.596 31.4597Z" fill="var(--fill-0, #15004A)"/>
<path id="Vector_3" d="M226.407 110.75H210.087V115.373H226.407V110.75Z" fill="var(--fill-0, #15004A)"/>
<path id="Vector_4" d="M183.35 179.868L180.077 183.137L191.617 194.661L194.89 191.392L183.35 179.868Z" fill="var(--fill-0, #15004A)"/>
<path id="Vector_5" d="M43.0498 179.839L31.5099 191.363L34.7835 194.632L46.3234 183.108L43.0498 179.839Z" fill="var(--fill-0, #15004A)"/>
<path id="Vector_6" d="M16.3198 110.75H1.8654e-07V115.373H16.3198V110.75Z" fill="var(--fill-0, #15004A)"/>
<path id="Vector_7" d="M34.7898 31.4784L31.5162 34.7476L43.0561 46.2717L46.3296 43.0026L34.7898 31.4784Z" fill="var(--fill-0, #15004A)"/>
<g id="Group_2">
<path id="Vector_8" d="M72.2819 7.633L68.0001 9.39107L74.2059 24.4644L78.4877 22.7063L72.2819 7.633Z" fill="var(--fill-0, #15004A)"/>
<path id="Vector_9" d="M154.637 7.81528L148.355 22.857L152.628 24.6367L158.91 9.59497L154.637 7.81528Z" fill="var(--fill-0, #15004A)"/>
<path id="Vector_10" d="M217.024 67.9038L201.931 74.1012L203.691 78.3771L218.785 72.1798L217.024 67.9038Z" fill="var(--fill-0, #15004A)"/>
<path id="Vector_11" d="M203.519 148.174L201.737 152.441L216.799 158.715L218.581 154.448L203.519 148.174Z" fill="var(--fill-0, #15004A)"/>
<path id="Vector_12" d="M22.7188 147.732L7.62495 153.93L9.3854 158.206L24.4792 152.008L22.7188 147.732Z" fill="var(--fill-0, #15004A)"/>
<path id="Vector_13" d="M9.62555 67.4157L7.8427 71.6824L22.9038 77.9586L24.6867 73.6919L9.62555 67.4157Z" fill="var(--fill-0, #15004A)"/>
</g>
</g>
</svg>
