<svg preserveAspectRatio="none" width="100%" height="100%" overflow="visible" style="display: block;" viewBox="0 0 17.1429 17.1429" fill="none" xmlns="http://www.w3.org/2000/svg">
<g id="Union">
<path d="M8.57143 3.87429L5.24215 7.20357L3.30514 5.26629L8.57143 0L13.8394 5.26786L11.9023 7.20501L8.57143 3.87429Z" fill="var(--fill-0, white)"/>
<path d="M1.93721 6.63394L0 8.57143L1.93707 10.5082L3.87429 8.57102L1.93721 6.63394Z" fill="var(--fill-0, white)"/>
<path d="M8.57143 13.2686L5.24215 9.9395L3.3024 11.8738L8.57143 17.1429L13.8394 11.8751L13.8404 11.874L11.9022 9.93792L8.57143 13.2686Z" fill="var(--fill-0, white)"/>
<path d="M15.2058 6.63504L13.2686 8.57225L15.2057 10.5093L17.1429 8.57211L15.2058 6.63504Z" fill="var(--fill-0, white)"/>
<path d="M10.5369 8.57038H10.5363L10.538 8.57134L10.5371 8.57244L8.57141 10.5381L6.60745 8.57388L6.60471 8.57106L6.60745 8.56839L8.57141 6.60471L10.5369 8.57038Z" fill="var(--fill-0, white)"/>
</g>
</svg>
