<svg preserveAspectRatio="none" width="100%" height="100%" overflow="visible" style="display: block;" viewBox="0 0 32.9971 22.999" fill="none" xmlns="http://www.w3.org/2000/svg">
<g id="Icon">
<path id="Vector" d="M32.1329 3.23211H12.4C12.3464 2.98162 12.2684 2.73694 12.1671 2.49903C11.9596 2.01161 11.6625 1.57447 11.2845 1.19826C10.9065 0.823017 10.4651 0.528046 9.97414 0.32205C9.46559 0.108317 8.92587 0 8.36959 0C7.8133 0 7.27358 0.108317 6.76503 0.32205C6.27402 0.528046 5.83367 0.823017 5.4547 1.19826C5.0767 1.5735 4.77956 2.01161 4.57205 2.49903C4.47073 2.73694 4.39279 2.98162 4.33921 3.23211H0.866088C0.387742 3.23211 0 3.61702 0 4.09188C0 4.56673 0.387742 4.95164 0.866088 4.95164H4.33726C4.39084 5.20213 4.46878 5.44681 4.5701 5.68472C4.77761 6.17215 5.07475 6.60928 5.45275 6.98549C5.83075 7.36073 6.27207 7.65571 6.76309 7.8617C7.27163 8.07543 7.81135 8.18375 8.36764 8.18375C8.92392 8.18375 9.46364 8.07543 9.97219 7.8617C10.4632 7.65571 10.9036 7.36073 11.2825 6.98549C11.6605 6.61025 11.9577 6.17215 12.1652 5.68472C12.2665 5.44681 12.3444 5.20213 12.398 4.95164H32.131C32.6093 4.95164 32.9971 4.56673 32.9971 4.09188C32.9971 3.61702 32.6093 3.23211 32.131 3.23211H32.1329ZM8.36959 6.46422C7.35736 6.46422 6.4903 5.83656 6.1425 4.95261C6.03729 4.68569 5.97981 4.39555 5.97981 4.09284C5.97981 3.79014 6.03729 3.49903 6.1425 3.23308C6.4903 2.34913 7.35736 1.72147 8.36959 1.72147C9.38181 1.72147 10.2489 2.34913 10.5957 3.23308C10.7009 3.5 10.7584 3.79014 10.7584 4.09284C10.7584 4.39555 10.7009 4.68665 10.5957 4.95261C10.2479 5.83656 9.38083 6.46422 8.36959 6.46422Z" fill="var(--fill-0, #666873)"/>
<path id="Vector_2" d="M32.1329 10.6402H28.6618C28.6082 10.3897 28.5302 10.1451 28.4289 9.90716C28.2214 9.41973 27.9243 8.98259 27.5463 8.60638C27.1683 8.23114 26.7269 7.93617 26.2359 7.73017C25.7274 7.51644 25.1877 7.40812 24.6314 7.40812C24.0751 7.40812 23.5354 7.51644 23.0268 7.73017C22.5358 7.93617 22.0955 8.23114 21.7165 8.60638C21.3385 8.98162 21.0414 9.41973 20.8339 9.90716C20.7325 10.1451 20.6546 10.3897 20.601 10.6402H0.866088C0.387742 10.6402 0 11.0251 0 11.5C0 11.9749 0.387742 12.3598 0.866088 12.3598H20.5991C20.6526 12.6103 20.7306 12.8549 20.8319 13.0928C21.0394 13.5803 21.3366 14.0174 21.7146 14.3936C22.0926 14.7689 22.5339 15.0638 23.0249 15.2698C23.5334 15.4836 24.0732 15.5919 24.6294 15.5919C25.1857 15.5919 25.7254 15.4836 26.234 15.2698C26.725 15.0638 27.1654 14.7689 27.5443 14.3936C27.9223 14.0184 28.2195 13.5803 28.427 13.0928C28.5283 12.8549 28.6062 12.6103 28.6598 12.3598H32.131C32.6093 12.3598 32.9971 11.9749 32.9971 11.5C32.9971 11.0251 32.6093 10.6402 32.131 10.6402H32.1329ZM24.6304 13.8714C23.6182 13.8714 22.7511 13.2437 22.4033 12.3598C22.2981 12.0928 22.2406 11.8027 22.2406 11.5C22.2406 11.1973 22.2981 10.9062 22.4033 10.6402C22.7511 9.75629 23.6182 9.12863 24.6304 9.12863C25.6426 9.12863 26.5097 9.75629 26.8575 10.6402C26.9627 10.9072 27.0202 11.1973 27.0202 11.5C27.0202 11.8027 26.9627 12.0938 26.8575 12.3598C26.5097 13.2437 25.6426 13.8714 24.6304 13.8714Z" fill="var(--fill-0, #666873)"/>
<path id="Vector_3" d="M32.1329 18.0474H12.4C12.3464 17.7969 12.2684 17.5522 12.1671 17.3143C11.9596 16.8269 11.6625 16.3897 11.2845 16.0135C10.9065 15.6373 10.4651 15.3433 9.97414 15.1373C9.46559 14.9236 8.92587 14.8153 8.36959 14.8153C7.8133 14.8153 7.27358 14.9236 6.76503 15.1373C6.27402 15.3433 5.83367 15.6383 5.4547 16.0135C5.0767 16.3888 4.77956 16.8269 4.57205 17.3143C4.47073 17.5522 4.39279 17.7969 4.33921 18.0474H0.866088C0.387742 18.0474 0 18.4323 0 18.9072C0 19.382 0.387742 19.7669 0.866088 19.7669H4.33726C4.39084 20.0174 4.46878 20.2621 4.5701 20.5C4.77761 20.9874 5.07475 21.4246 5.45275 21.8008C5.83075 22.176 6.27207 22.471 6.76309 22.677C7.27163 22.8907 7.81135 22.999 8.36764 22.999C8.92392 22.999 9.46364 22.8907 9.97219 22.677C10.4632 22.471 10.9036 22.176 11.2825 21.8008C11.6605 21.4255 11.9577 20.9874 12.1652 20.5C12.2665 20.2621 12.3444 20.0174 12.398 19.7669H32.131C32.6093 19.7669 32.9971 19.382 32.9971 18.9072C32.9971 18.4323 32.6093 18.0474 32.131 18.0474H32.1329ZM8.36959 21.2795C7.35736 21.2795 6.4903 20.6518 6.1425 19.7679C6.03729 19.501 5.97981 19.2108 5.97981 18.9081C5.97981 18.6054 6.03729 18.3143 6.1425 18.0484C6.4903 17.1644 7.35736 16.5368 8.36959 16.5368C9.38181 16.5368 10.2489 17.1644 10.5957 18.0484C10.7009 18.3153 10.7584 18.6054 10.7584 18.9081C10.7584 19.2108 10.7009 19.5019 10.5957 19.7679C10.2479 20.6518 9.38083 21.2795 8.36959 21.2795Z" fill="var(--fill-0, #666873)"/>
</g>
</svg>
