<svg preserveAspectRatio="none" width="100%" height="100%" overflow="visible" style="display: block;" viewBox="0 0 20.6755 27.9799" fill="none" xmlns="http://www.w3.org/2000/svg">
<g id="fire">
<path id="path-1" fill-rule="evenodd" clip-rule="evenodd" d="M20.6321 18.0972C20.4019 23.5938 15.8748 27.9799 10.3216 27.9799C4.62111 27.9799 9.44462e-06 23.2034 9.44462e-06 17.6583C9.44462e-06 16.9171 -0.0132769 15.4359 1.09805 12.9367C1.76313 11.4411 2.18028 10.5015 2.4157 9.6426C2.54504 9.17055 2.79661 8.42059 3.51373 9.6426C3.93659 10.3631 3.95295 11.3995 3.95295 11.3995C3.95295 11.3995 5.52622 10.1922 6.58824 7.88574C8.14515 4.50455 6.90294 2.48339 6.47844 1.0779C6.33152 0.591684 6.23929 -0.282135 7.24707 0.0896609C8.27396 0.468594 10.9887 2.36897 12.4079 4.37201C14.4332 7.23076 15.153 9.97201 15.153 9.97201C15.153 9.97201 15.8015 9.16715 16.0314 8.32495C16.2911 7.37394 16.2949 6.43205 17.1293 7.44663C17.9229 8.41148 19.1014 10.2247 19.7647 11.9485C20.9692 15.0789 20.6321 18.0972 20.6321 18.0972Z" fill="url(#paint0_linear_0_60)"/>
<path id="path-2" fill-rule="evenodd" clip-rule="evenodd" d="M10.3216 27.9799C6.37973 27.9799 3.18432 24.7845 3.18432 20.8426C3.18432 18.4641 4.1428 17.0201 6.13761 15.0619C7.41485 13.808 8.61028 12.268 9.11834 11.2194C9.21838 11.013 9.446 9.93721 10.3237 11.1968C10.7841 11.8573 11.5058 13.0321 11.9686 14.0348C12.7665 15.7634 12.9569 17.4387 12.9569 17.4387C12.9569 17.4387 13.7388 16.9779 14.2745 15.7916C14.4472 15.4093 14.7964 13.9618 15.7726 15.4091C16.4888 16.4711 17.4728 18.3806 17.4588 20.8426C17.4588 24.7845 14.2633 27.9799 10.3216 27.9799Z" fill="var(--fill-0, #FC9502)"/>
<path id="path-3" fill-rule="evenodd" clip-rule="evenodd" d="M10.4314 20.1838C11.4471 20.1838 11.4471 22.0646 12.7373 24.5759C13.5964 26.2481 12.3113 27.9799 10.4314 27.9799C8.55143 27.9799 7.57648 26.4559 7.57648 24.5759C7.57648 22.6961 9.41569 20.1838 10.4314 20.1838Z" fill="var(--fill-0, #FCE202)"/>
</g>
<defs>
<linearGradient id="paint0_linear_0_60" x1="10.3371" y1="28.0005" x2="10.3371" y2="0.0211431" gradientUnits="userSpaceOnUse">
<stop stop-color="#FF4C0D"/>
<stop offset="1" stop-color="#FC9502"/>
</linearGradient>
</defs>
</svg>
