<svg preserveAspectRatio="none" width="100%" height="100%" overflow="visible" style="display: block;" viewBox="0 0 15 17" fill="none" xmlns="http://www.w3.org/2000/svg">
<g id="Flux Icon" clip-path="url(#clip0_0_126)">
<path id="Vector" d="M14.9303 7.98156C14.9596 9.39479 14.9596 10.8125 14.9459 12.2266C14.9422 12.6302 15.1733 12.7234 14.7056 13.0606L10.8692 15.054L6.74106 12.805L6.6897 8.2721L6.84194 7.9726L10.8682 5.80612L14.9303 7.98156ZM14.9496 4.33102L7.55274 0.000764674C7.35096 -0.0189631 7.03455 0.262607 6.84745 0.360349C4.8609 1.39516 2.77713 2.74024 0.780495 3.92839C0.553959 4.0629 0.255885 4.21714 0 4.28618V7.9179L0.187099 8.01385L2.52125 6.73871L4.9517 8.23085L4.97187 7.08395L10.782 3.83693L14.9496 6.07962V4.33102ZM2.50749 8.69535L0.238459 9.94538C0.0999694 10.0144 0.101804 10.114 0.0862122 10.2449C0.0522776 10.5238 0.0440232 12.7638 0.110975 12.8777L2.43687 14.151C2.58545 14.1609 4.2244 13.2695 4.48395 13.1099C4.64262 13.0131 4.92051 12.8427 4.95353 12.6723L4.93794 10.0404L2.50749 8.69625V8.69535ZM5.89544 14.2541L4.21981 15.0495L4.27576 15.2333L7.49037 17.0008C7.61602 17.0115 8.77255 16.4044 8.92846 16.2897C9.03302 16.2125 9.11556 16.1946 9.07979 16.0359L5.89544 14.255V14.2541Z" fill="var(--fill-0, white)"/>
</g>
<defs>
<clipPath id="clip0_0_126">
<rect width="15" height="17" fill="white"/>
</clipPath>
</defs>
</svg>
