<svg preserveAspectRatio="none" width="100%" height="100%" overflow="visible" style="display: block;" viewBox="0 0 25.0312 23.75" fill="none" xmlns="http://www.w3.org/2000/svg">
<path id="Vector" d="M7.03125 5.5L10.5312 0.96875C10.7812 0.635417 11.0781 0.390625 11.4219 0.234375C11.7656 0.078125 12.125 0 12.5 0C12.875 0 13.2344 0.078125 13.5781 0.234375C13.9219 0.390625 14.2188 0.635417 14.4688 0.96875L17.9688 5.5L23.2812 7.28125C23.8229 7.44792 24.25 7.75521 24.5625 8.20312C24.875 8.65104 25.0312 9.14583 25.0312 9.6875C25.0312 9.9375 24.9948 10.1875 24.9219 10.4375C24.849 10.6875 24.7292 10.9271 24.5625 11.1562L21.125 16.0312L21.25 21.1562C21.2708 21.8854 21.0312 22.5 20.5312 23C20.0312 23.5 19.4479 23.75 18.7812 23.75C18.7396 23.75 18.5104 23.7188 18.0938 23.6562L12.5 22.0938L6.90625 23.6562C6.80208 23.6979 6.6875 23.724 6.5625 23.7344C6.4375 23.7448 6.32292 23.75 6.21875 23.75C5.55208 23.75 4.96875 23.5 4.46875 23C3.96875 22.5 3.72917 21.8854 3.75 21.1562L3.875 16L0.46875 11.1562C0.302083 10.9271 0.182292 10.6875 0.109375 10.4375C0.0364583 10.1875 0 9.9375 0 9.6875C0 9.16667 0.151042 8.68229 0.453125 8.23438C0.755208 7.78646 1.17708 7.46875 1.71875 7.28125L7.03125 5.5Z" fill="var(--fill-0, #F7931A)"/>
</svg>
