<svg width="106" height="223" viewBox="0 0 106 223" fill="none" xmlns="http://www.w3.org/2000/svg">
<path d="M52.8993 222.034C49.5999 222.034 46.9453 219.363 46.9453 216.087V184.741C46.9453 181.446 49.6189 178.794 52.8993 178.794C56.1797 178.794 58.8533 181.464 58.8533 184.741V216.087C58.8533 219.382 56.1797 222.034 52.8993 222.034Z" fill="#D68D3F"/>
<path d="M52.8993 43.2401C49.5999 43.2401 46.9453 40.5696 46.9453 37.293V5.94735C46.9453 2.6518 49.6189 0.000204086 52.8993 0.000204086C56.1797 0.000204086 58.8533 2.67074 58.8533 5.94735V37.293C58.8533 40.5885 56.1797 43.2401 52.8993 43.2401Z" fill="#D68D3F"/>
<path d="M18.7147 222.033C15.4154 222.033 12.7607 219.363 12.7607 216.086V5.94715C12.7607 2.65159 15.4343 0 18.7147 0C21.9951 0 24.6687 2.67053 24.6687 5.94715V216.086C24.6687 219.382 21.9951 222.033 18.7147 222.033Z" fill="#D68D3F"/>
<path d="M62.7805 116.954H18.7133C15.4139 116.954 12.7593 114.284 12.7593 111.007C12.7593 107.731 15.4329 105.06 18.7133 105.06H62.7805C79.7323 105.06 93.5365 91.2719 93.5365 74.3395V73.9797C93.5365 57.0474 79.7323 43.2591 62.7805 43.2591H-9.78627C-13.0856 43.2591 -15.7402 40.5885 -15.7402 37.3119C-15.7402 34.0353 -13.0667 31.3648 -9.78627 31.3648H62.7805C86.312 31.3648 105.444 50.4941 105.444 73.9797V74.3395C105.444 97.844 86.2931 116.954 62.7805 116.954Z" fill="#D68D3F"/>
<path d="M62.7805 190.668H-9.78627C-13.0856 190.668 -15.7402 187.998 -15.7402 184.721C-15.7402 181.445 -13.0667 178.774 -9.78627 178.774H62.7805C79.7323 178.774 93.5365 164.986 93.5365 148.054V147.675C93.5365 130.742 79.7323 116.954 62.7805 116.954H18.7133C15.4139 116.954 12.7593 114.284 12.7593 111.007C12.7593 107.73 15.4329 105.06 18.7133 105.06H62.7805C86.312 105.06 105.444 124.189 105.444 147.675V148.054C105.444 171.558 86.2931 190.668 62.7805 190.668Z" fill="#D68D3F"/>
</svg>
