<svg width="22" height="22" viewBox="0 0 22 22" fill="none" xmlns="http://www.w3.org/2000/svg">
<g clip-path="url(#clip0_59_321)">
<path d="M11 0C4.92397 0 0 4.92397 0 11C0 17.076 4.92397 22 11 22C17.076 22 22 17.076 22 11C22 4.92397 17.076 0 11 0ZM15.3309 5.55547H14.0423C12.775 5.55547 12.3782 6.34484 12.3782 7.15128V9.06711H15.2114L14.7591 12.0198H12.3782V19.1583H9.18658V12.0198H6.59232V9.06711H9.18658V6.8142C9.18658 4.25407 10.7099 2.83747 13.0438 2.83747C14.1618 2.83747 15.3309 3.03801 15.3309 3.03801V5.5512V5.55547Z" fill="#7E889A"/>
</g>
<defs>
<clipPath id="clip0_59_321">
<rect width="22" height="22" fill="white"/>
</clipPath>
</defs>
</svg>
