<svg width="22" height="22" viewBox="0 0 22 22" fill="none" xmlns="http://www.w3.org/2000/svg">
<g clip-path="url(#clip0_59_324)">
<path d="M13.159 11C13.159 12.1606 12.2161 13.1036 11.0555 13.1036C9.89488 13.1036 8.9519 12.1606 8.9519 11C8.9519 9.83941 9.89488 8.89643 11.0555 8.89643C12.2161 8.89643 13.159 9.83941 13.159 11ZM16.4104 8.33747V13.6625C16.4104 15.1773 15.1773 16.4147 13.6583 16.4147H8.3332C6.8142 16.4147 5.58107 15.1815 5.58107 13.6625V8.33747C5.58107 6.82273 6.8142 5.58534 8.3332 5.58534H13.6583C15.1773 5.58534 16.4104 6.81846 16.4104 8.33747ZM14.3367 11C14.3367 9.19085 12.8646 7.71451 11.0512 7.71451C9.23778 7.71451 7.76571 9.18658 7.76571 11C7.76571 12.8134 9.23778 14.2855 11.0512 14.2855C12.8646 14.2855 14.3367 12.8134 14.3367 11ZM15.3095 7.49263C15.3095 7.06168 14.9597 6.71179 14.5287 6.71179C14.0977 6.71179 13.7479 7.06168 13.7479 7.49263C13.7479 7.92358 14.0977 8.27347 14.5287 8.27347C14.9597 8.27347 15.3095 7.92358 15.3095 7.49263ZM22 11C22 17.076 17.076 22 11 22C4.92397 22 0 17.076 0 11C0 4.92397 4.92397 0 11 0C17.076 0 22 4.92397 22 11ZM17.6649 8.33747C17.6649 6.12723 15.8685 4.33088 13.6583 4.33088H8.3332C6.12296 4.33088 4.32661 6.12723 4.32661 8.33747V13.6625C4.32661 15.8728 6.12296 17.6691 8.3332 17.6691H13.6583C15.8685 17.6691 17.6649 15.8728 17.6649 13.6625V8.33747Z" fill="#7E889A"/>
</g>
<defs>
<clipPath id="clip0_59_324">
<rect width="22" height="22" fill="white"/>
</clipPath>
</defs>
</svg>
