<svg width="22" height="22" viewBox="0 0 22 22" fill="none" xmlns="http://www.w3.org/2000/svg">
<g clip-path="url(#clip0_59_318)">
<path d="M11.5675 10.7141L15.3906 16.1842H13.8204L10.6971 11.7211L10.2405 11.064L6.59232 5.84988H8.16253L11.1067 10.057L11.5632 10.7141H11.5675ZM22 11C22 17.076 17.076 22 11 22C4.92397 22 0 17.076 0 11C0 4.92397 4.92397 0 11 0C17.076 0 22 4.92397 22 11ZM16.7901 16.9182L12.1009 10.0912L16.4147 5.07758H15.3906L11.6443 9.42979L8.65322 5.07758H5.20559L9.72847 11.6614L5.20559 16.9182H6.22964L10.185 12.3227L13.3425 16.9182H16.7901Z" fill="#7E889A"/>
</g>
<defs>
<clipPath id="clip0_59_318">
<rect width="22" height="22" fill="white"/>
</clipPath>
</defs>
</svg>
