<svg width="240" height="44" viewBox="0 0 240 44" fill="none" xmlns="http://www.w3.org/2000/svg">
<g opacity="0.15">
<path d="M0.000732422 43.5C2.21029 43.5 12.1533 25.9436 32.4075 37.3818C33.5123 37.3818 42.5346 42.1699 51.557 32.0617C54.3803 29.4016 62.3101 25.6775 71.443 32.0617C74.5118 31.441 81.2386 27.3799 83.5955 16.1013C88.3829 9.36249 100.314 3.12028 109.742 32.0617C112.074 36.6724 120.495 41.1059 135.52 21.9535C138.466 19.7367 145.979 18.7082 152.46 27.0076C165.226 16.19 191.348 -1.88065 193.705 12.3773C196.062 26.6352 212.118 20.8007 219.851 16.1013C224.761 10.2492 235.465 -1.02942 239.001 0.673013" stroke="#FF5668"/>
<path d="M32.4075 37.3818C12.1533 25.9436 2.21029 43.5 0.000732422 43.5H239.001V0.673013C235.465 -1.02942 224.761 10.2492 219.851 16.1013C212.118 20.8007 196.062 26.6352 193.705 12.3773C191.348 -1.88065 165.226 16.19 152.46 27.0076C145.979 18.7082 138.466 19.7367 135.52 21.9535C120.495 41.1059 112.074 36.6724 109.742 32.0617C100.314 3.12028 88.3829 9.36249 83.5955 16.1013C81.2386 27.3799 74.5118 31.441 71.443 32.0617C62.3101 25.6775 54.3803 29.4016 51.557 32.0617C42.5346 42.1699 33.5123 37.3818 32.4075 37.3818Z" fill="url(#paint0_linear_12_87)"/>
</g>
<defs>
<linearGradient id="paint0_linear_12_87" x1="119.501" y1="0.499969" x2="119.501" y2="43.5" gradientUnits="userSpaceOnUse">
<stop stop-color="#FD818D" stop-opacity="0.54"/>
<stop offset="1" stop-color="#FD818D" stop-opacity="0"/>
</linearGradient>
</defs>
</svg>
