<svg width="240" height="48" viewBox="0 0 240 48" fill="none" xmlns="http://www.w3.org/2000/svg">
<g opacity="0.15">
<path d="M0.167725 47.0481C2.37728 47.0481 12.955 -2.66836 33.2092 11.3568C40.3682 14.3425 43.4611 16.3306 52.4834 3.93622C55.3067 0.674546 62.6248 -2.40499 71.7576 5.42302C74.8264 4.66195 83.8728 40.1106 93.7852 31.7856C108.654 19.2981 105.9 18.6043 114.712 13.0543C130.131 5.42302 120.662 44.1126 135.687 20.6285C146.652 6.11676 150.087 26.9293 158.767 17.9105C171.533 4.64642 188.961 3.45222 193.872 8.88651C204.474 20.6188 202.271 25.4751 212.184 19.2313C232.009 17.1501 230.357 27.5563 239.168 15.1355" stroke="#4AC49E"/>
<path d="M32.5745 11.7962C12.3203 -2.22898 2.37728 47.0481 0.167725 47.0481H239.168V15.0688C234.211 28.9438 218.241 13.6813 204.474 22.0063C195.112 8.82503 189.055 2.64801 178.041 6.81052C156.007 15.1379 158.767 21.7185 154.912 20.6285C147.753 18.6043 143.898 11.6668 135.687 20.6285C122.421 40.1106 129.58 15.1355 118.016 11.6668C97.6401 22.0731 91.5825 40.8043 86.0756 30.3981C81.1193 26.8257 74.6788 4.51172 71.6099 5.2728C62.4771 -2.55521 54.5473 2.01112 51.724 5.2728C42.7016 17.6671 33.6793 11.7962 32.5745 11.7962Z" fill="url(#paint0_linear_12_67)"/>
</g>
<defs>
<linearGradient id="paint0_linear_12_67" x1="119.668" y1="-5.67634" x2="119.668" y2="47.0488" gradientUnits="userSpaceOnUse">
<stop stop-color="#4AC49E" stop-opacity="0.85"/>
<stop offset="1" stop-color="#4AC49E" stop-opacity="0"/>
</linearGradient>
</defs>
</svg>
