<svg width="240" height="56" viewBox="0 0 240 56" fill="none" xmlns="http://www.w3.org/2000/svg">
<g opacity="0.15">
<path d="M0.0170898 55.4999C2.22664 55.4999 12.1696 33.0441 32.4239 47.6744C33.5286 47.6744 42.551 53.7986 51.5733 40.8695C54.3966 37.4671 62.3265 32.7038 71.4593 40.8695C74.5281 40.0756 81.255 34.8812 83.6119 20.4551C88.3992 11.8357 100.331 3.85147 109.758 40.8695C112.091 46.767 120.511 52.4377 135.536 27.9404C138.482 25.1051 145.995 23.7895 152.476 34.405C165.243 20.5686 191.364 -2.54507 193.721 15.6918C196.078 33.9286 212.134 26.466 219.868 20.4551C224.778 12.9698 235.482 -1.45629 239.017 0.721243" stroke="#4AC49E"/>
<path d="M32.4239 47.6744C12.1696 33.0441 2.22664 55.4999 0.0170898 55.4999H239.017V0.721243C235.482 -1.45629 224.778 12.9698 219.868 20.4551C212.134 26.466 196.078 33.9286 193.721 15.6918C191.364 -2.54507 165.243 20.5686 152.476 34.405C145.995 23.7895 138.482 25.1051 135.536 27.9404C120.511 52.4377 112.091 46.767 109.758 40.8695C100.331 3.85147 88.3992 11.8357 83.6118 20.4551C81.255 34.8812 74.5281 40.0756 71.4593 40.8695C62.3265 32.7038 54.3966 37.4671 51.5733 40.8695C42.551 53.7986 33.5286 47.6744 32.4239 47.6744Z" fill="url(#paint0_linear_775_4621)"/>
</g>
<defs>
<linearGradient id="paint0_linear_775_4621" x1="119.517" y1="0.499908" x2="119.517" y2="55.4999" gradientUnits="userSpaceOnUse">
<stop stop-color="#4AC49E" stop-opacity="0.85"/>
<stop offset="1" stop-color="#4AC49E" stop-opacity="0"/>
</linearGradient>
</defs>
</svg>
