<svg width="16" height="16" viewBox="0 0 16 16" fill="none" xmlns="http://www.w3.org/2000/svg">
<g clip-path="url(#clip0_737_52)">
<path d="M7.88059 15.7612C12.2329 15.7612 15.7612 12.2329 15.7612 7.88059C15.7612 3.52826 12.2329 0 7.88059 0C3.52826 0 0 3.52826 0 7.88059C0 12.2329 3.52826 15.7612 7.88059 15.7612Z" fill="white"/>
<path d="M7.88059 14.5688C11.5744 14.5688 14.5688 11.5744 14.5688 7.88059C14.5688 4.18679 11.5744 1.19238 7.88059 1.19238C4.18679 1.19238 1.19238 4.18679 1.19238 7.88059C1.19238 11.5744 4.18679 14.5688 7.88059 14.5688Z" fill="white"/>
<path d="M11.3799 2.17188C12.0459 3.21162 12.4321 4.44794 12.4321 5.77436C12.4321 9.46819 9.43769 12.4626 5.74386 12.4626C4.46112 12.4626 3.26278 12.1012 2.24463 11.4749C3.4333 13.3305 5.51327 14.5607 7.88068 14.5607C11.5745 14.5607 14.5689 11.5663 14.5689 7.87246C14.5689 5.46162 13.2931 3.34888 11.3799 2.17188Z" fill="white"/>
<path d="M2.36389 8.49299C2.36389 5.23229 5.00706 2.58913 8.26776 2.58913C10.1737 2.58913 11.8683 3.49235 12.9477 4.89398C11.9283 3.12426 10.0174 1.93262 7.82818 1.93262C4.56748 1.93262 1.92432 4.57578 1.92432 7.83648C1.92432 9.1912 2.38102 10.4392 3.14823 11.4355C2.64933 10.5692 2.36364 9.56451 2.36364 8.49299H2.36389Z" fill="white"/>
<path d="M6.67318 12.1898C6.67318 11.8689 6.67268 11.5477 6.67243 11.2268C6.67243 11.1345 6.67194 11.1342 6.58159 11.1342C6.00376 11.1342 5.42593 11.1342 4.84811 11.1342C4.74932 11.1342 4.74783 11.133 4.74783 11.0349C4.74783 10.7942 4.74733 10.5534 4.74783 10.3127C4.74783 10.2243 4.75354 10.2196 4.8414 10.2191C4.96749 10.2183 5.09334 10.2191 5.21918 10.2082C5.39813 10.1923 5.48823 10.1047 5.50437 9.92495C5.51405 9.81748 5.51479 9.70975 5.51504 9.60203C5.51504 8.44861 5.51529 7.29544 5.51454 6.14202C5.51454 6.04125 5.50958 5.94047 5.50337 5.8397C5.49345 5.6811 5.38597 5.5771 5.22613 5.56096C5.09334 5.54756 4.96054 5.54657 4.82775 5.54955C4.76793 5.55079 4.74659 5.52919 4.74709 5.46987C4.74882 5.21769 4.74932 4.96551 4.74709 4.71333C4.74634 4.6483 4.7729 4.63242 4.83346 4.63242C5.41352 4.63416 5.99358 4.63341 6.57365 4.63341C6.63917 4.63341 6.67202 4.60057 6.67218 4.53487C6.67218 4.24373 6.67392 3.95258 6.67119 3.66118C6.67045 3.59218 6.69279 3.57034 6.76228 3.57133C7.01223 3.57505 7.26217 3.5753 7.51212 3.57133C7.5841 3.57009 7.60098 3.5959 7.60048 3.66292C7.5975 3.95878 7.60122 4.2544 7.59775 4.55026C7.59701 4.61777 7.61934 4.63714 7.68437 4.6349C7.81493 4.63068 7.94574 4.63366 8.07629 4.63366C8.16863 4.63366 8.16888 4.63341 8.16888 4.54381C8.16888 4.25713 8.16888 3.9707 8.16888 3.68402C8.16888 3.61005 8.20693 3.57299 8.28305 3.57282C8.5191 3.57282 8.75539 3.57282 8.99144 3.57282C9.09519 3.57282 9.09543 3.57282 9.09543 3.67434C9.09543 3.97938 9.09742 4.28418 9.09419 4.58923C9.09345 4.65749 9.11877 4.68132 9.18305 4.68851C9.60774 4.73716 9.99221 4.88261 10.3154 5.17004C10.4705 5.30804 10.5857 5.47608 10.6641 5.66645C10.8411 6.09585 10.8168 6.5178 10.5919 6.92387C10.4291 7.21775 10.1828 7.4255 9.88424 7.57442C9.79712 7.61786 9.70578 7.65162 9.61766 7.70349C9.72737 7.73899 9.83782 7.77274 9.94679 7.81022C10.1888 7.89312 10.4077 8.01723 10.5857 8.20189C10.8128 8.43769 10.9538 8.71816 10.997 9.04555C11.0818 9.68791 10.847 10.201 10.3546 10.6008C10.0163 10.8753 9.61469 11.0076 9.18702 11.0632C9.11827 11.0722 9.0932 11.0938 9.09395 11.1652C9.09692 11.5068 9.09469 11.8486 9.09444 12.1901H8.1726C8.17136 12.1603 8.16888 12.1308 8.16888 12.101C8.16863 11.8076 8.16639 11.5142 8.17037 11.2208C8.17136 11.1494 8.14803 11.13 8.07977 11.133C7.96311 11.1379 7.84596 11.134 7.72905 11.1345C7.58484 11.1352 7.59949 11.1191 7.59899 11.262C7.5975 11.5713 7.59626 11.8808 7.59502 12.1901H6.67318V12.1898ZM7.13757 9.06764C7.13757 9.06764 7.13906 9.06764 7.14006 9.06764C7.14006 9.24883 7.13782 9.42978 7.1408 9.61097C7.14254 9.71621 7.13311 9.82219 7.15544 9.92619C7.17679 10.0257 7.22023 10.0607 7.32025 10.0692C7.56275 10.09 7.806 10.0845 8.0485 10.0791C8.24954 10.0746 8.45059 10.0617 8.64742 10.0079C9.27638 9.8356 9.48438 9.10587 9.17983 8.63154C9.0376 8.41014 8.80925 8.31979 8.56129 8.27412C8.4146 8.24707 8.26543 8.24508 8.11675 8.23788C7.80749 8.22299 7.49797 8.23515 7.1887 8.23068C7.15172 8.23019 7.13658 8.24384 7.13683 8.2838C7.13857 8.54516 7.13757 8.80628 7.13757 9.06764ZM7.1403 6.47908C7.1403 6.71066 7.14279 6.94199 7.13881 7.17332C7.13757 7.24406 7.1619 7.26416 7.23015 7.26243C7.39273 7.25821 7.55555 7.25895 7.71813 7.26168C7.98222 7.2659 8.24458 7.25175 8.50495 7.20608C8.88545 7.13907 9.12621 6.91791 9.17983 6.57191C9.23145 6.23783 9.08848 5.92409 8.76085 5.7985C8.55682 5.72031 8.34039 5.7079 8.12569 5.70219C7.8256 5.69425 7.52527 5.70095 7.22519 5.69748C7.15842 5.69673 7.13832 5.71932 7.13906 5.7846C7.14204 6.01593 7.1403 6.24751 7.1403 6.47884V6.47908Z" fill="white"/>
</g>
<defs>
<clipPath id="clip0_737_52">
<rect width="15.7612" height="15.7612" fill="white"/>
</clipPath>
</defs>
</svg>
