<svg width="24" height="24" viewBox="0 0 24 24" fill="none" xmlns="http://www.w3.org/2000/svg">
<path d="M14.6839 13.3017C14.5536 13.292 14.4339 13.1974 14.394 13.0734C14.2911 13.1133 14.1882 13.153 14.0854 13.193C14.1392 13.393 14.3162 13.5542 14.5203 13.5891C14.5207 13.6653 14.5212 13.7414 14.5216 13.8175H14.8489C14.8494 13.7412 14.8497 13.6648 14.8502 13.5884C15.035 13.5565 15.1987 13.4178 15.2563 13.239C15.3138 13.0604 15.2604 12.8498 15.1218 12.7233C15.0974 12.7011 15.0712 12.6819 15.0439 12.6645C14.9113 12.5816 14.7471 12.5491 14.6 12.489C14.5351 12.4626 14.4679 12.4255 14.4397 12.3614C14.412 12.2982 14.4314 12.2202 14.4788 12.1698C14.526 12.1192 14.5968 12.0951 14.666 12.0951C14.8039 12.0949 14.9362 12.1924 14.9767 12.3242L15.2851 12.2043C15.2312 12.0045 15.0543 11.8434 14.8503 11.8084C14.8498 11.7324 14.8495 11.6562 14.849 11.5801H14.5216C14.5214 11.6572 14.5214 11.7345 14.5213 11.8114C14.5213 11.8092 14.4202 11.8369 14.4114 11.8405C14.3745 11.8549 14.3392 11.8735 14.3067 11.8962C14.2446 11.9392 14.1877 11.9979 14.1542 12.0664C14.086 12.2059 14.073 12.3826 14.1364 12.526C14.1508 12.5588 14.1694 12.5898 14.1919 12.6178C14.2621 12.7056 14.3649 12.7617 14.4698 12.8025C14.5744 12.8433 14.6842 12.8715 14.7872 12.9168C14.8424 12.9409 14.8984 12.9728 14.9265 13.0263C14.9612 13.0923 14.9415 13.1788 14.8893 13.2321C14.8368 13.2853 14.7582 13.3072 14.6839 13.3017Z" fill="#257BC1"/>
<path d="M20.3707 8.46384C19.9135 7.38264 19.2583 6.41064 18.4243 5.57664C17.5891 4.74264 16.6183 4.08744 15.5359 3.62904C14.4163 3.15624 13.2259 2.91504 11.9995 2.91504C10.7731 2.91504 9.58393 3.15624 8.46433 3.62904C7.38193 4.08744 6.40993 4.74264 5.57593 5.57664C4.74193 6.41064 4.08673 7.38264 3.62953 8.46384C3.15553 9.58464 2.91553 10.7738 2.91553 12.0002C2.91553 13.2266 3.15553 14.4158 3.62953 15.5366C4.08673 16.6178 4.74193 17.5898 5.57593 18.4238C6.40993 19.2578 7.38193 19.913 8.46433 20.3714C9.58393 20.8442 10.7731 21.0854 11.9995 21.0854C13.2259 21.0854 14.4163 20.8442 15.5359 20.3714C16.6183 19.913 17.5891 19.2578 18.4243 18.4238C19.2583 17.5898 19.9135 16.6178 20.3707 15.5366C20.8447 14.4158 21.0847 13.2266 21.0847 12.0002C21.0847 10.7738 20.8447 9.58464 20.3707 8.46384ZM7.59373 15.4055H6.15553V11.7678L6.87457 10.7104L7.59361 11.7678L7.59373 15.4055ZM13.3886 7.11492L14.1077 6.05748L14.8267 7.11492V9.82332C14.7812 9.82224 14.7286 9.822 14.685 9.822C14.6132 9.822 14.5175 9.8226 14.4691 9.82596C14.4133 9.8298 14.357 9.83484 14.3008 9.8412C14.2062 9.85176 14.1155 9.86616 14.0279 9.88008C13.8965 9.90084 13.7724 9.92052 13.6554 9.92424C13.557 9.9276 13.4646 9.96036 13.3885 10.0169L13.3886 7.11492ZM13.0856 12.1328C13.266 11.763 13.5365 11.4673 13.8548 11.2118C13.9636 11.1245 14.0777 11.0448 14.1949 10.9692C14.0873 10.8841 13.9747 10.8049 13.8737 10.7119C13.7807 10.6265 13.7014 10.5305 13.6417 10.4188C13.6415 10.4185 13.6415 10.4183 13.6415 10.4183C13.6296 10.3961 13.6457 10.3692 13.6706 10.3684C13.9009 10.3608 14.1242 10.3081 14.3508 10.2824C14.4002 10.2769 14.4499 10.2725 14.4995 10.2691C14.5579 10.265 14.8124 10.265 14.8709 10.2691C14.9206 10.2725 14.9701 10.2769 15.0198 10.2824C15.2464 10.308 15.4697 10.3607 15.6997 10.3684C15.7249 10.3692 15.7408 10.3961 15.7291 10.4183C15.7291 10.4183 15.7289 10.4185 15.7289 10.4188C15.6692 10.5305 15.5897 10.6265 15.4969 10.7119C15.3956 10.8049 15.2833 10.8841 15.1757 10.9691C15.2927 11.0448 15.407 11.1246 15.5158 11.2118C15.8339 11.4673 16.1046 11.763 16.285 12.1328C16.4819 12.5365 16.5377 12.9564 16.4214 13.3942C16.3874 13.5214 16.3378 13.6421 16.2731 13.7663C16.2671 13.7778 16.2648 13.7911 16.2667 13.804C16.2667 13.8041 16.2667 13.8042 16.2668 13.8043C16.2689 13.8175 16.2751 13.8298 16.2846 13.8391C16.3612 13.9139 16.4383 13.9892 16.5157 14.0648C16.5096 14.0674 16.5037 14.0699 16.4977 14.0724C16.4648 14.0867 16.4322 14.1017 16.4 14.1175C16.3452 14.1443 16.2865 14.1624 16.2258 14.169C16.0177 14.1919 15.8117 14.2302 15.6059 14.2693L15.6043 14.2696C15.4919 14.2909 15.3755 14.2747 15.2736 14.2225C15.2424 14.2066 15.2095 14.1926 15.1752 14.1814C15.0568 14.1418 14.9246 14.122 14.7822 14.122C14.737 14.122 14.6909 14.1239 14.6452 14.1281C14.4623 14.1444 14.299 14.1524 14.1461 14.1524C13.8631 14.1524 13.6102 14.125 13.3727 14.0683C13.2173 14.0312 13.0706 14.0057 12.93 13.9913C12.9745 13.9478 13.0559 13.8554 13.0906 13.8096C13.1012 13.7954 13.1028 13.7765 13.0946 13.7608C13.0314 13.6385 12.9824 13.5196 12.9492 13.3942C12.8327 12.9564 12.8887 12.5366 13.0856 12.1328ZM10.9776 8.8068L11.6966 7.74936L12.4157 8.8068V13.8719V13.9055C12.4026 13.9069 12.3896 13.9085 12.3766 13.9102C12.112 13.9426 11.8637 14.021 11.6362 14.1445C11.4265 14.258 11.2098 14.3977 10.9776 14.5687V8.8068ZM10.0048 15.4055H8.56657V9.86436L9.28561 8.80692L10.0046 9.86436L10.0048 15.4055ZM17.2427 14.7738C16.9042 15.0704 16.577 15.381 16.2286 15.6654C15.5005 16.2595 14.6548 16.5143 13.7202 16.4963C13.3895 16.4899 13.0585 16.4908 12.7277 16.4938C12.4234 16.4964 12.1372 16.5526 11.8711 16.6696C11.5351 16.8173 11.1422 16.737 10.8827 16.4774C10.5076 16.1023 10.5402 15.4854 10.9517 15.1505C10.992 15.1177 11.0327 15.0852 11.0736 15.0533C11.3183 14.8627 11.5758 14.6824 11.8478 14.535C12.3047 14.2874 12.8 14.3012 13.2892 14.4179C13.7502 14.5278 14.2105 14.5279 14.6772 14.4862C14.8039 14.4749 14.9422 14.4827 15.0616 14.5224C15.2987 14.6014 15.3398 14.89 15.1304 15.0288C15.0067 15.1108 14.8534 15.166 14.7062 15.1903C14.4604 15.231 14.2086 15.2359 13.9596 15.2592C13.8958 15.2652 13.8328 15.2809 13.7695 15.2934C13.7597 15.2953 13.7527 15.3043 13.7534 15.3144V15.3148C13.7542 15.3245 13.7618 15.3322 13.7716 15.333C13.9132 15.3451 14.0548 15.3655 14.1962 15.3649C14.4727 15.3637 14.7509 15.3659 15.0251 15.336C15.3626 15.2992 15.6714 15.1907 15.9151 14.9244C16.1179 14.7029 16.3614 14.5237 16.6409 14.402C16.7945 14.3352 16.9523 14.2883 17.1228 14.3221C17.2361 14.3446 17.3263 14.3983 17.3573 14.5166C17.387 14.63 17.3224 14.7041 17.2427 14.7738Z" fill="#257BC1"/>
</svg>
