<svg preserveAspectRatio="none" width="100%" height="100%" overflow="visible" style="display: block;" viewBox="0 0 2.78335 1.87587" fill="none" xmlns="http://www.w3.org/2000/svg">
<g id="Group">
<path id="Vector" d="M0.0182713 1.45563L0.0548145 1.4739C0.0548145 1.4739 0.0852667 1.48608 0.12181 1.49826C0.158353 1.51044 0.194895 1.52262 0.243619 1.5348C0.286253 1.54698 0.334977 1.55916 0.389791 1.57135C0.438515 1.58353 0.487239 1.58962 0.529872 1.58962C0.590777 1.58962 0.645592 1.56526 0.682135 1.51653C0.724768 1.46781 0.74304 1.39472 0.74304 1.29727C0.74304 1.24855 0.736949 1.20592 0.724768 1.16937C0.712587 1.13283 0.700406 1.10847 0.682135 1.08411C0.663863 1.05975 0.633411 1.04756 0.602958 1.03538C0.572506 1.0232 0.529872 1.0232 0.475058 1.0232H0.24971V0.773492H0.462877C0.62123 0.773492 0.700406 0.688225 0.700406 0.517692C0.700406 0.468968 0.700406 0.432425 0.688225 0.401972C0.676044 0.37152 0.663863 0.347158 0.645591 0.328887C0.62732 0.310615 0.602958 0.298435 0.578596 0.286254C0.554234 0.280163 0.523782 0.274072 0.493329 0.274072C0.456786 0.274072 0.414153 0.274073 0.37152 0.286254C0.328886 0.298435 0.286253 0.304525 0.243619 0.316706C0.207076 0.328887 0.158353 0.341068 0.103538 0.365429L0.0426332 0.395883L0.0304526 0.103538C0.0852669 0.0852669 0.12181 0.0791768 0.146172 0.0730864C0.24971 0.0487244 0.341067 0.0304529 0.432425 0.0182719C0.523782 0.00609091 0.602958 0 0.669953 0C0.74913 0 0.828306 0.0121817 0.895302 0.0304531C0.962297 0.0548151 1.0232 0.0852673 1.07193 0.12181C1.12065 0.164444 1.15719 0.213167 1.18764 0.267982C1.21201 0.328887 1.22419 0.389791 1.22419 0.462877C1.22419 0.535963 1.20592 0.602958 1.17546 0.669954C1.14501 0.736949 1.10238 0.785673 1.04756 0.828307C1.01711 0.852669 0.974478 0.877031 0.931844 0.895302C1.04147 0.925755 1.12674 0.980569 1.18764 1.05366C1.24855 1.12674 1.27291 1.2181 1.27291 1.32773C1.27291 1.4069 1.25464 1.47999 1.2181 1.54089C1.18155 1.60789 1.13892 1.6627 1.07802 1.71143C1.01711 1.76015 0.950116 1.79669 0.87094 1.82715C0.791764 1.85151 0.706497 1.86978 0.615139 1.86978C0.584687 1.86978 0.548144 1.86978 0.511601 1.86978C0.475058 1.86978 0.438515 1.86369 0.389791 1.8576C0.347158 1.8576 0.298434 1.84542 0.243619 1.83324C0.188805 1.82106 0.133991 1.80888 0.0669952 1.79669L0 1.78451V1.4739L0.0182713 1.45563Z" fill="var(--fill-0, white)"/>
<path id="Vector_2" d="M2.77726 0.901393C2.77726 1.05366 2.76508 1.18765 2.73463 1.30946C2.70418 1.43127 2.66154 1.5348 2.60064 1.61398C2.53973 1.69925 2.46665 1.76015 2.38138 1.80888C2.29611 1.85151 2.19258 1.87587 2.07686 1.87587C1.97332 1.87587 1.88196 1.8576 1.79669 1.81497C1.71752 1.77233 1.65052 1.71143 1.59571 1.63225C1.54089 1.55307 1.49826 1.45563 1.46781 1.346C1.43735 1.23637 1.42517 1.10847 1.42517 0.968388C1.42517 0.816126 1.43735 0.682135 1.46781 0.560325C1.49826 0.438515 1.54089 0.341068 1.6018 0.255801C1.6627 0.170534 1.73579 0.10963 1.82106 0.0669961C1.90632 0.0243627 2.00986 3.60609e-07 2.12558 3.60609e-07C2.22912 3.60609e-07 2.32048 0.0182721 2.40574 0.0609055C2.48492 0.103539 2.558 0.164444 2.61282 0.23753C2.66763 0.316706 2.71027 0.408063 2.74072 0.523783C2.77117 0.633411 2.78335 0.761312 2.78335 0.901393H2.77726ZM2.2413 0.767402C2.2413 0.657773 2.2413 0.572506 2.23521 0.505511C2.23521 0.438515 2.22303 0.389791 2.21085 0.353249C2.19867 0.316706 2.18649 0.292344 2.16821 0.280163C2.14994 0.267982 2.13167 0.261891 2.10731 0.261891C2.08295 0.261891 2.06467 0.261892 2.0464 0.280163C2.02813 0.292344 2.00986 0.316706 1.99768 0.353249C1.9855 0.389791 1.97332 0.438515 1.96723 0.505511C1.96723 0.572506 1.96114 0.657773 1.96114 0.761311V1.10847C1.96114 1.22419 1.96114 1.32164 1.97332 1.40081C1.9855 1.47999 1.99768 1.5348 2.00986 1.56526C2.01595 1.57744 2.02813 1.58962 2.04031 1.59571C2.05249 1.6018 2.07077 1.60789 2.10122 1.60789C2.12558 1.60789 2.14994 1.60789 2.16821 1.58962C2.18649 1.57744 2.19867 1.55917 2.21085 1.52262C2.22303 1.48608 2.22912 1.43736 2.23521 1.37036C2.23521 1.30336 2.2413 1.2181 2.2413 1.10238V0.755222V0.767402Z" fill="var(--fill-0, white)"/>
</g>
</svg>
