<svg preserveAspectRatio="none" width="100%" height="100%" overflow="visible" style="display: block;" viewBox="0 0 2.41183 1.88196" fill="none" xmlns="http://www.w3.org/2000/svg">
<g id="Group">
<path id="Vector" d="M0.341068 0.450695L0 0.505509V0.274072L0.584687 0H0.846578V1.83933H0.341068V0.450695Z" fill="var(--fill-0, white)"/>
<path id="Vector_2" d="M2.40574 0.907481C2.40574 1.05974 2.39356 1.19374 2.36311 1.31554C2.33266 1.43735 2.29002 1.54089 2.22912 1.62007C2.16821 1.70534 2.09513 1.76624 2.00986 1.81496C1.92459 1.8576 1.82106 1.88196 1.70534 1.88196C1.6018 1.88196 1.51044 1.86369 1.42517 1.82105C1.346 1.77842 1.279 1.71752 1.22419 1.63834C1.16937 1.55916 1.12674 1.46172 1.09629 1.35209C1.06584 1.24246 1.05365 1.11456 1.05365 0.974477C1.05365 0.822215 1.06584 0.688225 1.09629 0.566415C1.12674 0.444605 1.16937 0.347158 1.23028 0.261891C1.29118 0.176624 1.36427 0.115718 1.44954 0.0730849C1.5348 0.0304515 1.63834 0.00608916 1.75406 0.00608916C1.8576 0.00608916 1.94896 0.024362 2.03422 0.0669954C2.1134 0.109629 2.18648 0.170532 2.2413 0.243618C2.29611 0.322794 2.33875 0.414152 2.3692 0.529871C2.39965 0.6395 2.41183 0.7674 2.41183 0.907481H2.40574ZM1.86978 0.7674C1.86978 0.657771 1.86978 0.572504 1.86369 0.505509C1.86369 0.438514 1.85151 0.38979 1.83933 0.353247C1.82715 0.316704 1.81497 0.292343 1.79669 0.280162C1.77842 0.267981 1.76015 0.261891 1.73579 0.261891C1.71143 0.261891 1.69316 0.26189 1.67488 0.280162C1.65661 0.292343 1.63834 0.316704 1.62616 0.353247C1.61398 0.38979 1.6018 0.438514 1.59571 0.505509C1.58962 0.572504 1.58962 0.657772 1.58962 0.761311V1.10847C1.58962 1.22419 1.58962 1.32163 1.6018 1.40081C1.61398 1.47999 1.62616 1.5348 1.63834 1.56525C1.64443 1.57744 1.65661 1.58962 1.66879 1.59571C1.68097 1.6018 1.69925 1.60789 1.7297 1.60789C1.75406 1.60789 1.77842 1.60789 1.79669 1.58962C1.81497 1.57744 1.82715 1.55916 1.83933 1.52262C1.85151 1.48608 1.8576 1.43735 1.86369 1.37036C1.86369 1.30336 1.86978 1.2181 1.86978 1.10238V0.755219V0.7674Z" fill="var(--fill-0, white)"/>
</g>
</svg>
