<svg preserveAspectRatio="none" width="100%" height="100%" overflow="visible" style="display: block;" viewBox="0 0 2.7529 1.87587" fill="none" xmlns="http://www.w3.org/2000/svg">
<g id="Group">
<path id="Vector" d="M0.548145 0.621229C0.657774 0.621229 0.755221 0.633411 0.840488 0.657773C0.925755 0.682135 0.998841 0.724768 1.05975 0.773492C1.12065 0.822215 1.16328 0.889211 1.19373 0.962297C1.22419 1.03538 1.23637 1.12065 1.23637 1.2181C1.23637 1.30945 1.2181 1.39472 1.18765 1.4739C1.1511 1.55307 1.10847 1.62007 1.04756 1.68097C0.98666 1.74188 0.919664 1.78451 0.840488 1.81496C0.761312 1.84542 0.676044 1.86369 0.584686 1.86369C0.542053 1.86369 0.499421 1.86369 0.450697 1.8576C0.401973 1.8576 0.353248 1.84542 0.304524 1.83324L0.0913582 1.78451L0 1.76015V1.46781L0.0609063 1.48608C0.121811 1.51044 0.170535 1.52871 0.213168 1.54089C0.255802 1.55307 0.298434 1.56525 0.347158 1.57744C0.395881 1.58962 0.438514 1.59571 0.475057 1.59571C0.548143 1.59571 0.602959 1.57135 0.645592 1.52262C0.688226 1.4739 0.706496 1.38863 0.706496 1.27291C0.706496 1.20592 0.706497 1.1511 0.688226 1.10847C0.676045 1.06584 0.657772 1.02929 0.627319 1.00493C0.596867 0.980568 0.560326 0.962297 0.517693 0.950116C0.468969 0.937935 0.414153 0.931844 0.347158 0.931844C0.298434 0.931844 0.255801 0.931844 0.219258 0.931844C0.182715 0.931844 0.146172 0.944025 0.0974477 0.950116H0.048725L0.109629 0.0426332H1.18765L1.13892 0.444605L0.432424 0.237529V0.633411C0.475057 0.633411 0.511601 0.633411 0.554234 0.633411L0.548145 0.621229Z" fill="var(--fill-0, white)"/>
<path id="Vector_2" d="M2.74681 0.901392C2.74681 1.05365 2.73463 1.18764 2.70418 1.30945C2.67372 1.43126 2.63109 1.5348 2.57019 1.61398C2.50928 1.69925 2.4362 1.76015 2.35093 1.80887C2.26566 1.85151 2.16212 1.87587 2.0464 1.87587C1.94287 1.87587 1.85151 1.8576 1.76624 1.81496C1.68707 1.77233 1.62007 1.71143 1.56526 1.63225C1.51044 1.55307 1.46781 1.45563 1.43736 1.346C1.4069 1.23637 1.39472 1.10847 1.39472 0.968387C1.39472 0.816125 1.4069 0.682134 1.43736 0.560324C1.46781 0.438515 1.51044 0.341067 1.57135 0.2558C1.63225 0.170533 1.70534 0.109629 1.7906 0.0669952C1.87587 0.0243617 1.97941 0 2.09513 0C2.19867 0 2.29002 0.0182711 2.37529 0.0609045C2.45447 0.103538 2.52755 0.164443 2.58237 0.237529C2.63718 0.316705 2.67981 0.408062 2.71027 0.523782C2.74072 0.63341 2.7529 0.761311 2.7529 0.901392H2.74681ZM2.21085 0.767401C2.21085 0.657772 2.21085 0.572506 2.20476 0.50551C2.20476 0.438515 2.19258 0.389791 2.1804 0.353248C2.16821 0.316705 2.15603 0.292343 2.13776 0.280162C2.11949 0.267981 2.10122 0.261891 2.07686 0.261891C2.05249 0.261891 2.03422 0.26189 2.01595 0.280162C1.99768 0.292343 1.97941 0.316705 1.96723 0.353248C1.95505 0.389791 1.94287 0.438515 1.93678 0.50551C1.93678 0.572506 1.93069 0.657773 1.93069 0.761311V1.10847C1.93069 1.22419 1.93068 1.32164 1.94286 1.40081C1.95505 1.47999 1.96723 1.5348 1.97941 1.56526C1.9855 1.57744 1.99768 1.58962 2.00986 1.59571C2.02204 1.6018 2.04031 1.60789 2.07077 1.60789C2.09513 1.60789 2.11949 1.60789 2.13776 1.58962C2.15603 1.57744 2.16821 1.55916 2.1804 1.52262C2.19258 1.48608 2.19867 1.43735 2.20476 1.37036C2.21085 1.30336 2.21085 1.2181 2.21085 1.10238V0.75522V0.767401Z" fill="var(--fill-0, white)"/>
</g>
</svg>
