<svg preserveAspectRatio="none" width="100%" height="100%" overflow="visible" style="display: block;" viewBox="0 0 36.7565 30.9064" fill="none" xmlns="http://www.w3.org/2000/svg">
<g id="Group">
<path id="Vector" d="M18.3782 3.78542C18.1833 3.78542 18.025 3.62707 18.025 3.43218V0.928985C18.025 0.73409 18.1833 0.575737 18.3782 0.575737C18.5731 0.575737 18.7315 0.73409 18.7315 0.928985V3.43218C18.7315 3.62707 18.5731 3.78542 18.3782 3.78542Z" fill="var(--fill-0, #080DF9)"/>
<path id="Vector_2" d="M28.8782 8.13403C28.7869 8.13403 28.6955 8.09749 28.6285 8.03049C28.4884 7.89041 28.4884 7.66506 28.6285 7.53107L30.3948 5.76483C30.5348 5.62475 30.7602 5.62475 30.8942 5.76483C31.0282 5.90491 31.0343 6.13026 30.8942 6.26425L29.1279 8.03049C29.0609 8.09749 28.9696 8.13403 28.8782 8.13403Z" fill="var(--fill-0, #080DF9)"/>
<path id="Vector_3" d="M35.73 18.634H33.2268C33.0319 18.634 32.8736 18.4757 32.8736 18.2808C32.8736 18.0859 33.0319 17.9275 33.2268 17.9275H35.73C35.9249 17.9275 36.0833 18.0859 36.0833 18.2808C36.0833 18.4757 35.9249 18.634 35.73 18.634Z" fill="var(--fill-0, #080DF9)"/>
<path id="Vector_4" d="M30.6445 30.9064C30.5531 30.9064 30.4618 30.8698 30.3948 30.8028L28.6285 29.0366C28.4884 28.8965 28.4884 28.6712 28.6285 28.5372C28.7686 28.3971 28.994 28.3971 29.1279 28.5372L30.8942 30.3034C31.0343 30.4435 31.0343 30.6688 30.8942 30.8028C30.8272 30.8698 30.7358 30.9064 30.6445 30.9064Z" fill="var(--fill-0, #080DF9)"/>
<path id="Vector_5" d="M6.11199 30.9064C6.02063 30.9064 5.92928 30.8698 5.86228 30.8028C5.7222 30.6627 5.7222 30.4374 5.86228 30.3034L7.62852 28.5372C7.7686 28.3971 7.99395 28.3971 8.12794 28.5372C8.26193 28.6772 8.26802 28.9026 8.12794 29.0366L6.3617 30.8028C6.29471 30.8698 6.20335 30.9064 6.11199 30.9064Z" fill="var(--fill-0, #080DF9)"/>
<path id="Vector_6" d="M3.52962 18.634H1.02643C0.831537 18.634 0.673185 18.4757 0.673185 18.2808C0.673185 18.0859 0.831537 17.9275 1.02643 17.9275H3.52962C3.72452 17.9275 3.88287 18.0859 3.88287 18.2808C3.88287 18.4757 3.72452 18.634 3.52962 18.634Z" fill="var(--fill-0, #080DF9)"/>
<path id="Vector_7" d="M7.87823 8.13403C7.78687 8.13403 7.69552 8.09749 7.62852 8.03049L5.86228 6.26425C5.7222 6.12417 5.7222 5.89882 5.86228 5.76483C6.00236 5.62475 6.22771 5.62475 6.3617 5.76483L8.12794 7.53107C8.26802 7.67116 8.26802 7.8965 8.12794 8.03049C8.06095 8.09749 7.96959 8.13403 7.87823 8.13403Z" fill="var(--fill-0, #080DF9)"/>
<g id="Group_2">
<path id="Vector_8" d="M12.7323 4.90607C12.5923 4.90607 12.4583 4.82081 12.4035 4.68682L11.4533 2.37243C11.3803 2.18972 11.4655 1.98264 11.6482 1.90955C11.831 1.83647 12.038 1.92173 12.1111 2.10445L13.0612 4.41883C13.1343 4.60155 13.0491 4.80863 12.8663 4.88171C12.8237 4.89998 12.775 4.90607 12.7323 4.90607Z" fill="var(--fill-0, #080DF9)"/>
<path id="Vector_9" d="M24.0972 4.93044C24.0546 4.93044 24.0058 4.92435 23.9632 4.89998C23.7805 4.8269 23.6952 4.61982 23.7744 4.43711L24.7367 2.12881C24.8098 1.9461 25.0169 1.86083 25.1996 1.94001C25.3823 2.01309 25.4676 2.22017 25.3884 2.40288L24.4261 4.71118C24.3713 4.84517 24.2373 4.93044 24.0972 4.93044Z" fill="var(--fill-0, #080DF9)"/>
<path id="Vector_10" d="M32.1123 12.9882C31.9722 12.9882 31.8382 12.9029 31.7834 12.7689C31.7103 12.5862 31.7956 12.3791 31.9783 12.306L34.2927 11.3559C34.4693 11.2828 34.6825 11.3681 34.7556 11.5508C34.8286 11.7335 34.7434 11.9406 34.5607 12.0137L32.2463 12.9638C32.2036 12.9821 32.1549 12.9882 32.1123 12.9882Z" fill="var(--fill-0, #080DF9)"/>
<path id="Vector_11" d="M34.3901 25.3153C34.3475 25.3153 34.2988 25.3092 34.2561 25.2848L31.9478 24.3225C31.7651 24.2495 31.6799 24.0424 31.759 23.8597C31.8321 23.677 32.0453 23.5917 32.2219 23.6709L34.5302 24.6332C34.7129 24.7062 34.7982 24.9133 34.719 25.096C34.6642 25.23 34.5302 25.3153 34.3901 25.3153Z" fill="var(--fill-0, #080DF9)"/>
<path id="Vector_12" d="M2.3298 25.2361C2.18972 25.2361 2.05573 25.1509 2.00091 25.0169C1.92783 24.8341 2.01309 24.6271 2.19581 24.554L4.51019 23.6039C4.69291 23.5308 4.89998 23.616 4.97307 23.7988C5.04615 23.9815 4.96089 24.1886 4.77817 24.2616L2.46379 25.2118C2.42116 25.23 2.37243 25.2361 2.3298 25.2361Z" fill="var(--fill-0, #080DF9)"/>
<path id="Vector_13" d="M4.67463 12.9212C4.632 12.9212 4.58328 12.9151 4.54064 12.8907L2.23235 11.9284C2.04964 11.8553 1.96437 11.6482 2.04354 11.4655C2.11663 11.2828 2.3298 11.1975 2.50642 11.2767L4.81472 12.239C4.99743 12.3121 5.0827 12.5192 5.00352 12.7019C4.94871 12.8359 4.81472 12.9212 4.67463 12.9212Z" fill="var(--fill-0, #080DF9)"/>
</g>
<g id="Group_3">
<path id="Vector_14" d="M21.3321 2.97539C21.3321 2.97539 21.3078 2.97539 21.3017 2.97539C21.2042 2.95712 21.1433 2.86576 21.1616 2.76831L21.661 0.143312C21.6793 0.0458645 21.7767 -0.0150403 21.8681 0.00323112C21.9655 0.0215026 22.0264 0.11286 22.0082 0.210308L21.5087 2.83531C21.4905 2.92057 21.4174 2.98148 21.3321 2.98148V2.97539Z" fill="var(--fill-0, #080DF9)"/>
<path id="Vector_15" d="M31.4789 9.6262C31.4241 9.6262 31.3692 9.60184 31.3327 9.54702C31.2779 9.46785 31.2962 9.35822 31.3814 9.29731L33.5862 7.79296C33.6654 7.73815 33.775 7.75642 33.8359 7.84169C33.8968 7.92696 33.8724 8.03049 33.7872 8.0914L31.5824 9.59575C31.552 9.61402 31.5154 9.6262 31.485 9.6262H31.4789Z" fill="var(--fill-0, #080DF9)"/>
<path id="Vector_16" d="M36.5766 22.0021C36.5766 22.0021 36.5522 22.0021 36.5462 22.0021L33.9212 21.5027C33.8237 21.4844 33.7628 21.393 33.7811 21.2956C33.7993 21.1981 33.8968 21.1372 33.9882 21.1555L36.6131 21.6549C36.7106 21.6732 36.7715 21.7645 36.7532 21.862C36.735 21.9473 36.6619 22.0082 36.5766 22.0082V22.0021Z" fill="var(--fill-0, #080DF9)"/>
<path id="Vector_17" d="M3.06675 28.9818C3.01193 28.9818 2.95712 28.9574 2.92057 28.9026C2.86576 28.8234 2.88403 28.7138 2.9693 28.6529L5.17405 27.1485C5.25323 27.0937 5.36286 27.112 5.42376 27.1973C5.47858 27.2764 5.46031 27.3861 5.37504 27.447L3.17028 28.9513C3.13983 28.9696 3.10329 28.9818 3.07284 28.9818H3.06675Z" fill="var(--fill-0, #080DF9)"/>
<path id="Vector_18" d="M2.79876 15.601C2.79876 15.601 2.7744 15.601 2.76831 15.601L0.143312 15.1015C0.0458646 15.0833 -0.0150402 14.9919 0.00323122 14.8945C0.0215027 14.797 0.118951 14.7361 0.210308 14.7544L2.83531 15.2538C2.93276 15.2721 2.99366 15.3634 2.97539 15.4609C2.95712 15.5462 2.88403 15.6071 2.79876 15.6071V15.601Z" fill="var(--fill-0, #080DF9)"/>
<path id="Vector_19" d="M9.44958 5.44813C9.39476 5.44813 9.33995 5.42376 9.30341 5.36895L7.79906 3.16419C7.74424 3.08502 7.76251 2.97539 7.84778 2.91448C7.93305 2.85967 8.03658 2.87794 8.09749 2.96321L9.60184 5.16796C9.65665 5.24714 9.63838 5.35677 9.55312 5.41767C9.52266 5.43595 9.48612 5.44813 9.45567 5.44813H9.44958Z" fill="var(--fill-0, #080DF9)"/>
<g id="Group_4">
<path id="Vector_20" d="M15.1868 3.02411C15.1076 3.02411 15.0285 2.9693 15.0163 2.88403L14.4803 0.271213C14.462 0.173765 14.523 0.0824077 14.6204 0.0641362C14.7118 0.0397743 14.8092 0.10677 14.8275 0.204217L15.3634 2.81704C15.3817 2.91448 15.3208 3.00584 15.2234 3.02411C15.2112 3.02411 15.199 3.02411 15.1868 3.02411Z" fill="var(--fill-0, #080DF9)"/>
<path id="Vector_21" d="M27.0998 5.30805C27.0633 5.30805 27.0328 5.29586 27.0024 5.27759C26.9171 5.22278 26.8988 5.11315 26.9536 5.03397L28.4214 2.80485C28.4763 2.71959 28.5859 2.70132 28.6651 2.75613C28.7503 2.81095 28.7686 2.92057 28.7138 2.99975L27.246 5.22887C27.2094 5.28368 27.1546 5.30805 27.0998 5.30805Z" fill="var(--fill-0, #080DF9)"/>
<path id="Vector_22" d="M33.909 15.3574C33.8237 15.3574 33.7506 15.3025 33.7384 15.2173C33.7202 15.1198 33.7811 15.0285 33.8785 15.0102L36.4913 14.4742C36.5888 14.4499 36.6801 14.5169 36.6984 14.6143C36.7167 14.7118 36.6558 14.8031 36.5583 14.8214L33.9455 15.3574C33.9455 15.3574 33.9212 15.3574 33.909 15.3574Z" fill="var(--fill-0, #080DF9)"/>
<path id="Vector_23" d="M33.8481 28.7442C33.8115 28.7442 33.7811 28.7321 33.7506 28.7138L31.5215 27.246C31.4362 27.1912 31.418 27.0815 31.4728 27.0024C31.5276 26.9171 31.6372 26.8988 31.7164 26.9536L33.9455 28.4214C34.0308 28.4763 34.0491 28.5859 33.9942 28.6651C33.9577 28.7199 33.9029 28.7442 33.8481 28.7442Z" fill="var(--fill-0, #080DF9)"/>
<path id="Vector_24" d="M0.23467 22.2822C0.155493 22.2822 0.076317 22.2274 0.064136 22.1422C0.0458646 22.0447 0.106769 21.9533 0.204217 21.9351L2.81704 21.3991C2.90839 21.3748 3.00584 21.4417 3.02411 21.5392C3.04238 21.6366 2.98148 21.728 2.88403 21.7463L0.271213 22.2822C0.271213 22.2822 0.246851 22.2822 0.23467 22.2822Z" fill="var(--fill-0, #080DF9)"/>
<path id="Vector_25" d="M5.13751 9.82719C5.10097 9.82719 5.07052 9.81501 5.04006 9.79674L2.81095 8.32893C2.72568 8.27411 2.70741 8.16448 2.76222 8.08531C2.81704 8.00004 2.92666 7.98177 3.00584 8.03658L5.23496 9.50439C5.31414 9.55921 5.3385 9.66883 5.28368 9.74801C5.24714 9.80283 5.19233 9.82719 5.13751 9.82719Z" fill="var(--fill-0, #080DF9)"/>
</g>
</g>
</g>
</svg>
