<svg preserveAspectRatio="none" width="100%" height="100%" overflow="visible" style="display: block;" viewBox="0 0 8.85289 13.3859" fill="none" xmlns="http://www.w3.org/2000/svg">
<g id="Group">
<path id="Vector" d="M8.64529 12.8968L7.95098 13.3292C7.62818 13.5302 7.07395 13.177 6.74506 12.5801L0.0211653 0.380858C-0.0336491 0.27732 0.0211659 0.131147 0.149066 0.051971C0.276966 -0.0272054 0.429228 -0.0150237 0.496224 0.0824241L8.50521 11.4777C8.9011 12.0381 8.97418 12.6897 8.64529 12.8907V12.8968Z" fill="var(--fill-0, #B45614)"/>
<path id="Vector_2" d="M7.14704 9.43741C7.14704 10.0708 6.63543 10.5824 6.00202 10.5824C5.36861 10.5824 4.85701 10.0708 4.85701 9.43741C4.85701 8.804 5.36861 8.2924 6.00202 8.2924C6.63543 8.2924 7.14704 8.804 7.14704 9.43741Z" fill="var(--fill-0, #FFFF3C)"/>
</g>
</svg>
