<svg preserveAspectRatio="none" width="100%" height="100%" overflow="visible" style="display: block;" viewBox="0 0 2.88689 1.87587" fill="none" xmlns="http://www.w3.org/2000/svg">
<g id="Group">
<path id="Vector" d="M0.0548145 1.55917H0.0913582C0.127901 1.55917 0.158355 1.56526 0.182716 1.56526H0.255802C0.426335 1.56526 0.554236 1.52871 0.639503 1.46172C0.72477 1.39472 0.785674 1.28509 0.810036 1.13283C0.73695 1.15719 0.657774 1.16328 0.572507 1.16328C0.48724 1.16328 0.408063 1.1511 0.341068 1.12674C0.267982 1.10238 0.213168 1.06584 0.158354 1.01711C0.10963 0.968389 0.0669952 0.913574 0.0426332 0.840488C0.0121808 0.773493 0 0.694315 0 0.615138C0 0.523781 0.0182726 0.438515 0.048725 0.359339C0.0791774 0.280163 0.127902 0.219258 0.182716 0.164443C0.243621 0.109629 0.310616 0.0669952 0.395883 0.0426332C0.481149 0.0121808 0.572507 0 0.669955 0C0.895303 0 1.06584 0.0669955 1.18156 0.207077C1.29728 0.347158 1.35818 0.542053 1.35818 0.803944C1.35818 0.968387 1.33382 1.12065 1.29727 1.24855C1.25464 1.38254 1.19374 1.49217 1.11456 1.58353C1.03538 1.67488 0.937936 1.74797 0.822217 1.79669C0.706498 1.84542 0.578598 1.86978 0.432426 1.86978C0.359341 1.86978 0.292344 1.86978 0.231439 1.8576C0.170534 1.85151 0.109629 1.83324 0.0548145 1.82106L0.0243625 1.80888L0.0609063 1.57135L0.0548145 1.55917ZM0.834398 0.86485C0.834398 0.828307 0.834398 0.791764 0.834398 0.755221C0.834398 0.718679 0.834398 0.700406 0.834398 0.694315C0.834398 0.609048 0.834398 0.535962 0.822217 0.475057C0.816127 0.414152 0.803946 0.371519 0.791765 0.334976C0.779584 0.298433 0.761312 0.274072 0.74304 0.261891C0.724769 0.24971 0.700406 0.24362 0.676044 0.24362C0.633411 0.24362 0.596868 0.267981 0.566415 0.322795C0.535963 0.371519 0.523782 0.456787 0.523782 0.578597C0.523782 0.633411 0.523783 0.682135 0.535964 0.718678C0.542054 0.755221 0.554236 0.785674 0.572507 0.810036C0.590779 0.834398 0.61514 0.846578 0.645592 0.858759C0.676045 0.87094 0.712588 0.870939 0.755221 0.877029C0.773493 0.877029 0.803945 0.87703 0.840488 0.87094L0.834398 0.86485Z" fill="var(--fill-0, white)"/>
<path id="Vector_2" d="M2.88689 0.901393C2.88689 1.05365 2.86862 1.18765 2.83817 1.30946C2.80771 1.43127 2.76508 1.5348 2.70418 1.61398C2.64327 1.69925 2.57019 1.76015 2.48492 1.80888C2.39965 1.85151 2.29611 1.87587 2.18039 1.87587C2.07686 1.87587 1.9855 1.8576 1.90023 1.81497C1.82106 1.77233 1.75406 1.71143 1.69925 1.63225C1.64443 1.55308 1.6018 1.45563 1.57135 1.346C1.54089 1.23637 1.52871 1.10847 1.52871 0.968388C1.52871 0.816126 1.54089 0.682136 1.57135 0.560327C1.6018 0.438517 1.64443 0.341069 1.70534 0.255802C1.76624 0.170536 1.83933 0.10963 1.92459 0.0669964C2.00986 0.024363 2.1134 7.08482e-07 2.22912 7.08482e-07C2.33266 7.08482e-07 2.42401 0.0182712 2.50928 0.0609047C2.58846 0.103538 2.66154 0.164443 2.71636 0.237529C2.77117 0.316706 2.81381 0.408064 2.84426 0.523783C2.87471 0.633412 2.88689 0.761311 2.88689 0.901393ZM2.35093 0.761312C2.35093 0.651683 2.35093 0.566416 2.34484 0.49942C2.34484 0.432425 2.33266 0.383701 2.32048 0.347158C2.30829 0.310615 2.29611 0.286254 2.27784 0.274073C2.25957 0.261892 2.2413 0.255802 2.21694 0.255802C2.19257 0.255802 2.1743 0.255802 2.15603 0.274073C2.13776 0.286254 2.11949 0.310615 2.10731 0.347158C2.09513 0.383701 2.08295 0.432425 2.07686 0.49942C2.07076 0.566416 2.07077 0.651684 2.07077 0.755222V1.10238C2.07077 1.2181 2.07077 1.31555 2.08904 1.39472C2.10122 1.4739 2.1134 1.52871 2.12558 1.55917C2.13167 1.57135 2.14385 1.58353 2.15603 1.58962C2.16821 1.59571 2.18648 1.6018 2.21085 1.6018C2.23521 1.6018 2.25957 1.6018 2.27784 1.58353C2.29611 1.57135 2.31439 1.55308 2.32048 1.51653C2.33266 1.47999 2.33875 1.43127 2.34484 1.36427C2.34484 1.29728 2.35093 1.21201 2.35093 1.09629V0.74913V0.761312Z" fill="var(--fill-0, white)"/>
</g>
</svg>
