<svg preserveAspectRatio="none" width="100%" height="100%" overflow="visible" style="display: block;" viewBox="0 0 2.67372 1.87587" fill="none" xmlns="http://www.w3.org/2000/svg">
<g id="Group">
<path id="Vector" d="M0.0487227 0.0243625H1.25464V0.328887L0.62123 1.86369H0.0487227L0.877029 0.420244L0 0.542053L0.0487227 0.0304532V0.0243625Z" fill="var(--fill-0, white)"/>
<path id="Vector_2" d="M2.66763 0.901392C2.66763 1.05365 2.64936 1.18764 2.625 1.30945C2.59455 1.43126 2.55191 1.5348 2.49101 1.61398C2.4301 1.69925 2.35702 1.76015 2.27175 1.80887C2.18648 1.85151 2.08295 1.87587 1.96723 1.87587C1.86369 1.87587 1.77233 1.8576 1.68707 1.81496C1.60789 1.77233 1.54089 1.71143 1.48608 1.63225C1.43126 1.55307 1.38863 1.45563 1.35818 1.346C1.32773 1.23637 1.31555 1.10847 1.31555 0.968388C1.31555 0.816125 1.32773 0.682135 1.35818 0.560325C1.38863 0.438515 1.43126 0.341067 1.49217 0.255801C1.55307 0.170534 1.62616 0.109629 1.71143 0.0669958C1.79669 0.0243624 1.90023 3.49386e-08 2.01595 3.49386e-08C2.11949 3.49386e-08 2.21085 0.0182717 2.29611 0.0609051C2.37529 0.103539 2.44838 0.164443 2.50319 0.237529C2.558 0.316705 2.60064 0.408063 2.63109 0.523782C2.66154 0.633411 2.67372 0.761311 2.67372 0.901392H2.66763ZM2.13167 0.761311C2.13167 0.651682 2.13167 0.566415 2.12558 0.49942C2.12558 0.432424 2.1134 0.383701 2.10122 0.347158C2.08904 0.310615 2.07686 0.286253 2.05859 0.274072C2.04031 0.261891 2.02204 0.255801 1.99768 0.255801C1.97332 0.255801 1.95505 0.255801 1.93678 0.274072C1.9185 0.286253 1.90023 0.310615 1.88805 0.347158C1.87587 0.383701 1.86369 0.432424 1.8576 0.49942C1.8576 0.566415 1.85151 0.651682 1.85151 0.75522V1.10238C1.85151 1.2181 1.85151 1.31555 1.86369 1.39472C1.87587 1.4739 1.88805 1.52871 1.90023 1.55916C1.90632 1.57135 1.9185 1.58353 1.93068 1.58962C1.94286 1.59571 1.96114 1.6018 1.99159 1.6018C2.01595 1.6018 2.04031 1.6018 2.05859 1.58353C2.07686 1.57135 2.08904 1.55307 2.10122 1.51653C2.1134 1.47999 2.11949 1.43126 2.12558 1.36427C2.12558 1.29727 2.13167 1.21201 2.13167 1.09629V0.74913V0.761311Z" fill="var(--fill-0, white)"/>
</g>
</svg>
