<svg width="17" height="17" viewBox="0 0 17 17" fill="none" xmlns="http://www.w3.org/2000/svg">
<g clip-path="url(#clip0_268_2409)">
<path d="M8.5 17C13.1944 17 17 13.1944 17 8.5C17 3.80558 13.1944 0 8.5 0C3.80558 0 0 3.80558 0 8.5C0 13.1944 3.80558 17 8.5 17Z" fill="#5AB1C7"/>
<path d="M8.42415 10.7201L8.42952 10.7075L8.4331 10.6977L8.43668 10.6878C8.44473 10.7469 8.54315 10.7657 8.54405 10.7657C8.57089 10.7675 8.60757 10.7433 8.63531 10.7048C8.6541 10.6789 8.66484 10.6512 8.66752 10.6413C8.68005 10.6055 8.63799 10.5447 8.59505 10.5518C8.56999 10.5617 8.55926 10.5814 8.54852 10.6127C8.55866 10.6157 8.56463 10.6204 8.56642 10.627C8.56642 10.627 8.56642 10.6333 8.56642 10.636C8.56642 10.6655 8.56821 10.6735 8.57536 10.6986C8.55121 10.6717 8.5521 10.6324 8.52794 10.6064C8.52794 10.6064 8.50915 10.5912 8.50915 10.627C8.50915 10.653 8.5181 10.678 8.51631 10.7048C8.51631 10.712 8.51094 10.7218 8.50468 10.7174C8.49842 10.7129 8.49484 10.6834 8.49126 10.6547C8.485 10.6082 8.48231 10.5921 8.47336 10.5885C8.46352 10.585 8.44831 10.6324 8.42952 10.6878C8.43131 10.6878 8.4331 10.6878 8.43489 10.6878V10.6887L8.42863 10.6923V10.6887C8.42863 10.6887 8.42505 10.6932 8.42236 10.7218L8.42415 10.7201Z" fill="#2F6E24"/>
<path d="M8.89916 6.61212H8.89826C8.83653 6.60228 8.79 6.65149 8.76853 6.68191C8.76405 6.68817 8.76047 6.6998 8.76137 6.70875C8.76316 6.72396 8.76942 6.7517 8.78374 6.79017C8.79179 6.81165 8.81326 6.86086 8.83653 6.86444C8.84368 6.86444 8.86426 6.86265 8.89468 6.74722C8.909 6.69354 8.91884 6.63001 8.90274 6.6148C8.90274 6.6148 8.90095 6.61391 8.90005 6.61301L8.89916 6.61212Z" fill="#2F6E24"/>
<path d="M7.61058 6.39843H7.60879C7.60253 6.39843 7.59626 6.40021 7.59179 6.40379C7.59 6.40469 7.58016 6.41095 7.54795 6.40916C7.49069 6.40469 7.43611 6.37874 7.37795 6.38679C7.33948 6.39216 7.31711 6.42706 7.32069 6.44137C7.32874 6.47448 7.43432 6.47985 7.44237 6.47985C7.44237 6.47985 7.44237 6.47985 7.44237 6.47895C7.46832 6.47537 7.49248 6.48611 7.51753 6.48521C7.52826 6.47716 7.54526 6.48342 7.58463 6.50848C7.61953 6.53085 7.63921 6.54248 7.65174 6.53532C7.67411 6.51743 7.64905 6.47895 7.62848 6.44764C7.60432 6.41095 7.60342 6.40827 7.60611 6.39932C7.607 6.39932 7.60879 6.39932 7.60969 6.39932L7.61058 6.39843Z" fill="#2F6E24"/>
<path d="M7.84165 10.573C7.84165 10.573 7.83539 10.5766 7.83181 10.5775C7.81481 10.6446 7.85955 10.6276 7.90607 10.6088C7.89355 10.6151 7.86939 10.6267 7.89802 10.6348C7.90399 10.6366 7.91114 10.6369 7.9195 10.6357C7.90876 10.6482 7.9016 10.6571 7.89176 10.6741C7.94186 10.6983 7.97586 10.658 8.00539 10.6115C7.98839 10.6044 7.98034 10.6035 7.96871 10.6053C8.01106 10.5629 8.0379 10.5387 8.04923 10.5328C8.04565 10.5358 8.04327 10.5387 8.04207 10.5417C8.06713 10.5417 8.13334 10.5041 8.16107 10.4863C8.14765 10.5095 8.13781 10.5328 8.12081 10.582L8.11723 10.5909C8.11276 10.607 8.12528 10.6231 8.11813 10.6393C8.10739 10.6625 8.08771 10.6929 8.06623 10.7064C8.01792 10.7377 7.96334 10.7019 7.91413 10.7216C7.9186 10.7583 7.92576 10.8146 7.97407 10.8218C7.97228 10.8218 7.9696 10.8236 7.96781 10.8245C7.96423 10.9148 7.97676 11.0034 8.10918 10.879C8.12171 10.8674 8.13244 10.8549 8.14676 10.845C8.15928 10.8355 8.18821 10.8343 8.23355 10.8415C8.32839 10.8567 8.3105 10.7278 8.37044 10.6894C8.35165 10.667 8.33376 10.6661 8.31139 10.6876C8.31855 10.675 8.31586 10.6706 8.29976 10.667C8.34628 10.6133 8.34718 10.5471 8.32571 10.5525C8.31497 10.5551 8.29349 10.582 8.28186 10.5963C8.2586 10.6258 8.25592 10.6267 8.25144 10.6267C8.25144 10.6276 8.25144 10.6294 8.25144 10.6303C8.25323 10.6473 8.25413 10.6482 8.25681 10.6536C8.26128 10.6536 8.26307 10.6536 8.27023 10.6366C8.26486 10.6571 8.24876 10.7117 8.23176 10.684C8.22997 10.6804 8.22818 10.6768 8.22639 10.6733C8.23176 10.6911 8.24607 10.7395 8.20313 10.7135C8.17449 10.6956 8.14944 10.6598 8.1405 10.6482C8.14228 10.6437 8.14497 10.6375 8.14676 10.633V10.6142C8.17807 10.6276 8.20313 10.5247 8.18702 10.4773C8.18255 10.463 8.17628 10.4666 8.1727 10.4684C8.17986 10.3503 8.15392 10.3547 8.11455 10.361C8.01344 10.4174 7.93649 10.5059 7.84076 10.5704C7.84076 10.5704 7.84255 10.5704 7.84344 10.5704C7.84344 10.5721 7.84165 10.5748 7.84076 10.5766C7.84076 10.5748 7.84076 10.5721 7.84076 10.5713L7.84165 10.573Z" fill="#2F6E24"/>
<path d="M8.55362 10.4238C8.55362 10.4238 8.57062 10.4507 8.59746 10.4489C8.62341 10.4471 8.65025 10.4211 8.65115 10.4202C8.65204 10.4184 8.65115 10.4167 8.65204 10.4149C8.65294 10.4086 8.67531 10.346 8.68873 10.3191C8.69052 10.3155 8.6932 10.3102 8.69589 10.3066C8.67441 10.2547 8.65473 10.2153 8.6252 10.2207C8.58494 10.2332 8.56346 10.3012 8.56436 10.3057C8.54378 10.3299 8.55362 10.4229 8.55362 10.4238Z" fill="#2F6E24"/>
<path d="M8.90641 6.79009C8.90462 6.79546 8.90641 6.79904 8.91357 6.81783C8.92072 6.7892 8.92788 6.76057 8.93504 6.73193C8.92878 6.74267 8.91983 6.75967 8.9073 6.79099L8.90641 6.79009Z" fill="#2F6E24"/>
<path d="M4.82275 9.42287C4.82275 9.42287 4.82423 9.41992 4.8257 9.41992L4.82275 9.42287Z" fill="#2F6E24"/>
<path d="M8.50543 10.516C8.50543 10.516 8.50632 10.516 8.50722 10.516C8.50722 10.516 8.50632 10.516 8.50543 10.5151C8.50274 10.5097 8.50095 10.5062 8.4938 10.4784C8.48127 10.431 8.47769 10.4203 8.47232 10.4221C8.46785 10.4265 8.45801 10.4713 8.47232 10.5169C8.47232 10.5169 8.47143 10.5169 8.47053 10.5169C8.47053 10.5178 8.46964 10.5187 8.47322 10.525H8.47411C8.48574 10.5214 8.49558 10.5187 8.50543 10.5169V10.516Z" fill="#2F6E24"/>
<path d="M8.8973 6.89329C8.93935 6.89955 8.94561 6.94786 8.95098 6.99797C8.95814 7.05792 8.96619 7.0955 9.00556 7.10892C9.01809 7.1125 9.02703 7.1125 9.04314 7.1116C9.05298 7.07492 9.06998 7.01318 9.0834 7.03376L9.0843 7.03555C9.07535 7.01586 9.06909 7.00602 9.05746 6.99529C9.07267 7.00155 9.08072 7.00692 9.09235 7.01765C9.09503 6.99708 9.09861 6.97113 9.09324 6.96039C9.09324 6.96039 9.09146 6.96039 9.09056 6.96039C9.09056 6.96129 9.08967 6.96397 9.08967 6.96486C9.06461 6.98365 9.04672 6.98634 9.01182 6.98723C9.04761 6.98097 9.0664 6.92013 9.0664 6.91923C9.0664 6.91744 9.04135 6.71881 8.9984 6.68929C8.9653 6.66692 8.93219 6.73134 8.93219 6.73223C8.92503 6.76086 8.91788 6.7895 8.91072 6.81813C8.91877 6.84139 8.91519 6.8566 8.89551 6.89418L8.8973 6.89329Z" fill="#2F6E24"/>
<path d="M8.27655 10.4872C8.27655 10.4872 8.27565 10.4899 8.27476 10.4908L8.27834 10.4926C8.30071 10.4997 8.32308 10.4702 8.34723 10.4389C8.37497 10.4031 8.38213 10.3977 8.39644 10.3915C8.39197 10.3754 8.3875 10.3682 8.37586 10.3628C8.39108 10.3485 8.4036 10.3315 8.41881 10.3181C8.42507 10.3127 8.42776 10.3109 8.42955 10.3163V10.31C8.42508 10.2886 8.41702 10.2814 8.39823 10.2823C8.35976 10.2886 8.3195 10.3261 8.31144 10.336C8.31502 10.3619 8.3195 10.3718 8.33023 10.3798C8.30429 10.4022 8.26313 10.4505 8.27655 10.489V10.4872Z" fill="#2F6E24"/>
<path d="M2.52686 5.76317C2.56086 5.76765 2.58143 5.76317 2.70849 5.71396C2.95186 5.62002 2.98764 5.6397 2.86059 5.79717C2.89101 5.82402 2.91875 5.84996 3.01001 5.81238C3.13259 5.76138 3.22475 5.66117 3.33928 5.59765C3.49586 5.51086 3.67212 5.59049 3.83317 5.54038C3.90743 5.51712 3.93159 5.47954 3.94143 5.46344C3.94949 5.44823 3.95396 5.44017 3.96112 5.41602C3.92801 5.42765 3.83138 5.44375 3.80543 5.43391C3.73922 5.45449 3.67838 5.45986 3.44665 5.47238C2.85075 5.50549 2.64049 5.56633 2.5698 5.61107C2.61186 5.60928 2.63512 5.61554 2.6718 5.63612C2.64138 5.69875 2.54564 5.68802 2.52775 5.76407L2.52686 5.76317Z" fill="#2F6E24"/>
<path d="M2.36033 6.79626C2.36033 6.79626 2.35407 6.80431 2.35854 6.81505C2.35854 6.81505 2.35854 6.81505 2.35854 6.81594C2.36302 6.81416 2.37465 6.80879 2.37644 6.80073C2.37644 6.79268 2.3657 6.79089 2.35944 6.79537L2.36033 6.79626Z" fill="#2F6E24"/>
<path d="M2.28713 6.7599C2.28713 6.7599 2.2925 6.76259 2.29518 6.76438C2.29607 6.76438 2.29697 6.76527 2.29786 6.76617C2.29786 6.76438 2.29697 6.76169 2.29607 6.7599C2.29071 6.7429 2.28444 6.7268 2.2755 6.71785C2.27729 6.71517 2.27997 6.71069 2.28176 6.70801C2.24239 6.72053 2.24418 6.73843 2.28623 6.7599H2.28713Z" fill="#2F6E24"/>
<path d="M2.40222 6.80612C2.40043 6.81328 2.40043 6.81865 2.40222 6.82044C2.4058 6.82312 2.41206 6.81328 2.41654 6.80344V6.80075C2.40669 6.78644 2.40222 6.80254 2.40133 6.80612H2.40222Z" fill="#2F6E24"/>
<path d="M2.56867 6.85991C2.56241 6.85991 2.5463 6.8626 2.54541 6.87512C2.54541 6.87781 2.5463 6.88228 2.55346 6.88407C2.56509 6.88765 2.59641 6.88586 2.60625 6.86796C2.60088 6.86081 2.5803 6.85812 2.56867 6.85991Z" fill="#2F6E24"/>
<path d="M2.02588 4.26641C2.02963 4.26547 2.03244 4.26453 2.03525 4.26172C2.0315 4.26266 2.02869 4.26453 2.02588 4.26547V4.26641Z" fill="#2F6E24"/>
<path d="M9.35889 10.981L9.36036 10.9839L9.35889 10.981Z" fill="#2F6E24"/>
<path d="M1.99529 5.73071C1.91566 6.02955 1.95413 6.19508 1.96755 6.23892C2.0096 6.20223 2.01676 6.13334 2.08118 6.11634C2.08118 6.11634 2.08029 6.11634 2.07939 6.11723C2.05971 6.14139 2.05881 6.16734 2.1116 6.22818C2.1116 6.22818 2.11071 6.22997 2.10981 6.23087C2.10266 6.26665 2.10773 6.30125 2.12502 6.33466C2.14232 6.36806 2.15455 6.39788 2.16171 6.42413C2.16171 6.31676 2.15813 6.25681 2.15097 6.24429C2.15097 6.24429 2.14202 6.24339 2.13845 6.2425C2.13397 6.23623 2.1286 6.22818 2.12413 6.22281L2.12055 6.22013C2.12502 6.20402 2.13845 6.14765 2.12413 6.10918C2.13129 6.10829 2.14023 6.1065 2.1465 6.1056C2.10266 6.00718 2.24671 5.86581 2.4856 5.63139C2.47487 5.63497 2.45966 5.63855 2.44892 5.64213C2.38092 5.63229 2.32455 5.58487 2.25566 5.5786C2.23508 5.57681 2.2136 5.60455 2.20108 5.62065C2.21092 5.58039 2.22166 5.52402 2.21808 5.48287C2.21092 5.4775 2.20108 5.47034 2.19302 5.46497C2.06239 5.49271 1.98902 5.63855 1.98634 5.67076C1.98813 5.67971 1.98902 5.6806 1.98902 5.6806C1.97023 5.68776 1.96397 5.69044 1.93713 5.71102C1.92937 5.70744 1.91774 5.70685 1.90223 5.70923C1.93802 5.67792 1.96487 5.63765 1.99976 5.60455C1.71971 5.79513 1.63202 5.53029 1.65439 5.43365C1.66423 5.38892 1.72508 5.35939 1.69466 5.30302C1.68302 5.28155 1.64992 5.24665 1.56045 5.25829C1.76355 4.99344 1.80023 4.54876 1.8056 4.46287C1.80739 4.41008 1.80023 4.39755 1.7555 4.43155C1.71971 4.45929 1.71255 4.46108 1.69913 4.45929C1.7036 4.48344 1.70181 4.48523 1.69376 4.4906C1.66781 4.5085 1.63829 4.51923 1.61145 4.53534C1.55955 4.56665 1.51034 4.60692 1.48887 4.62929C1.46381 4.65613 1.43429 4.70802 1.46471 4.73308C1.49155 4.75544 1.58639 4.75455 1.69376 4.65434C1.71613 4.63108 1.7215 4.62481 1.74208 4.59797C1.73402 4.68297 1.56313 5.12139 1.4835 5.18581C1.50408 5.11423 1.50587 5.08381 1.51302 4.99344C1.52108 4.8986 1.53181 4.84134 1.57744 4.75544C1.51929 4.84402 1.47187 4.90039 1.41371 4.94871C1.41371 4.98271 1.43339 5.01492 1.42713 5.05071C1.42176 5.07576 1.38866 5.11692 1.37792 5.13034C1.38597 5.14018 1.3976 5.15271 1.41729 5.17329C1.41908 5.17508 1.42176 5.17776 1.42266 5.17955C1.42802 5.18492 1.43518 5.19297 1.44055 5.19834C1.43816 5.20371 1.42504 5.21295 1.40118 5.22608C1.38597 5.23592 1.34034 5.26455 1.34571 5.34776C1.35287 5.41665 1.37345 5.43723 1.3806 5.44439C1.36629 5.46765 1.35734 5.48555 1.33945 5.52939C1.33945 5.52939 1.33945 5.53029 1.33945 5.53118C1.33945 5.53118 1.33945 5.53208 1.33945 5.53297V5.53476C1.33945 5.53476 1.33945 5.53566 1.33945 5.53655C1.33945 5.53655 1.33945 5.53744 1.33945 5.53834C1.33945 5.53834 1.33945 5.53923 1.33945 5.54013C1.33945 5.54013 1.33945 5.54102 1.33945 5.54192C1.33945 5.54192 1.33945 5.54281 1.33945 5.54371C1.31976 5.59292 1.31439 5.60455 1.30097 5.63139C1.34392 5.63139 1.33855 5.66987 1.31797 5.69671C1.31797 5.68865 1.31439 5.67702 1.30992 5.67076C1.27473 5.69402 1.27413 5.72683 1.30813 5.76918C1.30455 5.7826 1.30366 5.78708 1.28039 5.81392C1.29202 5.81571 1.30455 5.81392 1.31708 5.8175C1.31708 5.82376 1.31618 5.83092 1.31529 5.83718C1.29023 5.85329 1.25534 5.84344 1.23208 5.86671C1.2115 5.88729 1.21239 5.89176 1.22402 5.92934C1.30008 5.96871 1.42266 5.89981 1.4316 5.89265C1.42534 5.88997 1.41639 5.88818 1.41013 5.88818C1.72866 5.84523 1.92639 5.79244 2.00334 5.72981L1.99529 5.73071Z" fill="#2F6E24"/>
<path d="M2.49617 6.8592C2.50154 6.86099 2.50601 6.8592 2.5078 6.85831C2.50959 6.85025 2.50154 6.8431 2.48096 6.83594C2.48275 6.85204 2.48901 6.8592 2.49527 6.86188L2.49617 6.8592Z" fill="#2F6E24"/>
<path d="M2.16778 6.52246C2.1651 6.55378 2.16689 6.59762 2.21163 6.61551C2.21252 6.61551 2.21431 6.61551 2.21521 6.61641C2.21819 6.61044 2.22028 6.60507 2.22147 6.6003C2.22505 6.58062 2.22147 6.56183 2.20894 6.54393C2.21073 6.54483 2.21163 6.54662 2.21431 6.54662C2.21163 6.54304 2.20984 6.53857 2.16778 6.52246Z" fill="#2F6E24"/>
<path d="M11.1125 14.3417C11.1143 14.3077 11.1322 14.263 11.1528 14.2352C11.1215 14.254 11.083 14.2845 11.0579 14.3113C11.0633 14.2791 11.0857 14.2379 11.108 14.2138C11.0946 14.2191 11.0758 14.2254 11.0615 14.2308C11.0543 14.2173 11.0454 14.2003 11.0382 14.1878C11.0436 14.1726 11.0517 14.1529 11.057 14.1386C11.0275 14.1261 10.9828 14.1207 10.9515 14.1279C10.9515 14.1234 10.9515 14.1171 10.9515 14.1118C10.9058 14.1288 10.8647 14.1565 10.8199 14.1762C10.8199 14.161 10.8208 14.1413 10.8217 14.1261C10.7886 14.1386 10.7475 14.1655 10.7206 14.1896C10.6642 14.0554 10.8146 13.88 10.8163 13.8791C10.802 13.8818 10.7832 13.8845 10.7689 13.8872C10.7832 13.8693 10.7883 13.7828 10.7841 13.6277C10.7475 13.6277 10.6982 13.6358 10.6625 13.6456C10.6607 13.6295 10.658 13.608 10.6562 13.5928C10.641 13.5883 10.6204 13.5821 10.6043 13.5776C10.5667 13.5848 10.5667 13.5848 10.5667 13.5848C10.5927 13.5651 10.6249 13.5356 10.6446 13.5096C10.4942 13.4756 10.462 13.4801 10.3967 13.4908C10.386 13.4717 10.3302 13.435 10.2294 13.3808C10.2723 13.3181 10.2428 13.2466 10.2545 13.1803C10.2643 13.1607 10.2643 13.1607 10.2643 13.1607C10.2348 13.1481 10.199 13.1213 10.1784 13.0962C10.1641 13.0953 10.1453 13.0936 10.131 13.0927C10.1191 13.0402 10.0937 12.9641 10.0549 12.8645C10.0561 12.8758 9.9571 13.008 9.75788 13.2609C9.7534 13.2439 9.74624 13.2206 9.74177 13.2036C9.71045 13.1938 9.66661 13.1866 9.63351 13.1902C9.56998 12.9441 9.62456 12.8743 9.65767 12.8323C9.48946 12.8502 9.35703 12.7205 9.1924 12.7222H9.19151C9.15274 12.7419 9.06237 12.8406 8.9204 13.0184C8.93561 13.0211 8.95709 13.0238 8.9723 13.0265C8.98393 13.124 8.98482 13.1293 8.83361 13.3172C8.88282 13.3978 8.94993 13.5078 8.85061 13.6823C8.84256 13.6966 8.82824 13.7127 8.81751 13.7252C8.72803 13.8263 8.57772 13.8317 8.48824 13.9328C8.36746 14.067 8.32003 14.2433 8.22072 14.39C8.16077 14.3489 8.08651 14.3748 8.02388 14.348C7.99345 14.2263 8.04445 14.1789 8.05519 14.1708C8.08293 14.1798 8.12588 14.178 8.15272 14.1672C8.14735 14.1538 8.1393 14.1368 8.13393 14.1234C8.11782 14.1216 8.09724 14.1189 8.08114 14.118C8.08353 13.9122 8.07995 13.8049 8.0704 13.7959L7.39309 13.4622C7.50403 13.3512 7.38861 13.1759 7.50582 13.0658C7.82256 12.7697 8.26724 12.6686 8.57414 12.3581C8.67793 12.2525 8.67614 12.223 8.67346 12.1639C8.71819 12.1729 8.76531 12.189 8.81482 12.2122C8.83719 12.0575 9.1414 11.9832 9.01524 11.8159C9.08772 11.7559 9.08951 11.7425 9.10114 11.6709C9.08772 11.6602 9.07072 11.6468 9.0573 11.6369C9.08593 11.619 9.12261 11.594 9.14946 11.5734C9.13693 11.5627 9.12082 11.5483 9.10919 11.5376C9.1244 11.5403 9.14409 11.5448 9.1593 11.5475C9.1754 11.5233 9.19598 11.4911 9.2103 11.466C9.22551 11.466 9.24519 11.466 9.2604 11.466C9.33377 11.5668 9.37731 11.6178 9.39103 11.619L9.38477 11.6316C9.37135 11.6432 9.35435 11.6575 9.34093 11.6691C9.35703 11.6736 9.37761 11.6799 9.39372 11.6835C9.4143 11.6763 9.4143 11.6763 9.4143 11.6763L9.42503 11.6852C9.42503 11.6852 9.42503 11.6843 9.42503 11.6835L9.42145 11.6772C9.43577 11.6799 9.45456 11.6826 9.46888 11.6852C9.57446 11.8454 9.4134 12.0029 9.46351 12.163C9.41072 12.163 9.31319 12.163 9.1754 12.3572C9.17988 12.3724 9.18524 12.3939 9.18972 12.4091C9.30872 12.4207 9.4304 12.3966 9.54672 12.4422C9.6013 12.6158 9.71135 12.6712 9.87509 12.6059C9.89656 12.5263 9.90193 12.4869 9.81067 12.3912C10.1811 12.4279 10.0066 12.197 9.94488 12.1255C9.87091 12.0407 9.83095 11.9814 9.82498 11.9474C9.8727 11.9402 9.94338 11.9581 10.037 12.0011C10.1319 11.934 10.1614 11.7693 10.1614 11.7676C10.1578 11.7497 10.1372 11.7327 10.1274 11.7175C10.0934 11.6978 10.0934 11.6969 10.0934 11.696C10.0934 11.696 10.0925 11.6942 10.0916 11.6933C10.0916 11.6933 10.0907 11.6915 10.0898 11.6906H10.0889L10.0862 11.6861L10.088 11.6906L10.0898 11.6942V11.696C10.0898 11.696 10.0898 11.6978 10.0916 11.6987C10.097 11.721 10.097 11.721 10.097 11.7219C9.96456 11.5609 9.86972 11.5725 9.77756 11.5832C9.77577 11.5519 9.77398 11.509 9.77219 11.4777C9.78561 11.4723 9.80351 11.4651 9.81693 11.4598C9.80798 11.4329 9.78472 11.398 9.76145 11.381C9.76235 11.3658 9.76324 11.3452 9.76414 11.33C9.75161 11.3372 9.73461 11.347 9.72209 11.3551C9.71135 11.3282 9.7024 11.2907 9.69882 11.262C9.60338 11.2322 9.54165 11.2119 9.51361 11.2012C9.51361 11.2012 9.51361 11.2012 9.51361 11.2003C9.4644 11.1743 9.44919 11.1672 9.34809 11.0518C9.34988 11.0312 9.34988 11.0017 9.36061 10.9838L9.35256 10.9632L9.35435 10.9668L9.35256 10.9623L9.35435 10.965C9.34451 10.9408 9.33109 10.9086 9.31946 10.8862L9.32393 10.9006C9.31051 10.9068 9.29351 10.914 9.28009 10.9202C9.26935 10.9516 9.25235 10.9918 9.23803 11.0222C9.2443 11.0366 9.25235 11.0545 9.25861 11.0688C9.27382 11.0723 9.29351 11.0777 9.30872 11.0813C9.30245 11.1099 9.29351 11.1484 9.28545 11.177C9.26845 11.1806 9.24609 11.1842 9.22998 11.1878C9.22461 11.1818 9.20016 11.1233 9.15661 11.0124C9.12559 11.0279 9.06416 11.1031 8.9723 11.2379C8.96156 11.1439 9.0233 11.067 9.03403 10.9784C9.00272 10.9873 8.64035 11.2092 8.86224 11.4293C8.83093 11.4285 8.78977 11.4267 8.75845 11.4267C8.84524 11.5403 8.87477 11.5609 8.97677 11.6092C8.85598 11.7291 8.82914 11.9062 8.7164 12.0306C8.70388 11.9349 8.72535 11.8391 8.71819 11.7434C8.70388 11.7434 8.68419 11.7443 8.66988 11.7452C8.64751 11.7765 8.61977 11.8186 8.5983 11.8499C8.59561 11.8114 8.59024 11.7604 8.58488 11.7228C8.59919 11.721 8.61888 11.7192 8.63409 11.7175C8.63051 11.7031 8.62514 11.6843 8.62067 11.6709C8.60367 11.6673 8.5804 11.6638 8.56251 11.6602C8.59054 11.5236 8.683 11.2996 8.83988 10.9882C8.78888 10.9328 8.76203 10.9301 8.72714 10.9453C8.72267 10.9507 8.30124 11.543 8.43188 11.6987C8.41696 11.7112 8.33524 11.826 8.18672 12.0431C8.19149 11.9877 8.21147 11.9399 8.24667 11.9L7.55414 11.7219C7.57293 11.7443 7.6123 11.764 7.64093 11.7667C7.60603 11.7711 7.55951 11.7756 7.52461 11.7765C7.51298 11.806 7.50045 11.8463 7.49419 11.8776C7.4763 11.8424 7.46258 11.7962 7.45303 11.7389C7.3054 11.747 7.26067 11.7353 7.1524 11.6593C7.20967 11.6441 7.24188 11.6351 7.26961 11.5564C7.20609 11.4481 6.94124 11.3059 6.93856 11.305C6.95735 11.279 6.98956 11.2468 7.0173 11.2307C7.00209 11.2262 6.9824 11.2209 6.96809 11.2164C6.94124 11.2316 6.90367 11.2486 6.87503 11.2585C6.88488 11.2236 6.90188 11.1779 6.91619 11.1448C6.87682 11.1502 6.82582 11.1618 6.78824 11.1743C6.79361 11.16 6.80167 11.1403 6.80703 11.126C6.71488 11.0706 6.59051 11.1081 6.5073 11.0249C6.48403 11.0017 6.45003 10.9721 6.42856 10.9471C6.20577 10.6858 6.1834 10.5829 6.12524 10.3091C6.03667 9.89219 5.56782 9.93692 5.35398 9.67298C5.3164 9.71712 5.25496 9.7544 5.16967 9.78482C5.17861 9.81166 5.19472 9.84656 5.20903 9.87071C5.15982 9.86087 5.11867 9.82866 5.06767 9.82419C5.05961 9.81166 5.04977 9.79645 5.04172 9.78392C5.0781 9.74873 5.00712 9.63331 4.82877 9.43766C4.79298 9.52475 4.78314 9.62585 4.79924 9.74098C4.23138 9.2948 3.92449 9.10929 3.87856 9.18445C3.9063 9.24529 3.90809 9.24887 3.96803 9.31508C3.96714 9.31508 3.84098 9.25335 3.69961 9.16835C3.74614 9.30435 3.73809 9.45198 3.79267 9.58529C3.56719 9.46361 3.48577 9.31777 3.09298 8.61719C3.17649 8.77824 3.20065 8.87726 3.16546 8.91424C3.18156 8.91424 3.20303 8.91514 3.21914 8.91603C3.40584 9.28943 3.72019 9.67775 4.16219 10.081C4.12909 10.0738 4.08435 10.0702 4.05035 10.072C4.09419 10.2787 4.31967 10.3038 4.42703 10.4478L4.42167 10.4398L4.42882 10.4487C4.65251 10.5946 4.36709 10.863 4.56572 11.0151C4.38498 11.0992 4.40019 11.1735 4.40914 11.2182C4.44135 11.2262 4.48609 11.2352 4.51919 11.2397C4.51114 11.2513 4.5004 11.2674 4.49235 11.2799C4.52367 11.2835 4.56572 11.2853 4.59703 11.2844C4.59256 11.2996 4.58719 11.3193 4.58361 11.3345C4.48877 11.3435 4.39393 11.3238 4.29909 11.3372C4.30624 11.3497 4.31609 11.3676 4.32414 11.3801C4.36828 11.3897 4.42524 11.3947 4.49503 11.3953C4.4324 11.4544 4.41898 11.4669 4.32235 11.4848C4.3143 11.4759 4.30446 11.4642 4.2964 11.4553C4.29014 11.4455 4.29014 11.4455 4.28924 11.4455C4.20514 11.3372 4.18367 11.3381 4.10582 11.3596C4.15235 11.39 4.1944 11.4267 4.24272 11.4535C4.22303 11.4759 4.18635 11.4965 4.15682 11.5027C4.16577 11.5161 4.1774 11.534 4.18545 11.5483C4.19977 11.551 4.21856 11.5546 4.23288 11.5573C4.18337 11.5531 4.12789 11.5758 4.06646 11.6253C4.00621 11.608 3.95342 11.6017 3.90809 11.6065C3.90809 11.6208 3.90809 11.6405 3.90809 11.6557C3.89019 11.6512 3.86693 11.6459 3.84993 11.6414C3.82756 11.662 3.8043 11.6987 3.79803 11.7291C3.78372 11.7353 3.76493 11.7434 3.75061 11.7497C3.75419 11.7649 3.76045 11.7846 3.76403 11.7989C3.73719 11.7863 3.69961 11.7756 3.67098 11.7711C3.67635 11.7846 3.68261 11.8025 3.68798 11.8159C3.65756 11.8257 3.61551 11.8373 3.58419 11.8445C3.58956 11.8588 3.59582 11.8767 3.6003 11.891C3.6003 11.891 3.57375 11.8499 3.52067 11.7676C3.48488 11.7729 3.43746 11.7765 3.40167 11.7774C3.40972 11.8051 3.41509 11.8436 3.41419 11.8722C3.39898 11.874 3.3793 11.8758 3.36498 11.8767C3.35782 11.9769 3.35872 12.0047 3.37751 12.1308C3.28177 12.0172 3.15114 12.0494 3.05809 12.0959C3.05809 12.1165 3.05809 12.1442 3.05809 12.1648C3.0554 12.1603 3.0554 12.1603 3.05451 12.1603C2.96593 12.0548 2.91851 12.0217 2.7494 11.9903C2.46577 11.9385 2.17677 11.9859 1.89224 11.9456C1.91014 11.9751 1.92982 12.0172 1.94056 12.0503C1.69451 11.9161 1.70882 12.3223 1.75177 12.4502C1.76072 12.614 1.62651 12.716 1.57551 12.8538C1.54419 12.8493 1.53524 12.8484 1.48335 12.7589C1.46724 12.8761 1.5943 12.954 1.57103 13.0739C1.56209 13.0792 1.54956 13.0864 1.53972 13.0918C1.53972 13.1052 1.53972 13.1231 1.54509 13.1347C1.6113 13.2412 1.64619 13.3638 1.71419 13.4693C1.72135 13.4622 1.73209 13.4532 1.73924 13.447C1.73626 13.4237 1.73119 13.3927 1.72403 13.3539C1.72046 13.3333 1.71509 13.3056 1.7124 13.285C1.70524 13.2215 1.77146 13.1812 1.76519 13.1177C1.75803 13.039 1.68824 12.988 1.67751 12.911C1.72761 12.8896 1.7813 12.8985 1.83319 12.8878C1.90119 12.962 1.92177 13.1106 1.92177 13.1123C1.89403 13.1392 1.85377 13.1374 1.82246 13.1562C1.82246 13.1651 1.82246 13.1768 1.82246 13.1848C1.83051 13.1875 1.84035 13.1911 1.8484 13.1938L2.09982 14.0071C2.08998 14.0098 2.07746 14.0125 2.06761 14.0151C2.10072 14.1315 2.5114 14.5377 2.59282 14.6173C3.12161 15.1282 3.71572 15.572 4.36351 15.9335L4.36709 15.9352C4.38409 15.9415 4.40556 15.9505 4.42167 15.9585C4.48698 15.9961 4.64803 16.0632 4.71067 16.0757C4.64982 16.0167 4.63193 15.9997 4.1783 15.7858C3.82935 15.6221 3.13503 15.1443 3.14577 15.0262C4.10314 15.0432 4.74735 15.7178 4.77419 15.7465C4.77598 15.7286 4.78314 15.7053 4.79119 15.6901C4.76435 15.6659 4.75809 15.6606 4.69367 15.623C4.72945 15.6194 4.73661 15.6194 4.85919 15.6919C5.02382 15.7885 5.59109 16.0435 5.59467 16.0444C5.59735 16.0453 5.59735 16.0453 5.59824 16.0453C5.62628 16.0608 5.68444 16.124 5.77272 16.235C5.75661 16.2412 5.73424 16.2448 5.71724 16.2448C5.83953 16.3677 5.92363 16.4378 5.96956 16.4551C5.96598 16.4461 5.96151 16.4345 5.95882 16.4256C6.00445 16.4103 6.05277 16.405 6.0993 16.3907C6.13598 16.3173 6.0823 16.2001 6.19235 16.1634C6.37219 16.1035 6.73188 16.1348 6.83745 16.1455H6.84551C7.15061 16.1786 7.17835 16.167 7.27945 16.1249C7.26872 16.1151 7.25351 16.1017 7.24277 16.0918C7.31017 16.0984 7.36654 16.0993 7.41188 16.0945C7.38503 16.0748 7.34477 16.0542 7.31256 16.0462C7.36177 16.0533 7.41277 16.048 7.46019 16.0641C7.44677 16.0274 7.41277 15.9845 7.38145 15.9603C7.39488 15.9549 7.41277 15.9487 7.42619 15.9433C7.42619 15.9272 7.42798 15.9048 7.42798 15.8887C7.4423 15.8833 7.46109 15.8771 7.4754 15.8717C7.47809 15.8887 7.48256 15.912 7.48614 15.929C7.65077 16.0328 7.71788 15.8153 7.72146 15.8055C7.72921 15.8055 7.89175 15.7539 8.20909 15.6507C8.17956 15.6534 8.14109 15.657 8.11156 15.6588C8.29946 15.5943 8.49719 15.5782 8.68956 15.5344C8.76919 15.0459 9.34003 15.2687 9.63082 15.0673C9.64514 15.0718 9.66393 15.0781 9.67824 15.0835C9.52375 15.1556 9.4301 15.2087 9.3973 15.2427C9.40624 15.2481 9.70151 15.1186 10.2831 14.8544C10.2741 14.8204 10.267 14.7748 10.2634 14.7399C10.224 14.7345 10.224 14.7345 10.224 14.7345C10.1041 14.7918 10.0612 14.9483 9.91803 14.9761C9.79724 14.9993 9.7543 14.8651 9.65409 14.8463C9.67735 14.8258 9.70777 14.7962 9.73014 14.7739C9.72388 14.7587 9.71403 14.739 9.70777 14.7247C9.65945 14.7229 9.60726 14.7279 9.55119 14.7399C9.72835 14.679 9.82617 14.6328 9.84467 14.6012C9.81514 14.5779 9.78024 14.5511 9.68988 14.5627C10.0478 14.3865 10.4003 14.1995 10.7108 13.9373C10.6123 14.1064 10.547 14.2934 10.4253 14.4491C10.4397 14.4545 10.4585 14.4607 10.4719 14.4652C10.4728 14.4822 10.4746 14.5046 10.4755 14.5216C10.5291 14.5242 10.6419 14.5305 10.7993 14.4401C10.8128 14.4473 10.8307 14.4571 10.8432 14.4643C10.8584 14.4545 10.879 14.4419 10.8951 14.433C10.8629 14.4589 10.8199 14.4938 10.7904 14.5225C10.7993 14.5332 10.811 14.5484 10.8199 14.56C10.8736 14.5341 10.9461 14.4983 11.0141 14.3748C11.0105 14.4088 11.0025 14.4545 10.9953 14.4885C11.0436 14.4357 11.1179 14.4392 11.1751 14.407C11.1778 14.39 11.1805 14.3677 11.1832 14.3516C11.1733 14.339 11.1599 14.3211 11.151 14.3086C11.1402 14.3193 11.1259 14.3346 11.1161 14.3453L11.1125 14.3417ZM6.47061 14.5448H6.47419H6.47598C6.47598 14.5448 6.47777 14.5448 6.47867 14.5448C6.47867 14.5448 6.47956 14.5448 6.48045 14.5448H6.48314H6.48493H6.48761C6.49477 14.5448 6.50014 14.5466 6.51893 14.5448H6.52519H6.52161C6.58872 14.5448 6.81151 14.543 6.85088 14.5099C6.85356 14.5072 6.85982 14.5081 6.8634 14.5099C6.86698 14.5117 7.2374 14.6665 7.1703 14.7936C7.12019 14.8893 6.87146 14.7873 6.73724 14.7318C6.6773 14.7068 6.65851 14.7005 6.6424 14.6987C6.65672 14.6925 6.69877 14.6763 6.78467 14.6593C6.72293 14.6343 6.65851 14.6361 6.55293 14.6477C6.37309 14.6674 6.25856 14.6746 6.18519 14.5582C6.27735 14.5439 6.34177 14.5403 6.47061 14.543V14.5448ZM6.20667 15.2025C6.12793 15.1362 6.3364 15.0423 6.65045 14.9009C6.57709 14.892 6.50909 14.9251 6.43751 14.9278C6.49835 14.8857 6.54398 14.8795 6.74888 14.9161C6.99672 14.9609 7.07367 14.96 7.11124 14.8723C7.11303 14.8723 7.11303 14.8723 7.11303 14.8723C7.11572 14.8732 7.1193 14.875 7.12198 14.8759C7.12377 14.8929 7.10319 14.9117 7.12198 14.9269C7.12198 14.9269 7.1354 14.9269 7.17388 14.9161C7.17388 14.9161 7.17388 14.9161 7.17298 14.9161C7.17298 14.9161 7.17119 14.9161 7.1703 14.9161L7.16224 14.9126L7.1524 14.9072L7.1694 14.9117L7.17745 14.9152H7.17924L7.18551 14.9179L7.18014 14.9143C7.1861 14.9149 7.19565 14.9179 7.20877 14.9233C7.20251 14.9224 7.19624 14.9206 7.19088 14.9197C7.46288 15.0137 7.59261 15.121 7.60693 15.138C7.60603 15.1407 7.60514 15.1443 7.60424 15.1479C7.58277 15.1568 7.48703 15.1273 7.31972 15.062C7.35819 15.1157 7.41009 15.1899 7.02088 15.2713C7.0504 15.2418 7.06114 15.2212 7.0674 15.1828C7.01103 15.1264 6.94035 15.2248 6.88398 15.1649C6.9493 15.0906 7.07098 15.0897 7.11214 14.985C7.05219 14.9367 6.84551 14.9376 6.62898 15.0673C6.49388 15.1479 6.25051 15.2418 6.20577 15.2033L6.20667 15.2025ZM7.4754 15.3903C7.35909 15.4646 6.94572 15.4002 6.89114 15.3886C6.82582 15.3725 6.79451 15.3599 6.76677 15.3393C6.76677 15.3385 6.76767 15.3367 6.76856 15.3358C6.80882 15.3295 7.49061 15.3733 7.49688 15.3742C7.49061 15.3796 7.48256 15.3868 7.4754 15.3912V15.3903ZM8.03372 15.2615C7.81361 15.3528 7.66777 15.4127 7.50403 15.3608L7.50224 15.368L7.4924 15.3572C7.4074 15.3268 7.41903 15.3062 7.44319 15.2946C7.49509 15.2696 7.58814 15.2731 7.65077 15.2749C7.84672 15.2821 7.94156 15.2758 8.05967 15.2508C8.05251 15.2535 8.04177 15.2579 8.03461 15.2606L8.03372 15.2615ZM8.8873 14.9645C8.95709 14.9251 9.02777 14.8866 9.09935 14.8499C9.03224 14.8938 8.96335 14.9349 8.8873 14.9645Z" fill="#2F6E24"/>
<path d="M8.72282 10.3788C8.72998 10.3815 8.76398 10.3832 8.77203 10.3788C8.77203 10.3788 8.88476 10.4495 8.88924 10.4682C8.89282 10.4682 8.89371 10.4682 8.90087 10.4727C8.91161 10.4781 8.92413 10.4852 8.93129 10.4799C8.93666 10.4763 8.94113 10.4673 8.93487 10.4325C8.93398 10.4262 8.93219 10.419 8.9304 10.4128C8.92771 10.402 8.92145 10.3788 8.91071 10.3958C8.90892 10.3985 8.90803 10.4002 8.90713 10.4029C8.88029 10.3877 8.85703 10.3671 8.83019 10.3537C8.81498 10.3457 8.80424 10.3466 8.79887 10.3466C8.80513 10.3358 8.80961 10.3287 8.81408 10.3197C8.7935 10.2696 8.78187 10.258 8.76219 10.2642C8.74429 10.2777 8.73445 10.2973 8.71924 10.3135C8.7264 10.351 8.72729 10.3609 8.72192 10.377L8.72282 10.3788Z" fill="#2F6E24"/>
<path d="M8.56286 10.9722C8.54854 10.9704 8.54497 10.9704 8.52886 10.9713C8.43402 10.9811 8.39912 11.0241 8.38749 11.0384C8.38481 11.042 8.38123 11.0473 8.37854 11.0518C8.36244 11.0804 8.36065 11.1136 8.34454 11.1422C8.32307 11.1807 8.28639 11.2075 8.26849 11.2478C8.2667 11.2522 8.26223 11.2621 8.27923 11.2782C8.33918 11.3328 8.56554 11.3193 8.56018 11.1574C8.56018 11.1574 8.55749 11.093 8.54049 11.11C8.51723 11.1323 8.52081 11.1672 8.50291 11.1923C8.50739 11.1672 8.51723 11.1082 8.48054 11.1323C8.4716 11.1377 8.46354 11.1467 8.45997 11.1502C8.46533 11.1368 8.46981 11.127 8.5047 11.0858C8.55212 11.0303 8.56286 11.0133 8.54675 11.0053C8.55481 10.9963 8.5557 10.9847 8.56018 10.9749C8.56018 10.974 8.56107 10.9722 8.56197 10.9713L8.56286 10.9722Z" fill="#2F6E24"/>
<path d="M10.4149 8.21372C10.4266 8.22357 10.4337 8.22893 10.4668 8.22178C10.5107 8.21193 10.5384 8.12067 10.5384 8.11978C10.5214 8.10188 10.4955 8.09651 10.3586 8.09472C10.3147 8.09472 10.2601 8.09383 10.278 8.07325C10.2843 8.06609 10.3219 8.0303 10.4221 8.02404C10.4257 8.01778 10.4346 8.00257 10.4221 7.98557C10.4042 7.95962 10.3711 7.94978 10.3523 7.92383C10.3076 7.95514 10.2834 7.97304 10.2539 8.00793C10.2244 8.04193 10.2091 8.08488 10.1832 8.12067C10.1734 8.09472 10.1519 8.04014 10.0776 7.98825C10.0705 7.98378 10.0615 7.97841 10.0544 7.97393C9.93714 8.02583 9.87809 8.06341 9.89777 8.11441C9.92909 8.16541 10.0311 8.20388 10.0624 8.18509C10.0696 8.19404 10.0722 8.20567 10.083 8.21104C10.1068 8.19672 10.1185 8.1833 10.1179 8.17078C10.1259 8.17167 10.1286 8.17256 10.1394 8.17256C10.1313 8.18509 10.108 8.22267 10.1814 8.20567C10.1948 8.20299 10.2127 8.19672 10.2252 8.19225C10.1904 8.21909 10.1662 8.25935 10.1232 8.27546C10.151 8.27814 10.1796 8.28709 10.1519 8.3363C10.1546 8.3363 10.1581 8.3372 10.1608 8.33809C10.1939 8.3363 10.2181 8.30409 10.2539 8.31125C10.2252 8.32735 10.2235 8.32914 10.2208 8.33541C10.278 8.32914 10.3129 8.29962 10.3174 8.2853C10.312 8.2853 10.2959 8.29156 10.2691 8.30409C10.2861 8.26293 10.2557 8.21999 10.2762 8.17972C10.361 8.19881 10.4066 8.21104 10.4131 8.21641L10.4149 8.21372Z" fill="#2F6E24"/>
<path d="M9.78328 7.62153C9.7967 7.62153 9.80296 7.62421 9.80833 7.63047C9.84144 7.58574 9.83517 7.56874 9.78417 7.56784C9.78865 7.56605 9.79491 7.56426 9.80028 7.56337C9.80207 7.55442 9.79938 7.55263 9.7958 7.55174C9.81101 7.54011 9.84591 7.51147 9.80922 7.50879C9.79938 7.50879 9.78775 7.50968 9.77791 7.51147C9.77165 7.53384 9.77165 7.54995 9.79222 7.55174C9.78507 7.55174 9.77791 7.55442 9.76449 7.56158C9.76449 7.56426 9.76449 7.56695 9.76449 7.56874C9.74749 7.56963 9.73138 7.57232 9.71438 7.57232C9.68307 7.61168 9.65354 7.65105 9.6768 7.67789C9.68486 7.68416 9.70812 7.70384 9.79938 7.68147C9.79938 7.67163 9.79938 7.66805 9.79759 7.66626C9.78596 7.66179 9.76449 7.65374 9.75643 7.62689C9.76956 7.62988 9.77821 7.62809 9.78238 7.62153H9.78328Z" fill="#2F6E24"/>
<path d="M12.1642 9.7259C12.1463 9.71785 12.1409 9.72232 12.1373 9.7259C12.1382 9.72232 12.14 9.71606 12.14 9.71427C12.1275 9.73574 12.1015 9.78048 11.9584 9.70801C11.9575 9.77064 11.8984 9.81359 11.9029 9.87801C11.9074 9.93259 11.9253 9.94332 11.9772 9.95943C11.8403 9.95406 11.8787 10.091 11.9315 10.1482C11.9369 10.1545 11.945 10.1616 11.9512 10.167C11.7696 10.1026 11.724 10.1384 11.7222 10.15C11.7392 10.1706 11.7794 10.1858 11.8107 10.1938C11.7705 10.2073 11.7481 10.2314 11.7839 10.252C11.7973 10.2601 11.8179 10.2645 11.8358 10.269C11.7937 10.2887 11.8197 10.3236 11.834 10.3415C11.8483 10.3021 11.8931 10.2887 11.9127 10.2538C11.9163 10.2592 11.9208 10.2672 11.9235 10.2726C11.9414 10.2627 11.9503 10.2547 11.9602 10.2395C11.945 10.2833 12.004 10.3263 11.9602 10.3692C11.9816 10.3656 12.0156 10.3451 12.0228 10.3012C12.0291 10.3245 12.0425 10.3388 12.0756 10.3612C12.1284 10.3415 12.2689 10.2887 12.3029 10.0373C12.3234 9.88606 12.2751 9.78138 12.1606 9.7268L12.1642 9.7259Z" fill="#2F6E24"/>
<path d="M13.88 9.70251C13.7824 9.66672 13.7287 9.69893 13.71 9.80451C13.7028 9.92798 13.778 10.038 13.7699 10.1615C13.8254 10.1275 13.8424 10.1338 13.8486 10.1883C13.8978 10.1025 13.9327 10.1248 13.9972 10.2134C14.0974 10.3503 14.1278 10.2376 14.1358 10.1186C14.1421 10.0237 14.1296 9.79467 13.8808 9.7034L13.88 9.70251Z" fill="#2F6E24"/>
<path d="M10.5165 6.29084C10.4879 6.38389 10.4709 6.48142 10.4351 6.57268C10.3796 6.56731 10.2946 6.62905 10.2222 6.72747C10.2222 6.67289 10.1479 6.71494 10.0549 6.76863C9.9448 6.83126 9.91975 6.81963 9.86875 6.79726C9.84191 6.78563 9.81954 6.77489 9.78375 6.78473C9.77033 6.78831 9.75423 6.79726 9.7417 6.80352C9.78375 6.88942 9.8267 6.92163 9.84102 6.93236C9.86249 6.944 9.87859 6.94936 9.88933 6.94757C9.8947 6.94757 9.90186 6.94668 9.90723 6.94489C9.93586 6.93952 9.95017 6.9091 9.9788 6.90373C10.0459 6.89031 10.1157 6.90373 10.1828 6.88942C10.1935 6.85959 10.2278 6.83275 10.2857 6.80889C10.3179 6.79547 10.3385 6.76684 10.3662 6.74805C10.3716 6.74447 10.3796 6.74447 10.3859 6.74268C10.3877 6.74268 10.5541 6.67557 10.6096 6.62457C10.6436 6.59415 10.6042 6.56015 10.6078 6.52794C10.6257 6.52884 10.666 6.53152 10.6499 6.46173C10.6257 6.47784 10.6203 6.50915 10.598 6.52615C10.6615 6.31947 10.632 6.23357 10.5174 6.29173L10.5165 6.29084Z" fill="#2F6E24"/>
<path d="M9.29357 10.0367C9.29357 10.0367 9.29357 10.0367 9.29199 10.0352C9.29199 10.0352 9.29199 10.0352 9.29357 10.0367Z" fill="#2F6E24"/>
<path d="M9.44767 7.52003C9.46825 7.52361 9.48615 7.50124 9.50762 7.51377C9.5103 7.51019 9.52909 7.48066 9.51478 7.4744C9.52909 7.46993 9.5443 7.46724 9.55951 7.46187C9.56488 7.46456 9.57115 7.46724 9.62304 7.46008C9.62662 7.45472 9.63109 7.44756 9.63378 7.44308C9.63557 7.45203 9.63736 7.45651 9.64272 7.46098C9.62483 7.46635 9.6132 7.47082 9.5962 7.47887C9.59441 7.50393 9.5962 7.51556 9.60604 7.53077C9.59709 7.52808 9.5792 7.53077 9.56488 7.53793C9.56667 7.50482 9.5613 7.49229 9.54788 7.50124C9.54788 7.50124 9.53178 7.51824 9.52999 7.5254C9.52999 7.5254 9.52999 7.52719 9.52999 7.52808C9.52999 7.53435 9.53804 7.53703 9.53715 7.54329C9.53715 7.54777 9.53446 7.55314 9.53267 7.55761C9.52283 7.59251 9.52104 7.59877 9.52283 7.60324H9.52462C9.5282 7.60026 9.53744 7.58744 9.55236 7.56477C9.55862 7.56477 9.57383 7.56477 9.61767 7.54687C9.62572 7.56029 9.63467 7.56208 9.63736 7.56298C9.63736 7.56387 9.63825 7.56566 9.63915 7.56656L9.64988 7.5603C9.66509 7.53793 9.66688 7.53793 9.66957 7.53793C9.67046 7.54151 9.66957 7.54419 9.66778 7.55314C9.67494 7.54419 9.67672 7.5424 9.68746 7.52719C9.68746 7.52719 9.68836 7.52719 9.68925 7.52719C9.68925 7.54329 9.69104 7.55403 9.70357 7.56208C9.71967 7.54419 9.72862 7.53256 9.74204 7.51466C9.7313 7.50572 9.72504 7.50035 9.70894 7.48872C9.70894 7.48693 9.70893 7.48424 9.70983 7.48335C9.7143 7.47172 9.70267 7.46008 9.70267 7.46008C9.72325 7.42698 9.69641 7.42698 9.69283 7.42698C9.68388 7.43772 9.67941 7.44487 9.67672 7.45382C9.67404 7.45382 9.66957 7.45382 9.66688 7.45472C9.67046 7.43593 9.67851 7.39566 9.64809 7.41624C9.64451 7.41893 9.64004 7.42251 9.63646 7.42519C9.62751 7.42429 9.61767 7.42787 9.58546 7.44487C9.60693 7.41087 9.62125 7.37956 9.58636 7.38761C9.55057 7.39566 9.52104 7.41803 9.48794 7.43324C9.4933 7.42608 9.50136 7.41803 9.50672 7.41087C9.52283 7.39477 9.53088 7.38672 9.53357 7.38135C9.53357 7.38135 9.53267 7.38135 9.53178 7.38135C9.5282 7.38314 9.5273 7.38314 9.52015 7.38761C9.52015 7.38582 9.52015 7.38224 9.51388 7.38403L9.49778 7.40372L9.4933 7.40908C9.47362 7.43593 9.46736 7.44487 9.46557 7.45114C9.46557 7.45114 9.46557 7.45114 9.46646 7.45203C9.45841 7.47619 9.46557 7.47798 9.48525 7.48424C9.47451 7.49408 9.4593 7.50751 9.44857 7.51824C9.44857 7.51824 9.44767 7.51824 9.44678 7.51914L9.44767 7.52003Z" fill="#2F6E24"/>
<path d="M9.29102 10.0347C9.29102 10.0347 9.29102 10.0347 9.29249 10.0376C9.29249 10.0376 9.29249 10.0361 9.29102 10.0347Z" fill="#2F6E24"/>
<path d="M14.2228 8.93655C14.1843 8.92313 14.1691 8.95892 14.1628 8.97234C14.1423 9.01977 14.1557 9.07166 14.1441 9.11998C14.1092 9.10655 14.0501 9.08419 14.017 9.14592C14.0194 9.13817 14.0197 9.12922 14.0179 9.11908C13.9776 9.11013 13.7343 9.29713 13.7316 9.29892C13.6904 9.33024 13.6734 9.36603 13.6582 9.39645C13.6341 9.22824 13.4757 9.13966 13.4238 9.20587C13.3987 9.23808 13.4059 9.27655 13.4292 9.40629C13.3653 9.32398 13.3164 9.27715 13.2824 9.26582C13.2941 9.27208 13.3102 9.27924 13.3218 9.2855C13.414 9.39019 13.414 9.52798 13.4095 9.58345C13.3785 9.59598 13.363 9.60582 13.363 9.61298C13.3334 9.56734 13.3012 9.54855 13.2583 9.55124C13.2448 9.5924 13.2636 9.60761 13.2976 9.63534C13.3146 9.65145 13.3325 9.66755 13.3495 9.68455C13.3504 9.68366 13.3531 9.68187 13.354 9.68098C13.3844 9.71498 13.4238 9.71498 13.4318 9.71498C13.4318 9.71677 13.4318 9.71945 13.4318 9.72124C13.4327 9.71945 13.4345 9.71766 13.4354 9.71677C13.4157 9.68992 13.3826 9.69261 13.3567 9.68008C13.3737 9.66577 13.3773 9.65234 13.371 9.62819C13.3835 9.6434 13.3934 9.65503 13.4336 9.63177C13.4399 9.64161 13.4605 9.67113 13.4694 9.63713C13.4694 9.63713 13.4694 9.63057 13.4694 9.61745C13.4694 9.60433 13.4629 9.60582 13.4497 9.62192C13.4596 9.5924 13.4623 9.58434 13.4444 9.55213C13.473 9.58613 13.5151 9.60224 13.5482 9.62998C13.5491 9.65324 13.55 9.66487 13.5831 9.69798C13.5831 9.69798 13.5589 9.5745 13.5276 9.53782C13.5562 9.55034 13.5625 9.5575 13.6081 9.61298C13.6036 9.6094 13.5974 9.60403 13.5929 9.59955C13.6063 9.62998 13.6171 9.64966 13.6412 9.69171C13.6475 9.68813 13.6493 9.68634 13.6734 9.69708C13.6636 9.67471 13.6564 9.66219 13.6421 9.64429C13.6797 9.66666 13.7262 9.65682 13.7208 9.62819C13.7182 9.61566 13.6931 9.57719 13.6502 9.54587C13.779 9.59687 13.788 9.54945 13.8148 9.40719C13.8443 9.45908 13.9195 9.47429 13.9311 9.43045C13.9311 9.42777 13.932 9.4224 13.9311 9.40898C13.9803 9.44387 13.9955 9.46266 14.0242 9.54587C14.0433 9.60015 14.1059 9.66875 14.2121 9.75166C14.315 9.65413 14.2953 9.52529 14.2818 9.47519C14.2917 9.49398 14.2962 9.50382 14.3015 9.51903C14.2711 9.29892 14.289 9.15845 14.3633 9.03408C14.2997 9.08061 14.2801 8.95892 14.2255 8.94013L14.2228 8.93655Z" fill="#2F6E24"/>
<path d="M11.8901 7.93689C11.8901 7.93689 11.8925 7.93573 11.8936 7.93457C11.8925 7.93457 11.8901 7.93689 11.8901 7.93804V7.93689Z" fill="#2F6E24"/>
<path d="M15.4111 7.98546C15.4128 7.98994 15.4146 7.9962 15.4155 8.00157C15.4558 8.08657 15.5408 8.09551 15.5426 8.08388C15.5748 8.08209 15.5882 8.06688 15.5998 8.01767C15.5846 8.00694 15.5372 7.97472 15.4647 7.9783C15.4397 7.9792 15.42 7.98457 15.4102 7.98636L15.4111 7.98546Z" fill="#2F6E24"/>
<path d="M11.8965 7.93164C11.8965 7.93164 11.8942 7.9328 11.8931 7.93396C11.8942 7.93396 11.8954 7.93164 11.8965 7.93164Z" fill="#2F6E24"/>
<path d="M15.6506 8.15815C15.6614 8.14921 15.673 8.14384 15.7168 8.12773C15.7687 8.10984 15.8475 8.08121 15.8546 8.03557C15.8654 7.96847 15.7741 7.90226 15.6918 7.896C15.6891 7.896 15.6864 7.896 15.6837 7.896C15.6372 7.896 15.6157 7.92015 15.6202 7.97115C15.6229 7.99263 15.6318 8.03021 15.6479 8.0821C15.664 8.134 15.6623 8.13668 15.6479 8.16084L15.6506 8.15726V8.15815Z" fill="#2F6E24"/>
<path d="M10.3148 10.7592C10.3148 10.7592 10.3129 10.7649 10.312 10.7677H10.3139C10.3139 10.7677 10.3186 10.7667 10.3204 10.7658C10.3186 10.763 10.3167 10.7611 10.3148 10.7583V10.7592Z" fill="#2F6E24"/>
<path d="M4.69727 7.71086C4.69727 7.71086 4.70008 7.70992 4.70195 7.70898C4.70101 7.70898 4.69914 7.70898 4.69727 7.71086Z" fill="#2F6E24"/>
<path d="M15.4985 10.7979C15.4985 10.7979 15.4985 10.8007 15.4995 10.8025L15.4985 10.7979Z" fill="#2F6E24"/>
<path d="M14.9262 2.93555C14.9262 2.93555 14.9328 2.94398 14.9365 2.94773C14.9365 2.94773 14.9365 2.94679 14.9347 2.94586L14.9253 2.93555H14.9262Z" fill="#2F6E24"/>
<path d="M14.9359 2.94837C15.1622 3.22842 15.4289 3.97016 15.4325 4.14374C15.4172 4.15805 15.3976 4.17774 15.3824 4.19295C15.3654 4.184 15.3421 4.17326 15.3242 4.16431C15.3331 4.06679 15.3314 4.03547 15.2517 3.81895C15.2347 3.82879 15.2115 3.84131 15.1936 3.85116C15.1712 3.83863 15.1417 3.82163 15.1184 3.80821C15.232 3.623 14.8974 2.92958 14.5646 2.54663C14.0367 2.00889 13.4381 1.54095 12.7831 1.158L12.6838 1.10163C12.3626 0.932525 12.1524 0.835893 11.9582 0.809051C12.1085 0.94863 12.3608 0.967419 12.4252 1.20721C12.7536 1.21884 13.2099 1.59642 13.2144 1.6C13.3182 1.68679 13.3826 1.80042 13.4444 1.91674C13.422 1.89884 13.4166 1.89616 13.4157 1.89616C13.4157 1.89795 13.4274 1.90868 13.4372 1.91584C13.4417 1.91942 13.4444 1.92121 13.4479 1.9221C13.5034 2.02679 13.5589 2.13237 13.6403 2.21916C13.1509 1.95163 12.8073 1.50158 12.3564 1.18574C12.2126 1.08493 11.6095 0.813525 10.5472 0.371525C10.5374 0.383156 10.5132 0.358103 10.498 0.352735C10.3539 0.30084 10.2421 0.271314 10.0873 0.241788C10.1294 0.241788 10.1598 0.241788 10.2868 0.26863C10.0876 0.219121 9.8505 0.171998 9.57551 0.127261C9.60593 0.126367 9.6462 0.124577 9.67662 0.123682C9.63188 0.101314 9.57104 0.0708929 9.52093 0.0637351C9.23372 0.0297351 8.94204 0.0091561 8.64678 0.00378768C8.34346 -0.00158074 8.04372 0.0091561 7.74757 0.0351035H7.74399C7.4523 0.0655245 7.08993 0.102209 5.49193 0.549577C5.33625 0.60863 5.18325 0.672156 5.03204 0.739261L5.02846 0.741051C5.00967 0.749103 4.98462 0.760735 4.96583 0.769682C4.44062 1.01037 3.94404 1.30295 3.48235 1.64116C3.58078 1.57316 3.60404 1.56063 3.65414 1.53558C3.6112 1.62237 3.13162 1.96684 3.12714 1.96952C3.13609 1.95342 3.16771 1.91674 3.22199 1.85947C3.21304 1.86216 3.20051 1.86663 3.19067 1.86931C3.2023 1.85947 3.21751 1.84605 3.22914 1.83531C3.06988 1.96326 3.03499 1.99637 2.99383 2.03484C3.01799 2.02231 3.05109 2.00621 3.07614 1.99368C2.79788 2.42942 2.2163 2.62 2.10357 3.19084L2.1143 3.17295C2.21183 3.24274 2.12593 3.35547 2.11609 3.368C2.12593 3.37784 2.13846 3.39126 2.1483 3.4011C2.1483 3.41184 2.14383 3.42526 2.14562 3.436C2.18618 3.43302 2.25537 3.38023 2.3532 3.27763C2.34693 3.28926 2.33888 3.30537 2.33351 3.317C2.34693 3.32416 2.36483 3.334 2.37825 3.34116C2.44983 3.31252 2.47041 3.30358 2.49725 3.28389C2.44535 3.32326 2.3863 3.35368 2.34693 3.40737C2.59209 3.27733 2.73107 3.20545 2.76388 3.19174C2.86469 3.15595 2.93895 3.1461 2.98667 3.16221C2.97325 3.25258 2.94104 3.33847 2.91957 3.42705C2.92672 3.43868 2.93746 3.45389 2.94462 3.46552C3.30072 3.13686 3.52083 2.97133 3.60493 2.96895C3.62372 3.09689 3.49846 3.45837 3.32399 3.45121C3.31593 3.44137 3.3043 3.42795 3.29536 3.4181C3.29983 3.40021 3.30609 3.37695 3.31057 3.35995C3.29804 3.36889 3.28193 3.38052 3.26941 3.38947C3.25688 3.38052 3.23988 3.368 3.22735 3.35905C3.21483 3.36352 3.19514 3.36352 3.1862 3.37337C3.10657 3.45747 3.13341 3.58721 3.05735 3.6731C2.98667 3.75274 2.86946 3.74647 2.79341 3.81626C2.79878 3.80374 2.80504 3.78674 2.81041 3.77421C2.80235 3.76258 2.79162 3.74647 2.78357 3.73484C2.66725 3.86547 2.60551 3.92184 2.56525 3.95852C2.56704 3.95852 2.56883 3.95674 2.56972 3.95584L2.56078 3.96658L2.56435 3.95852C2.53841 3.9791 2.50351 4.00505 2.47488 4.02116C2.46057 4.01579 2.44267 4.00774 2.42835 4.00237C2.43999 3.99521 2.45609 3.98447 2.46772 3.97642C2.46504 3.96389 2.46146 3.94689 2.45878 3.93347C2.37109 3.92631 2.25388 3.9281 2.19125 3.97731C2.09909 4.04889 2.1152 4.17863 2.04004 4.25916C2.10804 4.26363 2.15546 4.33431 2.22972 4.31731C2.38272 4.28242 2.45609 4.07842 2.64578 4.11958C2.66993 4.12495 2.68962 4.20637 2.71109 4.29316C2.73614 4.39516 2.75583 4.405 2.79967 4.42468C2.81667 4.41842 2.83993 4.40947 2.85693 4.40231C2.8462 4.41484 2.83099 4.43274 2.82025 4.44526C2.82741 4.473 2.83188 4.51237 2.83099 4.541C2.43641 4.79331 2.92493 5.27289 3.30878 5.35074C3.56288 5.40263 3.69799 5.35342 3.84204 5.30063C3.8322 5.31137 3.81967 5.32568 3.80983 5.33731C3.87246 5.34268 4.03978 5.35879 4.18204 5.13421C4.15788 5.12616 4.12388 5.1181 4.09883 5.11631C4.11136 5.09395 4.12209 5.05995 4.12388 5.03489C4.15072 5.04116 4.1892 5.03847 4.21604 5.03221C4.24288 5.04921 4.28672 5.07784 4.41378 5.05189C4.38693 5.02744 4.31685 5.00984 4.20351 4.9991C4.58646 4.55263 4.77704 5.31942 4.79135 5.44379C4.81372 5.65226 4.52293 5.68626 4.54172 5.89295C4.5119 5.92337 4.48357 5.96065 4.45672 6.00479C4.45672 6.00479 4.45404 6.00926 4.45314 6.01016C4.45314 6.01016 4.45314 6.01105 4.45225 6.01195C4.45225 6.01195 4.45225 6.01284 4.45135 6.01373C4.45135 6.01373 4.45136 6.01552 4.45046 6.01552C4.45046 6.01552 4.45046 6.01642 4.44957 6.01731C4.44957 6.01731 4.44957 6.0191 4.44867 6.0191C4.44778 6.0191 4.44867 6.02 4.44778 6.02089C4.44778 6.02089 4.44778 6.02268 4.44688 6.02268C4.43167 6.04684 4.4093 6.07816 4.39051 6.10052C4.38514 6.10231 4.38514 6.10231 4.38514 6.10231C4.38783 6.0871 4.3923 6.06742 4.39499 6.05221C4.38693 6.04237 4.3753 6.02805 4.36725 6.01821C4.33057 6.02984 4.21783 6.06652 4.25809 6.30721C4.77704 6.32063 4.72246 6.46289 4.64372 6.547C4.60257 6.59084 4.46746 6.615 4.33683 6.63826C4.44151 6.72684 4.44151 6.74295 4.44151 6.79126C4.52144 6.78291 4.57543 6.77814 4.60346 6.77695C4.59541 6.79573 4.58557 6.82079 4.57841 6.83868C4.48446 6.85479 4.38693 6.83868 4.29657 6.87984C4.18114 6.75726 3.9172 6.751 3.94762 6.51479C3.50025 6.53 3.17904 6.87537 2.7612 6.96753C2.75404 6.94247 2.7442 6.90937 2.73614 6.88431C2.73435 6.88431 2.73257 6.88431 2.73078 6.88431H2.72899C2.71467 6.89058 2.69588 6.89774 2.68246 6.9031C2.71288 6.93084 2.73435 6.96842 2.77193 6.98989C2.84888 7.01584 2.92941 7.02926 3.00278 7.06684C3.00636 7.08921 3.01083 7.11963 3.01441 7.14289C3.09971 7.12023 3.16293 7.11038 3.20409 7.11337C3.21125 7.1411 3.22736 7.17779 3.24257 7.20284C3.56199 7.21447 3.74541 6.80558 4.09972 6.92547C4.13134 6.93621 4.0872 7.11038 3.9673 7.448C4.08541 7.57058 4.17935 7.56879 4.21425 7.56789C4.22051 7.72268 4.29925 7.72716 4.34578 7.72984C4.29835 7.78889 4.28046 7.86405 4.2402 7.92668C4.42004 7.856 4.52293 7.68421 4.68578 7.59116C4.69741 7.6171 4.71083 7.652 4.71888 7.67974C4.74811 7.68272 4.79702 7.67705 4.86562 7.66273C4.75557 7.87568 4.39588 7.98931 4.53099 8.29979C4.62314 8.27652 4.70099 8.20047 4.72962 8.16916C4.72962 8.19958 4.72514 8.23984 4.72067 8.26937C4.91572 8.281 5.01235 8.16647 5.00699 7.92937C5.47821 7.46828 5.74335 7.16765 5.80241 7.02747C5.79346 7.01047 5.78183 6.9881 5.77288 6.9711C5.72218 6.96514 5.66432 6.97587 5.5993 7.00331C5.68341 6.88968 5.77914 6.90937 5.80688 6.91742C6.01685 6.66809 6.22413 6.45454 6.42872 6.27679C6.57546 6.14884 6.70967 6.29647 6.71057 6.29826C6.81525 6.54521 7.14809 6.1381 7.15078 6.13274C7.11857 6.10649 7.07383 6.08054 7.01657 6.05489C7.04251 6.04863 7.07562 6.03521 7.09978 6.02268C7.09351 6.01016 7.08457 5.99316 7.0783 5.98152C7.04609 5.97884 7.04609 5.97884 7.04609 5.97884C7.13288 5.95737 7.23578 6.01105 7.30735 5.92247C7.30199 5.88847 7.28857 5.84463 7.27246 5.81421C7.34762 5.80526 7.34941 5.80526 7.86388 6.02447C7.85016 5.93679 7.84449 5.88788 7.84688 5.87774C7.90057 5.85895 7.95157 5.84195 8.10636 5.95737C8.18241 6.01463 8.27367 6.04952 8.34436 6.11484C8.4222 6.18642 8.38372 6.30631 8.45351 6.38147C8.53851 6.47184 8.69151 6.44679 8.7622 6.56131C8.77114 6.5631 8.78367 6.56489 8.79262 6.56668C8.84451 6.52374 8.85167 6.51837 8.85346 6.42084C8.86599 6.42174 8.88388 6.42352 8.89641 6.42442C8.89641 6.411 8.89641 6.39221 8.89641 6.37879C8.92146 6.36716 8.95635 6.35642 8.9823 6.35195C8.98678 6.36447 9.00736 6.40384 9.01272 6.41637L9.03241 6.42084C9.05835 6.39937 9.09414 6.37163 9.12278 6.35284C9.31693 6.46558 9.33751 6.20521 9.33751 6.20252C9.33751 6.18731 9.32767 6.16852 9.3232 6.15421C9.33393 6.14079 9.34825 6.12289 9.35899 6.10947C9.47232 6.13452 9.5439 6.14079 9.57372 6.12826H9.57283C9.53465 6.07338 9.51258 5.99763 9.50662 5.901C9.52272 5.901 9.5442 5.901 9.5603 5.9001C9.58118 5.94007 9.62264 5.97049 9.68467 5.99137C9.68914 6.00658 9.69451 6.02537 9.69809 6.04058C9.69272 6.01105 9.69899 5.9681 9.7142 5.94126C9.72493 5.95289 9.73835 5.9681 9.7482 5.97884C9.74283 5.91442 9.70257 5.85716 9.70525 5.79005C9.73388 5.80616 9.77325 5.82584 9.80367 5.84016C9.83946 5.95379 9.76072 6.05131 9.75893 6.15958C9.81888 6.05221 9.86451 5.969 9.89672 5.89831C9.87793 5.99137 9.86093 6.09784 9.84572 6.22131C9.86451 6.26605 9.86451 6.26605 9.86541 6.26605C9.87167 6.28216 9.87972 6.30452 9.88509 6.32152C10.2913 6.04058 10.2689 5.73816 10.2394 5.62095C10.2573 5.62542 10.2806 5.63168 10.2985 5.63616C10.3674 5.82853 10.4559 6.01374 10.523 6.207C10.5338 6.11395 10.506 6.01642 10.5481 5.92605C10.6465 5.95916 10.7467 6.01016 10.8541 6.08084C10.8416 6.10768 10.812 6.13989 10.7852 6.15242C10.931 6.343 11.1467 6.17479 11.314 6.25442C11.3158 6.27142 11.3176 6.29379 11.3185 6.31079C11.2961 6.33405 11.2594 6.36 11.229 6.37073C11.2174 6.36089 11.2021 6.34747 11.1914 6.33763C11.1502 6.36716 11.0733 6.42263 11.1243 6.54431C11.1395 6.54968 11.1592 6.55595 11.1735 6.56131C11.3203 6.3937 11.4151 6.28782 11.458 6.24368C11.4017 6.44231 11.6191 6.38505 11.6218 6.38416C11.6647 6.36984 11.7113 6.326 11.7399 6.292C11.7372 6.39131 11.8222 6.44858 11.8544 6.53089C11.8723 6.47631 11.8696 6.41726 11.8875 6.36268C11.9036 6.36537 11.926 6.36895 11.9421 6.37252C12.0181 6.6311 11.7256 6.7331 11.6978 6.94784C11.6149 6.5476 11.5117 6.4104 11.3882 6.53626C11.2952 6.6311 11.3068 6.71163 11.3614 7.09905C11.3471 7.11158 11.3292 7.12768 11.3149 7.14021C11.3161 7.18375 11.3289 7.23774 11.3534 7.30216C11.3346 7.30216 11.3095 7.30126 11.2907 7.30037C11.2818 7.28873 11.2692 7.27263 11.2603 7.2601C11.2514 7.27531 11.2397 7.29679 11.2308 7.31289C11.2424 7.34242 11.2719 7.37731 11.2988 7.39342C11.2818 7.397 11.2585 7.40147 11.2415 7.40505C11.2692 7.42831 11.3167 7.4471 11.3525 7.44889C11.339 7.45516 11.3203 7.4641 11.3068 7.47126C11.3373 7.48379 11.3793 7.49721 11.4115 7.50437C11.3739 7.50974 11.3238 7.51242 11.2862 7.51331C11.2818 7.53031 11.2746 7.55268 11.2701 7.56968C11.3462 7.618 11.3596 7.62695 11.4652 7.57595C11.4661 7.59116 11.4679 7.61084 11.4688 7.62605C11.484 7.62605 11.5046 7.62426 11.5207 7.62426C11.5332 7.65379 11.5672 7.686 11.5949 7.703C11.5672 7.72358 11.5305 7.74952 11.5019 7.76921C11.5278 7.78174 11.5681 7.78979 11.5976 7.7871C11.6146 7.81305 11.637 7.84705 11.6531 7.87389C11.662 7.86137 11.6746 7.84526 11.6844 7.83363C11.6978 7.84258 11.7157 7.85421 11.7291 7.86316C11.7247 7.87837 11.7184 7.89805 11.7139 7.91237C11.6969 7.91237 11.6746 7.91416 11.6585 7.91505C11.7497 7.941 11.8141 8.01616 11.9036 8.043C11.8982 8.00989 11.8795 7.96784 11.8598 7.9401C11.8678 7.92579 11.8795 7.9061 11.8875 7.89089C11.9084 7.9064 11.9657 7.93145 12.0593 7.96605C12.0593 7.96605 12.0602 7.96426 12.0611 7.96337L12.0638 7.96784C12.1873 8.01974 12.6668 8.27205 12.6901 8.2971C12.7518 8.36868 12.7661 8.38658 12.8189 8.46173C12.8476 8.50647 12.9913 8.52198 13.2502 8.50826C13.2538 8.49305 13.2591 8.47337 13.2627 8.45816C13.277 8.46173 13.2967 8.4671 13.311 8.47158C13.3978 8.38568 13.5598 8.22642 13.1947 8.05821C13.5365 7.79516 13.6081 7.75847 13.7468 7.87389C13.7369 7.88463 13.7235 7.89984 13.7137 7.91147C13.7226 7.924 13.7351 7.941 13.7441 7.95352C13.7691 7.93473 13.7987 7.90431 13.8175 7.87926C13.8327 7.88463 13.8524 7.89268 13.8667 7.89895C13.872 7.91326 13.8783 7.93295 13.8837 7.94726C13.9248 7.84168 13.9123 7.839 13.7092 7.79784C13.8416 7.67347 13.6582 7.44979 13.4202 7.44531C13.2788 7.44263 13.1473 7.38805 13.0086 7.37016C12.9039 7.53389 12.7733 7.737 12.3098 7.37821C12.2532 7.42951 12.1992 7.45277 12.1479 7.448C12.1291 7.39968 12.0969 7.31737 12.1613 7.19837C12.3754 7.2777 12.6117 7.26309 12.8699 7.15452C12.8583 6.96305 12.6212 6.87 12.6534 6.65974C12.6588 6.65974 12.6659 6.66242 12.6713 6.66331C12.6677 6.62574 12.6749 6.57384 12.6865 6.53716C12.7017 6.53984 12.7223 6.54252 12.7375 6.54521C12.8288 6.7683 12.8944 6.88938 12.9344 6.90847C13.0793 6.97916 13.1437 6.79931 13.2672 6.802C13.3012 6.87089 13.2574 6.93889 13.2645 7.00779C13.2967 7.023 13.3835 7.06416 13.7172 6.98095C13.7423 7.00063 13.77 7.03821 13.779 7.06863L13.932 7.686C13.9168 7.68152 13.8962 7.67616 13.881 7.67168C14.0394 7.97768 13.8962 8.06 13.8425 8.09131C13.8658 8.07163 13.8872 8.03226 13.8917 8.00184C13.8631 7.98842 13.8219 7.97858 13.7906 7.97679C13.7817 7.98931 13.77 8.00631 13.7611 8.01884C13.7674 8.03226 13.7763 8.05016 13.7826 8.06447C13.7557 8.03763 13.7155 8.00452 13.6841 7.98305C13.5923 8.01586 13.5171 8.02988 13.4587 8.0251C13.5141 8.12352 13.5294 8.13695 13.5902 8.18347C13.5902 8.18258 13.5884 8.18079 13.5884 8.179L13.5911 8.18347C13.6099 8.19242 13.6349 8.20405 13.6555 8.20852C13.889 8.23895 13.9749 8.19152 14.0161 8.16826C14.0304 8.17274 14.0492 8.179 14.0644 8.18437C14.008 8.28458 13.9875 8.32216 14.2782 8.70152C14.4984 8.98784 14.5959 9.15158 14.5458 9.41016C14.5547 9.42268 14.5664 9.43879 14.5744 9.45131C14.6084 9.44773 14.6531 9.43521 14.6845 9.42089C14.6773 9.65651 14.6779 9.80086 14.6862 9.85395C14.8133 9.556 15.1309 9.19721 15.2607 9.60342C15.3206 9.79131 15.2383 9.98995 15.1784 10.1349C15.079 10.3738 14.9887 10.7791 15.504 10.7997C15.5345 10.8188 15.5899 10.8444 15.6705 10.8766C15.6687 10.4427 16.0507 10.0866 15.9219 9.62758C15.8199 9.26521 15.3958 9.08358 15.3824 8.6711C15.3824 8.62547 15.3824 8.62368 15.3824 8.62279C15.4164 7.38179 15.4253 7.04805 15.7447 7.0051C15.8091 7.108 15.8208 7.23058 15.8718 7.33795C15.9541 7.26637 15.9147 7.17153 15.7859 6.85926C15.7286 6.84853 15.6964 6.84316 15.5837 6.94516C15.5837 6.94516 15.5837 6.94695 15.5846 6.94695L15.5828 6.94516C15.5568 6.85389 15.5541 6.75905 15.5371 6.666C15.3564 6.955 15.5586 7.37731 15.207 7.60637C15.1265 7.54195 15.122 7.51868 15.0835 7.29679C15.1023 7.27263 15.1372 7.24758 15.1667 7.23863L15.5434 6.13631C15.5604 6.1381 15.5837 6.14168 15.6007 6.14347C15.6365 6.07279 15.6669 6.01105 15.6105 5.81331C15.589 5.83926 15.5649 5.87773 15.5497 5.90726C15.5416 5.89026 15.5318 5.867 15.5237 5.85C15.5076 5.84552 15.487 5.83837 15.4718 5.83389C15.4691 5.81689 15.4647 5.79363 15.462 5.77663C15.4477 5.78468 15.428 5.79631 15.4137 5.80437C15.4137 5.77126 15.4137 5.72652 15.4137 5.69342C15.3457 5.79721 15.3591 5.92516 15.3152 6.0361C15.2991 6.03252 15.2777 6.02805 15.2616 6.02447C15.2821 5.99495 15.2974 5.94842 15.3027 5.91263C15.275 5.89831 15.2455 5.86431 15.2329 5.83568C15.2285 5.85626 15.2222 5.8831 15.2168 5.90368C15.0862 5.85805 15.0388 5.54579 15.1023 5.49926C15.1816 5.44021 15.2189 5.3913 15.2141 5.35252C15.2428 5.33105 15.2777 5.29974 15.3 5.272C15.1667 4.70652 14.7641 4.23052 14.7605 4.22605C14.5431 3.98805 14.6862 3.93258 14.8446 3.92721C15.2562 3.963 15.5872 4.67879 15.7474 5.10289C16.4874 7.057 16.5169 7.13305 16.286 7.73252C16.2082 7.79695 16.1545 7.67616 16.0847 7.65916C15.9845 7.63589 15.9935 7.73879 16.0096 7.92668C16.0292 8.13784 16.1071 9.69737 16.0722 9.90226C16.0409 10.0848 15.9586 10.2557 15.9371 10.4409C15.9317 10.4856 15.9401 10.6252 15.9621 10.8596C15.9788 11.0803 16.0337 11.2241 16.1268 11.2909C16.1268 11.2909 16.0606 11.9002 15.8414 12.667C15.8798 12.6357 15.9281 12.5901 15.9604 12.5534C16.601 11.4323 16.9795 10.0866 17.0045 8.65231C17.0421 6.47721 16.2601 4.47837 14.9412 2.95195L14.9359 2.94837ZM9.94862 5.67821C9.94593 5.64063 9.93609 5.60305 9.9173 5.56189C9.8833 5.55652 9.83767 5.54847 9.80367 5.54042C9.80009 5.53386 9.79413 5.44975 9.78578 5.2881C9.77564 5.27081 9.77057 5.26216 9.77057 5.26216C9.7986 5.29258 9.81978 5.37609 9.83409 5.51268C9.86093 5.52521 9.90478 5.527 9.93341 5.51895C10.0402 5.32091 10.1443 5.24367 10.2457 5.28721C10.192 5.29526 10.0596 5.31495 9.94951 5.67731L9.94862 5.67821ZM13.0829 3.43421C13.1169 3.45121 13.15 3.47984 13.1384 3.51205C13.1151 3.57916 13.031 3.589 13.005 3.65342C12.9979 3.62568 12.9889 3.61047 12.9692 3.59079C12.8377 3.5031 12.6606 3.58005 12.5353 3.47C12.3877 3.34026 12.4199 3.29552 12.4512 3.25168C12.4879 3.20068 12.4852 3.19084 12.4592 3.14431C12.5833 3.21112 12.6507 3.24482 12.6615 3.24542C12.6713 3.23021 12.6704 3.20337 12.6686 3.18547C12.6919 3.19979 12.7277 3.21947 12.7545 3.2141C12.7599 3.17563 12.7661 3.13179 12.6677 2.93674C12.6391 2.88037 12.5926 2.78731 12.58 2.64505C12.5675 2.49921 12.5944 2.39542 12.6471 2.18874C12.6471 2.18874 12.6489 2.18963 12.6498 2.19052C12.767 2.27821 12.9236 2.30237 13.0194 2.42495H13.0176C13.0176 2.42495 13.0194 2.42763 13.0211 2.42852C13.0235 2.43747 13.0319 2.45059 13.0462 2.46789C13.1008 2.53231 13.2135 2.66563 13.2162 2.74347C13.2207 2.8741 13.09 2.88752 13.0355 2.86426C13.0149 2.85531 12.9943 2.8401 12.9728 2.81952C12.9961 3.0271 13.3674 3.35726 13.0838 3.43421H13.0829ZM14.0036 4.92305V4.92484L14 4.92305H13.9982L13.9821 4.91768C13.9866 4.91947 13.9928 4.92126 13.9973 4.92216C13.9821 4.92037 13.9526 4.90695 13.9526 4.90695C13.9526 4.90695 13.9564 4.90754 13.9642 4.90874C13.8246 4.84342 13.6537 4.70116 13.5991 4.55531C13.6054 4.5571 13.6135 4.55889 13.6188 4.56158C13.6734 4.58037 13.7164 4.61795 13.7504 4.67431C13.7754 4.62779 13.7253 4.58484 13.745 4.53831C13.7799 4.61347 13.8354 4.57768 13.8685 4.55621C13.9642 4.71905 14.0734 4.90426 14.0045 4.92305H14.0036ZM14.7748 5.1011C14.8384 5.23442 14.799 5.38026 14.8223 5.51895C14.7149 5.44826 14.6934 5.44468 14.527 5.47063C14.3767 5.49389 14.314 5.44468 14.2872 5.4241V5.43216V5.45452V5.42231C14.1924 5.34089 14.1593 5.22458 14.1038 5.03042C14.1927 5.06144 14.2445 5.07456 14.2595 5.06979C14.2684 5.0331 14.2389 4.92663 14.0769 4.76289C13.821 4.50521 13.7155 3.85652 13.8362 3.85116C13.838 3.85116 14.0045 3.85474 14.1422 4.08826C14.2595 4.286 14.3087 4.51505 14.4304 4.7101C14.5234 4.85952 14.697 4.93737 14.7748 5.10021V5.1011Z" fill="#2F6E24"/>
<path d="M11.4034 11.6586C11.39 11.6478 11.3676 11.6389 11.3506 11.6344C11.362 11.6189 11.3763 11.5837 11.3936 11.5288C11.4061 11.4483 11.4106 11.3562 11.3479 11.2864C11.3312 11.2679 11.3145 11.21 11.2978 11.1128C11.2925 11.1217 11.2853 11.1334 11.2781 11.1414C11.279 11.136 11.2808 11.128 11.2817 11.1226C11.279 11.1182 11.2746 11.1128 11.2719 11.1092C11.2674 11.1119 11.262 11.1155 11.2585 11.119C11.2012 11.0448 11.2379 10.9499 11.2826 10.907C11.3077 10.9401 11.3112 10.9875 11.3524 11.009C11.3622 11.0027 11.3757 10.9902 11.3775 10.9786C11.3784 10.9705 11.3945 10.6842 11.3945 10.6833C11.3864 10.5903 11.3363 10.4981 11.3041 10.4373C11.4249 10.4203 11.381 10.1617 11.381 10.159C11.3184 10.0534 11.356 9.92547 11.3077 9.81631C11.2498 9.81631 11.2092 9.8694 11.186 9.97557C11.1565 9.9541 11.0894 9.8512 11.101 9.82168C11.1708 9.84136 11.1869 9.84584 11.2164 9.83421C11.2206 9.81273 11.1985 9.76501 11.1502 9.69105C11.1439 9.69015 11.1359 9.68836 11.1296 9.68747C11.1251 9.69015 11.1189 9.69463 11.1144 9.69731C11.1171 9.70268 11.1198 9.70984 11.1225 9.71521C11.0974 9.68478 11.0801 9.6657 11.0706 9.65794C11.0732 9.66868 11.075 9.68389 11.0759 9.69552C10.9927 9.75636 10.9059 9.67673 10.8218 9.70178C10.829 9.6651 10.8728 9.64542 10.8675 9.60247C10.8567 9.59889 10.8415 9.5971 10.8308 9.59799C10.8245 9.60605 10.8174 9.61768 10.8129 9.62663C10.8093 9.62305 10.8048 9.61857 10.8012 9.61499C10.8165 9.57831 10.8621 9.57742 10.8818 9.54521C10.8675 9.50942 10.8335 9.48794 10.8182 9.45305C10.8138 9.45663 10.8075 9.46199 10.8039 9.46468C10.8069 9.48078 10.8153 9.49719 10.829 9.51389C10.744 9.46557 10.744 9.46378 10.7556 9.3582C10.7538 9.35284 10.752 9.34568 10.7511 9.34031C10.7288 9.34836 10.6518 9.36447 10.633 9.36447C10.633 9.35731 10.6339 9.34836 10.6348 9.3421C10.5892 9.31257 10.5328 9.30363 10.4908 9.26605C10.4881 9.32242 10.4308 9.31794 10.4219 9.3081C10.4219 9.3081 10.3879 9.22936 10.4004 9.17031C10.3852 9.15689 10.3771 9.15242 10.353 9.16852C10.3521 9.17836 10.3485 9.19089 10.3449 9.20073C10.3414 9.1891 10.3387 9.17389 10.3378 9.16226C10.3217 9.14884 10.3163 9.14436 10.2895 9.16226C10.2901 9.17061 10.2948 9.1885 10.3038 9.21594C10.3038 9.21594 10.3011 9.21415 9.98704 8.92873C9.98972 8.89921 9.99241 8.86968 9.91099 8.82494C9.89935 8.81868 9.88325 8.81152 9.87072 8.80615C9.83195 8.86222 9.857 8.9514 9.94588 9.07368C9.9432 9.07815 9.93962 9.08442 9.93783 9.08889C9.92172 9.0865 9.90293 9.07607 9.88146 9.05757C9.69893 8.89652 9.57546 8.87863 9.51462 9.00299C9.50925 9.03073 9.51014 9.13631 9.53072 9.16226C9.5343 9.16494 9.53788 9.16673 9.54235 9.16942L9.53878 9.16405L9.54057 9.16584L9.54683 9.17299C9.54683 9.17299 9.54862 9.17389 9.54951 9.17478H9.54593L9.54414 9.17389C9.53967 9.17031 9.53341 9.16673 9.52893 9.16494C9.52267 9.2061 9.52625 9.24815 9.52088 9.28931C9.51551 9.29289 9.50925 9.29736 9.50388 9.30005C9.51044 9.30899 9.54176 9.32182 9.59783 9.33852C9.56025 9.37789 9.51104 9.34031 9.46899 9.35731C9.47435 9.36805 9.4842 9.39042 9.53072 9.40115C9.52625 9.40384 9.52088 9.40831 9.51641 9.41099C9.52088 9.41457 9.52625 9.41994 9.53072 9.42352C9.52088 9.42084 9.50567 9.42084 9.49583 9.42352C9.50478 9.45156 9.50895 9.47303 9.50835 9.48794C9.46809 9.43157 9.42962 9.43784 9.42067 9.50136C9.42067 9.50763 9.41888 9.51568 9.41888 9.52194C9.42425 9.52463 9.43051 9.5291 9.43588 9.53178C9.43051 9.5291 9.42425 9.52552 9.41888 9.52194C9.41351 9.58726 9.40814 9.59263 9.39651 9.61052C9.3813 9.61857 9.35625 9.62931 9.35446 9.62931C9.38667 9.61231 9.37862 9.58905 9.37862 9.58815C9.37683 9.57921 9.37504 9.57205 9.36072 9.54163C9.34551 9.50942 9.33299 9.48347 9.34999 9.49063C9.32135 9.47721 9.29988 9.46915 9.2793 9.46557C9.23367 9.45842 9.21935 9.46915 9.19878 9.48705C9.16567 9.52642 9.1603 9.58368 9.11467 9.6141C9.08962 9.6302 9.05741 9.63557 9.03772 9.66152C9.02341 9.68121 9.01983 9.69642 9.00551 9.75636C9.00999 9.75636 9.01714 9.75815 9.02162 9.75815C9.01714 9.76084 9.01178 9.76263 9.00641 9.76352C8.97658 9.82735 8.95302 9.85836 8.93572 9.85657C8.9563 9.87089 8.97688 9.88521 8.99746 9.89952C8.99925 9.87178 9.00462 9.86373 9.02967 9.84942C9.02788 9.86284 9.02609 9.87268 9.00372 9.9031C9.03325 9.91205 9.0583 9.93442 9.09141 9.93084C9.08872 9.9541 9.10841 10.006 9.13793 10.0364C9.09678 10.0257 9.0762 9.97736 9.02878 9.97647C8.96972 10.0382 9.07888 10.0883 9.07441 10.1518C9.0923 10.1456 9.10304 10.1429 9.12988 10.2002C9.08604 10.1742 9.05472 10.133 9.01535 10.1026C9.01088 9.99078 8.90441 9.88968 8.87041 9.88073C8.86146 9.88789 8.85878 9.89057 8.86057 9.90668C8.86146 9.91563 8.84088 10.0051 8.80957 10.0525C8.82657 10.0525 8.83014 10.0561 8.84983 10.074C8.82836 10.0633 8.81762 10.0624 8.79883 10.0722C8.81046 10.1071 8.81404 10.1232 8.81136 10.1438C8.81762 10.15 8.82209 10.1545 8.82299 10.1885C8.85699 10.2002 8.8713 10.184 8.88383 10.167C8.88204 10.1796 8.88114 10.1823 8.89457 10.1885C8.86683 10.1921 8.85341 10.2064 8.83999 10.2234C8.85341 10.2342 8.8543 10.2368 8.84714 10.2547C8.85251 10.2601 8.85609 10.2637 8.87578 10.2664C8.87578 10.2699 8.87578 10.2735 8.87578 10.2771C8.89904 10.2896 8.90709 10.3245 8.9402 10.3227C8.94646 10.312 8.94825 10.3039 8.94467 10.2655C8.95451 10.3075 8.9572 10.3102 8.96346 10.3165C8.96644 10.3093 8.97032 10.2872 8.97509 10.2503C8.98046 10.2637 8.98225 10.278 8.98583 10.2914C8.9906 10.286 8.99269 10.2598 8.99209 10.2127C9.00551 10.2476 8.98851 10.2869 9.00909 10.3209C9.04936 10.3209 9.06278 10.2941 9.07172 10.2503C9.06904 10.3039 9.06546 10.3344 9.05651 10.3764C9.02609 10.3487 9.0252 10.3478 9.01088 10.3424C9.00104 10.3648 8.98851 10.4265 9.01178 10.4453C8.99746 10.4695 8.96525 10.4722 8.95272 10.4981C8.95272 10.4981 8.94825 10.5419 8.94914 10.5697C9.00641 10.5446 9.04578 10.4883 9.1093 10.4757C9.15851 10.4659 9.17999 10.5017 9.19162 10.5205C9.18893 10.5205 9.18535 10.5205 9.18267 10.5205C9.18088 10.5366 9.18088 10.5384 9.18983 10.5688C9.2122 10.5473 9.26409 10.4534 9.26767 10.4059C9.23785 10.4012 9.21816 10.3952 9.20862 10.388C9.20951 10.3827 9.21399 10.3764 9.21757 10.3728C9.31241 10.2869 9.33388 10.2601 9.29899 10.0892C9.29899 10.0919 9.29809 10.0946 9.29809 10.0973C9.29541 10.0973 9.29183 10.099 9.28914 10.1008C9.28109 10.0946 9.27572 10.0892 9.25872 10.0633C9.26857 10.0543 9.27304 10.0409 9.28467 10.0328C9.28735 10.0328 9.29004 10.0337 9.29272 10.0346C9.27304 10.0054 9.2969 9.91891 9.3643 9.77515C9.37504 9.79752 9.37951 9.80826 9.39114 9.83063C9.41262 9.83063 9.42157 9.82794 9.43499 9.81631C9.47435 9.94784 9.42604 10.0409 9.37325 10.0489C9.32314 10.057 9.3303 10.0973 9.36251 10.1733C9.40546 10.1817 9.42962 10.1924 9.43499 10.2055C9.42157 10.2172 9.41799 10.2252 9.42514 10.261C9.42067 10.2583 9.41351 10.2556 9.40814 10.2556C9.40009 10.2637 9.3992 10.2646 9.40188 10.2825C9.4153 10.2825 9.41709 10.2798 9.42425 10.2726C9.43499 10.2896 9.42425 10.3174 9.4493 10.329C9.49583 10.3487 9.51909 10.3406 9.53878 10.3218C9.55041 10.3549 9.54862 10.3585 9.54235 10.3675C9.52028 10.3722 9.50835 10.3767 9.50657 10.3809C9.51551 10.3854 9.52804 10.3934 9.53788 10.3952C9.64435 10.4122 9.74188 10.346 9.84835 10.3603C9.90204 10.3675 9.90472 10.4301 9.94499 10.4516L9.94141 10.4569C9.97004 10.4543 10.0192 10.4748 10.0354 10.4811C10.0246 10.4811 10.013 10.4802 10.0022 10.4793C10.0434 10.5181 10.0637 10.5452 10.0631 10.5607C10.0828 10.5727 10.0947 10.6129 10.0989 10.6815C10.1212 10.6788 10.149 10.6744 10.1678 10.8148C10.2161 10.8077 10.259 10.7826 10.3065 10.771C10.3065 10.7701 10.3082 10.7683 10.3082 10.7665C10.2993 10.7567 10.2966 10.7549 10.2805 10.7495C10.268 10.7477 10.2644 10.7477 10.2474 10.7495C10.2617 10.7459 10.276 10.7415 10.2904 10.737C10.2948 10.7263 10.3038 10.7075 10.31 10.6985C10.31 10.7093 10.3074 10.7227 10.3029 10.7325C10.3082 10.7307 10.3154 10.728 10.3217 10.7263C10.3217 10.7325 10.3226 10.7406 10.3235 10.7459C10.3199 10.7638 10.3217 10.7665 10.3235 10.7683C10.3691 10.7656 10.378 10.7701 10.4049 10.7943C10.3977 10.8023 10.3771 10.8193 10.3691 10.8265C10.3584 10.8354 10.3467 10.8435 10.336 10.8524C10.2895 10.89 10.2734 10.9088 10.2742 10.9258C10.2814 10.9285 10.2904 10.9294 10.3199 10.932C10.3906 10.9374 10.4389 10.9428 10.4621 10.9705C10.4568 10.958 10.455 10.949 10.4577 10.9356C10.4612 10.9249 10.4684 10.9106 10.4747 10.9007C10.4747 10.9267 10.4756 10.9312 10.4836 10.9678L10.4908 10.9938C10.5182 11.0904 10.5325 11.1462 10.5337 11.1611C10.5391 11.2577 10.5203 11.3535 10.5185 11.4492C10.5489 11.4519 10.5534 11.4546 10.5624 11.4626C10.5624 11.4644 10.5606 11.4662 10.5597 11.468C10.5561 11.4689 10.5516 11.4698 10.5471 11.4707C10.5731 11.502 10.6071 11.544 10.633 11.5754C10.9274 11.9646 10.9381 11.9798 11.0732 12.071C11.2701 12.2035 11.3452 12.131 11.373 12.0755C11.3748 12.071 11.3775 12.0648 11.3792 12.0594C11.3792 12.0657 11.3792 12.0773 11.3792 12.0836C11.3792 12.0979 11.3801 12.1086 11.3828 12.1229C11.3846 12.1167 11.3891 12.1113 11.3962 12.105C11.4177 12.0907 11.449 12.0728 11.4795 12.0719C11.4741 12.0809 11.4634 12.0907 11.4544 12.0961C11.5913 12.08 11.5045 11.7364 11.407 11.6622L11.4034 11.6586Z" fill="#2F6E24"/>
<path d="M8.65137 10.752C8.65137 10.752 8.6535 10.7541 8.65563 10.7551C8.65456 10.7541 8.65243 10.753 8.65137 10.752Z" fill="#2F6E24"/>
<path d="M8.3597 10.8381C8.37312 10.8506 8.39817 10.805 8.39728 10.7844C8.39728 10.7835 8.39728 10.7817 8.39728 10.7808C8.40085 10.788 8.40443 10.7907 8.40443 10.7889C8.40443 10.7871 8.40264 10.7799 8.40175 10.7755C8.39996 10.7755 8.39817 10.7746 8.39728 10.7737C8.39101 10.771 8.39101 10.771 8.38654 10.771C8.36596 10.7737 8.35254 10.8041 8.35254 10.8041C8.35254 10.8041 8.35254 10.83 8.36059 10.8372L8.3597 10.8381Z" fill="#2F6E24"/>
<path d="M8.3325 11.6666C8.28508 11.6755 8.23765 11.6513 8.19023 11.6683C8.15534 11.6809 8.13387 11.722 8.12402 11.7399C8.12671 11.7453 8.12581 11.7516 8.12939 11.756C8.13118 11.7587 8.13476 11.7614 8.14013 11.7623C8.15534 11.79 8.25286 11.8706 8.32265 11.7927C8.32623 11.7891 8.32981 11.7838 8.3325 11.7802C8.32176 11.7748 8.30744 11.7686 8.30834 11.748C8.30923 11.7176 8.32802 11.6934 8.33608 11.6657C8.33518 11.6657 8.33339 11.6657 8.3325 11.6666Z" fill="#2F6E24"/>
<path d="M8.65462 10.755C8.65462 10.755 8.65909 10.7594 8.66177 10.7612C8.66804 10.7684 8.6752 10.7764 8.67251 10.7872C8.67072 10.7952 8.66625 10.8006 8.65909 10.8104C8.64835 10.8238 8.64656 10.8274 8.64209 10.8382C8.66535 10.8462 8.68325 10.8641 8.70651 10.8722C8.73067 10.8793 8.73872 10.8757 8.74588 10.8722C8.76646 10.8614 8.76467 10.8212 8.76198 10.7782C8.76198 10.7782 8.76198 10.7764 8.76198 10.7746C8.7602 10.7854 8.7602 10.797 8.7602 10.8086C8.7602 10.7997 8.7602 10.7907 8.7602 10.7809C8.7602 10.7845 8.7602 10.7881 8.7602 10.7916C8.7602 10.7881 8.7602 10.7836 8.7602 10.78C8.7602 10.7881 8.7602 10.7961 8.7602 10.8042C8.7602 10.7934 8.7593 10.7693 8.73962 10.7603C8.72709 10.755 8.71635 10.7532 8.68504 10.7567C8.66267 10.7594 8.65909 10.7585 8.65551 10.7567L8.65462 10.755ZM8.7593 10.8301C8.7593 10.8301 8.7593 10.8301 8.7593 10.831V10.8283V10.8319V10.8301Z" fill="#2F6E24"/>
<path d="M10.2645 13.3416C10.2645 13.3416 10.2645 13.3443 10.2672 13.3443L10.2636 13.3506C10.2583 13.3586 10.2556 13.3676 10.2851 13.3613C10.2914 13.3595 10.2985 13.3577 10.3048 13.3559C10.3057 13.3559 10.3075 13.3559 10.3084 13.3551C10.2958 13.3506 10.2824 13.3488 10.2699 13.3461C10.2699 13.3443 10.2708 13.3416 10.2717 13.3398L10.2645 13.3416Z" fill="#2F6E24"/>
<path d="M8.77015 10.6195C8.80057 10.6311 8.81041 10.6428 8.81041 10.6437C8.82294 10.6607 8.83457 10.6768 8.82383 10.7385C8.81936 10.7654 8.80325 10.7904 8.80594 10.819C8.80594 10.819 8.81488 10.8468 8.83815 10.8772C8.83725 10.8674 8.83815 10.8647 8.83904 10.8593C8.83904 10.8593 8.83994 10.8593 8.84083 10.8593L8.84262 10.8691C8.84978 10.8969 8.85336 10.9067 8.86141 10.9112C8.87215 10.9067 8.87752 10.904 8.89094 10.853C8.89899 10.8226 8.90078 10.819 8.90257 10.8155C8.90794 10.8056 8.9312 10.8199 8.97325 10.8468C9.01889 10.8754 9.05378 10.8978 9.07078 10.8942C9.11194 10.8844 9.19515 10.8504 9.21752 10.7895C9.2211 10.7797 9.22199 10.7671 9.22378 10.7564C9.20588 10.7859 9.12804 10.8638 8.8632 10.6267C8.89004 10.641 8.90973 10.6383 8.9312 10.6186C8.91062 10.5748 8.89362 10.5309 8.92583 10.5372C8.92225 10.5256 8.91241 10.5274 8.90704 10.5345C8.89452 10.5524 8.90704 10.5784 8.91152 10.5873C8.85604 10.547 8.8131 10.5256 8.76299 10.5345C8.73883 10.5417 8.72452 10.5506 8.70215 10.573C8.72452 10.6016 8.72989 10.6052 8.76836 10.6204L8.77015 10.6195Z" fill="#2F6E24"/>
<path d="M7.73575 10.7915C7.73575 10.7915 7.53801 10.7405 7.36264 10.8559C7.28391 10.9078 7.27317 10.923 7.25349 10.9624C7.22754 11.0134 7.2508 11.0724 7.22754 11.1243C7.2687 11.059 7.28749 11.0295 7.33938 11.0179C7.43601 10.9964 7.52817 11.0438 7.6248 11.0384C7.51117 11.0823 7.42707 11.1825 7.49864 11.2183C7.51475 11.2263 7.53533 11.2281 7.56128 11.2219C7.51833 11.2416 7.48254 11.2756 7.43691 11.2908C7.40291 11.3024 7.39396 11.2961 7.39038 11.28C7.39038 11.2899 7.39038 11.3113 7.39575 11.3418C7.26691 11.3391 7.35907 11.5493 7.43601 11.6173C7.44049 11.6209 7.44764 11.6254 7.45212 11.629C7.61764 11.6728 7.69459 11.6576 7.78675 11.612C7.71517 11.7694 7.9138 11.7122 7.91559 11.7113C7.95764 11.6988 8.00507 11.6746 7.99433 11.6352C8.04085 11.6173 8.06949 11.6003 8.11243 11.5672C8.08649 11.5753 8.00149 11.4813 8.08291 11.3257C8.1527 11.1932 8.15896 11.1557 8.15628 11.102C8.17059 11.1109 8.17596 11.1288 8.19117 11.1369C8.20191 11.1422 8.20907 11.1369 8.21712 11.1315C8.21592 11.1243 8.2198 11.1067 8.22875 11.0787C8.2377 11.076 8.25201 11.0716 8.25649 11.0635C8.26991 11.0384 8.23143 10.9767 8.18938 10.9901C8.16343 10.9991 8.14733 11.0313 8.13749 11.0528C8.14822 11.0554 8.15359 11.0626 8.16522 11.0894C8.16254 11.0912 8.15807 11.0921 8.15449 11.0939C8.15449 11.0939 8.15449 11.0939 8.15449 11.093C8.13659 11.0537 8.10438 11.0912 8.03549 11.1861C7.97196 11.2738 7.95496 11.289 7.93886 11.2917C7.93707 11.2908 7.93617 11.289 7.93438 11.2881C7.94512 11.2505 7.97285 11.2022 7.99522 11.1673C7.98449 11.1369 7.95138 11.1261 7.84759 11.1163C7.78764 11.1109 7.77243 11.1082 7.75722 11.1029C7.75901 11.0975 7.76528 11.0921 7.76886 11.0877C7.8118 11.0465 7.87891 10.9642 7.80733 10.9722C7.81538 10.9508 7.83417 10.9356 7.84043 10.9132C7.84491 10.898 7.84401 10.8756 7.83864 10.8613C7.83238 10.8452 7.81001 10.8139 7.73485 10.7906L7.73575 10.7915Z" fill="#2F6E24"/>
<path d="M8.12078 11.562C8.12078 11.562 8.11516 11.5658 8.11328 11.5686C8.11609 11.5667 8.11891 11.5648 8.12078 11.562Z" fill="#2F6E24"/>
<path d="M8.37257 10.6924C8.37257 10.6924 8.37257 10.6909 8.37109 10.6895C8.37109 10.6895 8.37109 10.6909 8.37257 10.6924Z" fill="#2F6E24"/>
<path d="M8.52234 10.9429C8.52234 10.9429 8.52047 10.9466 8.51953 10.9494L8.52422 10.9429C8.52422 10.9429 8.52234 10.9429 8.52047 10.9476C8.52047 10.9476 8.52047 10.9457 8.52141 10.9447C8.52141 10.9447 8.52141 10.9447 8.52141 10.9438L8.52234 10.9429Z" fill="#2F6E24"/>
<path d="M8.65753 12.7296C8.63963 12.7618 8.61637 12.7994 8.60742 12.8137C8.68437 12.8361 8.74521 12.7717 8.79532 12.7055C8.798 12.7019 8.80069 12.6974 8.80337 12.6947C8.79084 12.6831 8.77921 12.6804 8.75595 12.6831C8.73805 12.6867 8.72553 12.6902 8.70047 12.7019C8.68884 12.7072 8.67811 12.7162 8.66468 12.7189C8.66468 12.7153 8.66737 12.7126 8.66916 12.7099C8.66647 12.7135 8.66558 12.7144 8.65663 12.7305L8.65753 12.7296Z" fill="#2F6E24"/>
<path d="M7.13571 6.57798C7.14377 6.61377 7.22787 6.64777 7.22877 6.64777C7.2744 6.66388 7.29408 6.65224 7.31108 6.63882C7.32719 6.62182 7.33703 6.60572 7.34777 6.56367C7.34419 6.57172 7.32808 6.56367 7.28871 6.54756C7.24487 6.52877 7.11156 6.47151 7.13571 6.57709V6.57798Z" fill="#2F6E24"/>
<path d="M8.37527 10.6957C8.37527 10.6957 8.37314 10.6925 8.37207 10.6914C8.37314 10.6914 8.3742 10.6914 8.37527 10.6957Z" fill="#2F6E24"/>
<path d="M9.24169 10.5954C9.25243 10.591 9.25333 10.5811 9.25154 10.5498C9.25154 10.548 9.25154 10.5462 9.25154 10.5444C9.25154 10.5444 9.25154 10.5462 9.25064 10.5471C9.24527 10.5605 9.23901 10.574 9.23364 10.5883C9.23364 10.5883 9.23364 10.5883 9.23364 10.5874C9.23275 10.5856 9.23185 10.5829 9.23096 10.582C9.23096 10.582 9.23096 10.5865 9.23096 10.599C9.23454 10.5999 9.24617 10.6035 9.24438 10.5981L9.24169 10.5954Z" fill="#2F6E24"/>
<path d="M8.86694 12.8715L8.88037 12.8858C8.90631 12.9028 8.95821 12.8169 8.95821 12.7713C8.95821 12.7507 8.94837 12.7489 8.9421 12.748H8.94121H8.94031C8.91705 12.7525 8.88037 12.7982 8.86873 12.8259C8.86605 12.8313 8.85979 12.8474 8.86247 12.8599C8.86337 12.8653 8.86605 12.8688 8.86784 12.8706L8.86694 12.8715Z" fill="#2F6E24"/>
<path d="M8.90464 12.5355C8.90464 12.5355 8.91359 12.5337 8.92164 12.5319C8.92253 12.5319 8.92432 12.5319 8.92522 12.531C8.90553 12.5256 8.88764 12.5158 8.86706 12.5149C8.92611 12.3869 8.78206 12.3288 8.7588 12.3252C8.75522 12.3332 8.75164 12.3431 8.74806 12.3511C8.67917 12.4692 8.52527 12.4809 8.44922 12.59C8.48769 12.6196 8.5208 12.6196 8.55748 12.5882C8.57627 12.5963 8.69169 12.5721 8.73196 12.5435C8.74001 12.5381 8.75075 12.5301 8.77222 12.5274C8.81696 12.522 8.8599 12.5417 8.90553 12.5346L8.90464 12.5355Z" fill="#2F6E24"/>
<path d="M1.71925 3.38477L1.71777 3.38771V3.38624H1.71925V3.38477Z" fill="#2F6E24"/>
<path d="M2.66224 2.41943C2.66224 2.41943 2.65662 2.42599 2.65381 2.42974C2.65662 2.42599 2.65943 2.42318 2.66131 2.41943H2.66224Z" fill="#2F6E24"/>
<path d="M1.84675 3.32316C1.83959 3.32853 1.82975 3.33748 1.81722 3.35179C1.81722 3.35179 1.81632 3.35269 1.81543 3.35358C1.82617 3.34284 1.8369 3.333 1.84764 3.32227L1.84675 3.32316Z" fill="#2F6E24"/>
<path d="M1.846 3.37957C1.83526 3.41715 1.82095 3.46278 1.82721 3.47799C1.83169 3.48783 1.84242 3.48157 1.85048 3.47531C1.84958 3.47531 1.84779 3.4771 1.8469 3.4771H1.84511C1.84153 3.46904 1.85316 3.4431 1.89163 3.36525C1.93369 3.28025 1.948 3.24983 1.93995 3.24268C1.93279 3.24268 1.92563 3.24804 1.90505 3.26683C1.90863 3.26236 1.91311 3.25878 1.91669 3.25431C1.91221 3.25789 1.90863 3.26236 1.90416 3.26683C1.90595 3.26504 1.90774 3.26325 1.90863 3.26147C1.88895 3.28234 1.86837 3.30292 1.8469 3.3232C1.863 3.31515 1.86032 3.32946 1.84511 3.38046L1.846 3.37957ZM1.88895 3.28294L1.90058 3.27041L1.88448 3.28652L1.88895 3.28294ZM1.88984 3.28294L1.88448 3.2892L1.89074 3.28204L1.88984 3.28294Z" fill="#2F6E24"/>
<path d="M1.71601 3.38818L1.7187 3.3846C1.7187 3.3846 1.71512 3.38818 1.71422 3.38997C1.71333 3.38997 1.71154 3.39175 1.71064 3.39175C1.71064 3.38907 1.71154 3.3837 1.71959 3.37207C1.62475 3.49733 1.53348 3.62439 1.4458 3.75502L1.45206 3.74607C1.56927 3.58323 1.69006 3.41502 1.71601 3.38728V3.38818Z" fill="#2F6E24"/>
<path d="M7.0444 16.8579C7.05066 16.8597 7.05961 16.8615 7.06677 16.8633C7.12224 16.877 7.15236 16.8844 7.15714 16.8856C7.04172 16.8722 6.92987 16.8382 6.81445 16.8257C7.13477 16.9134 7.46493 16.9223 7.79151 16.9554C7.80314 16.9554 7.81477 16.9572 7.8264 16.9581C7.35935 16.9026 7.09898 16.8692 7.04529 16.8579H7.0444Z" fill="#2F6E24"/>
<path d="M7.74023 16.9536C7.78408 16.959 7.82792 16.9617 7.87176 16.9652C7.84492 16.9617 7.81808 16.959 7.79123 16.9563C7.77423 16.9554 7.75723 16.9536 7.74023 16.9536Z" fill="#2F6E24"/>
<path d="M6.91199 16.8244C6.57915 16.7439 6.37157 16.6714 6.22841 16.6177C6.23109 16.6186 6.23378 16.6204 6.23646 16.6222C6.00115 16.5963 5.80609 16.4603 5.58957 16.3815C5.46072 16.335 5.32741 16.3019 5.19678 16.2607C5.33367 16.3171 5.44999 16.3636 5.63788 16.4334C6.08048 16.5969 6.30327 16.6801 6.30625 16.6831C6.2985 16.6843 6.28925 16.6843 6.27851 16.6831C6.27851 16.6831 6.27315 16.6813 6.27046 16.6804C6.26957 16.6804 6.26778 16.6804 6.26688 16.6804L6.25525 16.6768H6.25257C6.24541 16.675 6.23646 16.6732 6.2293 16.6714C6.23288 16.6732 6.23736 16.675 6.24093 16.6759C6.24093 16.6759 6.23915 16.6759 6.23825 16.6759H6.24093C6.24093 16.6759 6.24541 16.6777 6.24809 16.6786C6.28388 16.6929 6.70351 16.8038 6.88694 16.8244C6.89409 16.8244 6.90393 16.8262 6.91199 16.8271V16.8244Z" fill="#2F6E24"/>
<path d="M1.71925 3.38574C1.71925 3.38574 1.71925 3.38722 1.71777 3.38869C1.71777 3.38869 1.71925 3.38722 1.72072 3.38574H1.71925Z" fill="#2F6E24"/>
<path d="M7.87207 16.9653C7.90607 16.9689 7.94007 16.9725 7.97318 16.9779C7.93918 16.9716 7.90607 16.968 7.87207 16.9653Z" fill="#2F6E24"/>
<path d="M3.41602 1.68739C3.43838 1.67039 3.46165 1.65429 3.48402 1.63818C3.48312 1.63818 3.48223 1.63908 3.48133 1.63997L3.41602 1.68739Z" fill="#2F6E24"/>
<path d="M1.5459 13.1357C1.5459 13.1357 1.54777 13.1414 1.54965 13.1432C1.55059 13.1461 1.55246 13.1498 1.55433 13.1526C1.55152 13.147 1.54871 13.1404 1.5459 13.1357Z" fill="#2F6E24"/>
<g style="mix-blend-mode:multiply">
<path d="M13.1449 1.38086C14.0181 2.71581 14.5263 4.31202 14.5263 6.02633C14.5263 10.721 10.721 14.5263 6.02633 14.5263C4.31202 14.5263 2.7167 14.0181 1.38086 13.1458C2.89833 15.4667 5.51991 17.0003 8.50028 17.0003C13.195 17.0003 17.0003 13.195 17.0003 8.50028C17.0003 5.51991 15.4667 2.89833 13.1449 1.38086Z" fill="#DBDBDB"/>
</g>
<g style="mix-blend-mode:screen">
<path d="M0.252441 6.43768C0.437652 6.45557 0.624652 6.46541 0.814336 6.46541C3.93607 6.46541 6.46639 3.9351 6.46639 0.81336C6.46639 0.623675 6.45655 0.436675 6.43865 0.251465C3.40013 1.00931 1.00939 3.40004 0.252441 6.43768Z" fill="#262626"/>
</g>
</g>
<defs>
<clipPath id="clip0_268_2409">
<rect width="17" height="17" fill="white"/>
</clipPath>
</defs>
</svg>
