<svg width="17" height="17" viewBox="0 0 17 17" fill="none" xmlns="http://www.w3.org/2000/svg">
<path d="M16.9989 6.0353C16.9989 6.02153 17 6.00804 17 5.99455C17 3.422 15.1632 1.06641 12.4012 1.06641C10.2065 1.06641 8.93407 2.66406 8.5 4.15927C8.06593 2.66406 6.7932 1.06641 4.59878 1.06641C1.83685 1.06641 0 3.422 0 5.99427C0 6.00804 0.00085 6.02153 0.00113333 6.03502C-0.0136 6.59464 0 12.2899 8.49745 16.9316V16.9328C8.49745 16.9328 8.4983 16.9322 8.49858 16.9322C8.49915 16.9322 8.49943 16.9325 8.49972 16.9328C8.50028 16.9328 8.50057 16.9322 8.50085 16.9322C8.50113 16.9322 8.5017 16.9325 8.50198 16.9328V16.9316C16.9994 12.2896 17.013 6.59464 16.9983 6.03502L16.9989 6.0353Z" fill="#BD242B"/>
<path d="M5.4375 14.9622C6.31045 15.628 7.32252 16.2901 8.49778 16.9321V16.9332C8.49778 16.9332 8.49863 16.9326 8.49892 16.9326C8.4992 16.9326 8.49977 16.9329 8.50005 16.9332C8.50033 16.9332 8.5009 16.9326 8.50118 16.9326C8.50147 16.9326 8.50203 16.9329 8.5026 16.9332V16.9321C17 12.29 17.0136 6.59507 16.9989 6.03545C16.9989 6.02167 17 6.00818 17 5.9947C17 5.66925 16.9703 5.34697 16.9133 5.03271C14.235 11.5743 8.91825 14.0372 5.4375 14.9625V14.9622Z" fill="#AC262B"/>
<path d="M0.470491 6.58061C0.470491 6.58061 0.410991 1.67886 5.43704 1.62061C5.43704 1.62061 2.01664 2.46177 0.470491 6.58061Z" fill="#CD4A45"/>
<path d="M9.43922 5.54248H7.56299V13.4559H9.43922V5.54248Z" fill="white"/>
<path d="M12.4072 10.4493V8.54883H4.59459V10.4493H12.4072Z" fill="white"/>
</svg>

