<svg width="17" height="17" viewBox="0 0 17 17" fill="none" xmlns="http://www.w3.org/2000/svg">
<g clip-path="url(#clip0_265_2323)">
<path d="M8.5 17C13.1944 17 17 13.1944 17 8.5C17 3.80558 13.1944 0 8.5 0C3.80558 0 0 3.80558 0 8.5C0 13.1944 3.80558 17 8.5 17Z" fill="#F6D738"/>
<path d="M8.50002 15.7139C12.4841 15.7139 15.7139 12.4841 15.7139 8.50002C15.7139 4.5159 12.4841 1.28613 8.50002 1.28613C4.5159 1.28613 1.28613 4.5159 1.28613 8.50002C1.28613 12.4841 4.5159 15.7139 8.50002 15.7139Z" fill="#F3CC30"/>
<path d="M12.2742 2.34326C12.9925 3.46473 13.4091 4.79822 13.4091 6.2289C13.4091 10.2131 10.1793 13.4428 6.19517 13.4428C4.81161 13.4428 3.51907 13.053 2.4209 12.3775C3.70299 14.379 5.94646 15.7058 8.49994 15.7058C12.4841 15.7058 15.7138 12.4761 15.7138 8.49191C15.7138 5.89158 14.3378 3.61277 12.2742 2.34326Z" fill="#EDBD31"/>
<path d="M2.54981 9.16C2.54981 5.64301 5.40072 2.79209 8.91772 2.79209C10.9735 2.79209 12.8012 3.76632 13.9655 5.27811C12.866 3.36929 10.8048 2.08398 8.44359 2.08398C4.9266 2.08398 2.07568 4.9349 2.07568 8.45189C2.07568 9.91309 2.56828 11.2592 3.39579 12.3338C2.85768 11.3994 2.54954 10.3157 2.54954 9.16H2.54981Z" fill="#F7DB5E"/>
<path d="M7.19761 13.148C7.19761 12.8019 7.19708 12.4554 7.19681 12.1093C7.19681 12.0097 7.19628 12.0094 7.09883 12.0094C6.47558 12.0094 5.85234 12.0094 5.22909 12.0094C5.12254 12.0094 5.12094 12.0081 5.12094 11.9023C5.12094 11.6426 5.1204 11.383 5.12094 11.1233C5.12094 11.028 5.12709 11.0229 5.22187 11.0223C5.35787 11.0215 5.4936 11.0223 5.62933 11.0106C5.82235 10.9934 5.91953 10.8989 5.93694 10.7051C5.94738 10.5892 5.94818 10.473 5.94845 10.3568C5.94845 9.11273 5.94872 7.86892 5.94791 6.62484C5.94791 6.51614 5.94256 6.40745 5.93587 6.29876C5.92516 6.12769 5.80924 6.01551 5.63683 5.99811C5.4936 5.98366 5.35037 5.98258 5.20714 5.9858C5.14262 5.98714 5.1196 5.96385 5.12013 5.89986C5.12201 5.62786 5.12254 5.35586 5.12013 5.08386C5.11933 5.01372 5.14798 4.99658 5.2133 4.99658C5.83895 4.99846 6.46461 4.99766 7.09026 4.99766C7.16094 4.99766 7.19636 4.96223 7.19654 4.89137C7.19654 4.57734 7.19842 4.26331 7.19547 3.94901C7.19467 3.87458 7.21876 3.85103 7.29372 3.8521C7.56331 3.85611 7.83291 3.85638 8.1025 3.8521C8.18013 3.85076 8.19834 3.8786 8.1978 3.95088C8.19459 4.27 8.19861 4.58885 8.19486 4.90797C8.19405 4.98079 8.21815 5.00167 8.28829 4.99926C8.42911 4.99471 8.5702 4.99792 8.71102 4.99792C8.81061 4.99792 8.81087 4.99766 8.81087 4.90101C8.81087 4.5918 8.81087 4.28285 8.81087 3.97364C8.81087 3.89386 8.85192 3.85388 8.93402 3.8537C9.18862 3.8537 9.44349 3.8537 9.69809 3.8537C9.80999 3.8537 9.81026 3.8537 9.81026 3.9632C9.81026 4.29222 9.8124 4.62098 9.80892 4.95C9.80812 5.02362 9.83542 5.04932 9.90476 5.05709C10.3628 5.10956 10.7775 5.26644 11.1261 5.57646C11.2934 5.72531 11.4176 5.90655 11.5022 6.11189C11.6931 6.57504 11.6669 7.03016 11.4243 7.46814C11.2487 7.78512 10.9831 8.0092 10.6611 8.16983C10.5671 8.21668 10.4686 8.25309 10.3735 8.30904C10.4919 8.34732 10.611 8.38373 10.7285 8.42416C10.9896 8.51358 11.2257 8.64744 11.4176 8.84662C11.6626 9.10095 11.8147 9.40347 11.8612 9.75658C11.9528 10.4494 11.6995 11.0028 11.1684 11.4341C10.8035 11.7302 10.3703 11.8729 9.90905 11.9329C9.83489 11.9425 9.80785 11.9658 9.80865 12.0429C9.81187 12.4113 9.80946 12.7799 9.80919 13.1483H8.81489C8.81355 13.1162 8.81087 13.0843 8.81087 13.0522C8.81061 12.7357 8.8082 12.4193 8.81248 12.1029C8.81355 12.0258 8.78839 12.0049 8.71476 12.0081C8.58894 12.0134 8.46257 12.0092 8.33648 12.0097C8.18094 12.0105 8.19673 11.9931 8.1962 12.1473C8.19459 12.4809 8.19325 12.8147 8.19191 13.1483H7.19761V13.148ZM7.69851 9.78041C7.69851 9.78041 7.70012 9.78041 7.70119 9.78041C7.70119 9.97584 7.69878 10.171 7.70199 10.3664C7.70387 10.48 7.69369 10.5943 7.71779 10.7064C7.74081 10.8138 7.78766 10.8515 7.89555 10.8606C8.15711 10.8831 8.41947 10.8772 8.68103 10.8714C8.89788 10.8665 9.11473 10.8526 9.32703 10.7945C10.0054 10.6087 10.2298 9.82164 9.90128 9.31003C9.74788 9.07123 9.50158 8.97378 9.23413 8.92452C9.07591 8.89534 8.91502 8.8932 8.75465 8.88544C8.42108 8.86937 8.08724 8.88249 7.75366 8.87767C7.71377 8.87714 7.69744 8.89186 7.69771 8.93496C7.69958 9.21687 7.69851 9.49851 7.69851 9.78041ZM7.70146 6.9884C7.70146 7.23818 7.70413 7.48769 7.69985 7.7372C7.69851 7.8135 7.72475 7.83518 7.79837 7.83331C7.97372 7.82876 8.14935 7.82956 8.3247 7.83251C8.60955 7.83706 8.89253 7.8218 9.17336 7.77254C9.58377 7.70025 9.84346 7.46172 9.90128 7.08852C9.95697 6.72818 9.80276 6.38978 9.44938 6.25432C9.22931 6.16999 8.99587 6.1566 8.76429 6.15044C8.44062 6.14188 8.11668 6.1491 7.79302 6.14536C7.721 6.14455 7.69931 6.16892 7.70012 6.23933C7.70333 6.48884 7.70146 6.73862 7.70146 6.98813V6.9884Z" fill="#D49A34"/>
</g>
<defs>
<clipPath id="clip0_265_2323">
<rect width="17" height="17" fill="white"/>
</clipPath>
</defs>
</svg>
